<svg width="542" height="162" viewBox="0 0 542 162" fill="none" xmlns="http://www.w3.org/2000/svg">
<path d="M538.404 142.241C538.404 144.262 538.005 146.264 537.231 148.131C536.457 149.998 535.322 151.694 533.892 153.123C532.462 154.551 530.764 155.684 528.895 156.456C527.027 157.228 525.024 157.624 523.003 157.622H18.9954C14.9104 157.626 10.991 156.008 8.09906 153.124C5.20714 150.24 3.57954 146.325 3.57422 142.241V19.5827C3.57954 15.4969 5.20649 11.5803 8.09784 8.69271C10.9892 5.80514 14.9086 4.1827 18.9954 4.18164H522.999C525.022 4.18164 527.025 4.58003 528.893 5.35406C530.762 6.12808 532.46 7.26258 533.89 8.69275C535.321 10.1229 536.455 11.8208 537.229 13.6893C538.002 15.5578 538.4 17.5604 538.4 19.5827L538.404 142.241Z" fill="white"/>
<path d="M523.004 161.2H18.9963C13.9641 161.199 9.13777 159.202 5.57642 155.648C2.01507 152.094 0.009575 147.272 0 142.241L0 19.5867C0.00744449 14.5533 2.01161 9.72831 5.57285 6.17028C9.13408 2.61224 13.9616 0.61167 18.9963 0.607422L523 0.607422C528.034 0.61379 532.86 2.61505 536.421 6.17262C539.982 9.7302 541.986 14.5539 541.996 19.5867V142.241C542.004 152.698 533.468 161.2 523.004 161.2V161.2Z" fill="#A6A6A6"/>
<path d="M538.404 142.241C538.404 144.262 538.005 146.264 537.231 148.131C536.457 149.998 535.322 151.694 533.892 153.123C532.462 154.551 530.764 155.684 528.895 156.456C527.027 157.228 525.024 157.624 523.003 157.622H18.9954C14.9104 157.626 10.991 156.008 8.09906 153.124C5.20714 150.24 3.57954 146.325 3.57422 142.241V19.5827C3.57954 15.4969 5.20649 11.5803 8.09784 8.69271C10.9892 5.80514 14.9086 4.1827 18.9954 4.18164H522.999C525.022 4.18164 527.025 4.58003 528.893 5.35406C530.762 6.12808 532.46 7.26258 533.89 8.69275C535.321 10.1229 536.455 11.8208 537.229 13.6893C538.002 15.5578 538.4 17.5604 538.4 19.5827L538.404 142.241Z" fill="black"/>
<path d="M109.261 84.2113C109.143 71.0725 120.022 64.6804 120.519 64.3828C114.358 55.4021 104.808 54.175 101.452 54.0772C93.4316 53.2333 85.6514 58.8753 81.5656 58.8753C77.3982 58.8753 71.1064 54.1587 64.3252 54.2973C55.599 54.4319 47.4355 59.4827 42.9583 67.3261C33.7183 83.3185 40.6095 106.82 49.4621 119.747C53.8905 126.082 59.065 133.147 65.838 132.898C72.4642 132.629 74.9394 128.679 82.9357 128.679C90.8586 128.679 93.1828 132.898 100.09 132.739C107.202 132.629 111.679 126.379 115.952 119.991C121.07 112.739 123.125 105.589 123.207 105.222C123.044 105.165 109.4 99.9551 109.261 84.2113ZM96.2125 45.5734C99.7764 41.1177 102.215 35.0559 101.538 28.9043C96.3797 29.1326 89.9289 32.4713 86.2141 36.8292C82.9275 40.6693 79.9916 46.9636 80.75 52.8828C86.5444 53.3149 92.4937 49.9598 96.2125 45.5734Z" fill="white"/>
<path d="M210.139 126.294H201.016L196.019 110.595H178.649L173.889 126.294H165.008L182.221 72.8497H192.85L210.139 126.294V126.294ZM194.513 104.009L189.993 90.0539C189.515 88.6283 188.616 85.271 187.298 79.986H187.137C186.607 82.259 185.76 85.6163 184.599 90.0539L180.156 104.009H194.513ZM254.317 106.551C254.317 113.105 252.538 118.286 248.975 122.089C245.785 125.474 241.821 127.165 237.093 127.165C231.987 127.165 228.316 125.346 226.086 121.699V141.92H217.522V100.423C217.522 96.3067 217.413 92.086 217.205 87.7568H224.736L225.214 93.8651H225.375C228.231 89.2628 232.565 86.9617 238.382 86.9617C242.929 86.9617 246.725 88.7568 249.762 92.3511C252.795 95.9533 254.317 100.684 254.317 106.551ZM245.593 106.865C245.593 103.114 244.749 100.021 243.054 97.5838C241.202 95.0497 238.715 93.7807 235.598 93.7807C233.485 93.7807 231.565 94.4875 229.85 95.881C228.131 97.2866 227.006 99.1219 226.48 101.395C226.245 102.245 226.111 103.12 226.082 104.001V110.431C226.082 113.23 226.942 115.595 228.661 117.531C230.38 119.459 232.614 120.426 235.361 120.426C238.587 120.426 241.098 119.177 242.893 116.7C244.693 114.214 245.593 110.937 245.593 106.865V106.865ZM298.653 106.551C298.653 113.105 296.873 118.286 293.31 122.089C290.117 125.474 286.156 127.165 281.424 127.165C276.319 127.165 272.647 125.346 270.418 121.699V141.92H261.853V100.423C261.853 96.3067 261.745 92.086 261.536 87.7568H269.068L269.546 93.8651H269.707C272.559 89.2628 276.893 86.9617 282.714 86.9617C287.257 86.9617 291.053 88.7568 294.098 92.3511C297.127 95.9533 298.653 100.684 298.653 106.551V106.551ZM289.924 106.865C289.924 103.114 289.076 100.021 287.381 97.5838C285.529 95.0497 283.051 93.7807 279.934 93.7807C277.821 93.7807 275.901 94.4875 274.177 95.881C272.458 97.2866 271.337 99.1219 270.811 101.395C270.55 102.455 270.41 103.319 270.41 104.001V110.431C270.41 113.23 271.273 115.595 272.984 117.531C274.704 119.455 276.937 120.426 279.693 120.426C282.922 120.426 285.433 119.177 287.225 116.7C289.024 114.214 289.924 110.937 289.924 106.865V106.865ZM348.223 111.302C348.223 115.852 346.632 119.551 343.47 122.406C339.992 125.523 335.135 127.085 328.909 127.085C323.157 127.085 318.545 125.976 315.066 123.756L317.047 116.619C320.803 118.844 324.928 119.952 329.419 119.952C332.649 119.952 335.159 119.222 336.951 117.772C338.747 116.318 339.654 114.374 339.654 111.949C339.654 109.776 338.903 107.957 337.429 106.475C335.947 104.997 333.496 103.62 330.054 102.355C320.694 98.8649 316.01 93.7606 316.01 87.046C316.01 82.6606 317.665 79.0704 320.967 76.2633C324.269 73.4601 328.648 72.0586 334.095 72.0586C338.959 72.0586 343.013 72.906 346.23 74.5967L344.081 81.5763C341.052 79.9378 337.634 79.1186 333.81 79.1186C330.789 79.1186 328.419 79.8615 326.724 81.3394C325.298 82.6606 324.575 84.271 324.575 86.1826C324.575 88.291 325.398 90.0419 327.037 91.4153C328.459 92.6804 331.054 94.0578 334.806 95.5357C339.409 97.391 342.792 99.5516 344.957 102.033C347.138 104.515 348.223 107.612 348.223 111.302ZM376.611 94.1823H367.171V112.892C367.171 117.651 368.834 120.025 372.168 120.025C373.698 120.025 374.968 119.896 375.972 119.627L376.209 126.129C374.522 126.759 372.3 127.077 369.549 127.077C366.166 127.077 363.523 126.045 361.615 123.98C359.715 121.916 358.759 118.459 358.759 113.591V94.1662H353.135V87.7408H358.759V80.6848L367.171 78.1467V87.7408H376.611V94.1823V94.1823ZM419.118 106.708C419.118 112.631 417.423 117.495 414.041 121.298C410.502 125.213 405.794 127.165 399.925 127.165C394.261 127.165 389.758 125.29 386.4 121.543C383.042 117.788 381.363 113.057 381.363 107.351C381.363 101.379 383.098 96.4875 386.557 92.6844C390.023 88.8773 394.691 86.9737 400.56 86.9737C406.216 86.9737 410.759 88.8532 414.198 92.6041C417.483 96.2425 419.118 100.941 419.118 106.708ZM410.241 106.905C410.241 103.375 409.478 100.347 407.947 97.8127C406.152 94.7526 403.581 93.2225 400.251 93.2225C396.82 93.2225 394.189 94.7526 392.397 97.8127C390.863 100.347 390.1 103.427 390.1 107.065C390.1 110.599 390.863 113.635 392.397 116.161C394.249 119.222 396.832 120.752 400.178 120.752C403.452 120.752 406.019 119.189 407.875 116.085C409.449 113.491 410.241 110.443 410.241 106.905ZM446.968 95.2867C446.077 95.1259 445.174 95.0466 444.269 95.0498C441.256 95.0498 438.926 96.1822 437.287 98.4633C435.865 100.471 435.15 103.009 435.15 106.073V126.294H426.586V99.893C426.594 95.8476 426.511 91.8025 426.337 87.7609H433.796L434.11 95.1341H434.347C435.255 92.6 436.677 90.5559 438.629 89.0259C440.416 87.6889 442.587 86.9649 444.819 86.9617C445.61 86.9617 446.325 87.0179 446.96 87.1183L446.968 95.2867V95.2867ZM485.27 105.202C485.292 106.504 485.187 107.804 484.957 109.085H459.264C459.361 112.892 460.606 115.808 462.992 117.816C465.157 119.607 467.957 120.507 471.395 120.507C475.2 120.507 478.67 119.904 481.791 118.687L483.133 124.627C479.486 126.217 475.179 127.008 470.21 127.008C464.233 127.008 459.541 125.249 456.127 121.74C452.72 118.226 451.013 113.503 451.013 107.587C451.013 101.78 452.6 96.9412 455.777 93.0819C459.103 88.9616 463.598 86.9014 469.254 86.9014C474.81 86.9014 479.016 88.9616 481.872 93.0819C484.133 96.3469 485.27 100.395 485.27 105.202V105.202ZM477.104 102.981C477.164 100.439 476.601 98.2504 475.441 96.3991C473.958 94.0136 471.677 92.8249 468.62 92.8249C465.82 92.8249 463.538 93.9855 461.803 96.3148C460.377 98.1661 459.529 100.391 459.268 102.973L477.104 102.981Z" fill="white"/>
<path d="M189.097 43.911C189.097 47.1228 188.294 49.9332 186.286 51.9406C183.877 54.3495 181.067 55.554 177.454 55.554C173.84 55.554 171.03 54.3495 168.621 51.9406C166.212 49.5317 165.008 46.7214 165.008 43.108C165.008 39.4947 166.212 36.6843 168.621 34.2754C171.03 31.8666 173.84 30.6621 177.454 30.6621C179.06 30.6621 180.666 31.0636 182.272 31.8666C183.877 32.6695 185.082 33.4725 185.885 34.6769L183.877 36.6843C182.272 34.6769 180.264 33.874 177.454 33.874C175.045 33.874 172.636 34.6769 171.03 36.6843C169.023 38.2903 168.22 40.6991 168.22 43.5095C168.22 46.3199 169.023 48.7288 171.03 50.3347C173.037 51.9406 175.045 53.1451 177.454 53.1451C180.264 53.1451 182.272 52.3421 184.279 50.3347C185.483 49.1303 186.286 47.5243 186.286 45.5169H177.454V42.3051H189.097V43.911ZM207.565 33.874H196.725V41.5021H206.762V44.3125H196.725V51.9406H207.565V55.1525H193.513V31.0636H207.565V33.874ZM220.814 55.1525H217.602V33.874H210.777V31.0636H227.639V33.874H220.814V55.1525ZM239.282 55.1525V31.0636H242.494V55.1525H239.282ZM256.144 55.1525H252.932V33.874H246.107V31.0636H262.568V33.874H255.743V55.1525H256.144ZM294.285 51.9406C291.876 54.3495 289.066 55.554 285.452 55.554C281.839 55.554 279.029 54.3495 276.62 51.9406C274.211 49.5317 273.006 46.7214 273.006 43.108C273.006 39.4947 274.211 36.6843 276.62 34.2754C279.029 31.8666 281.839 30.6621 285.452 30.6621C289.066 30.6621 291.876 31.8666 294.285 34.2754C296.694 36.6843 297.898 39.4947 297.898 43.108C297.898 46.7214 296.694 49.5317 294.285 51.9406ZM279.029 49.9332C280.634 51.5391 283.043 52.7436 285.452 52.7436C287.861 52.7436 290.27 51.9406 291.876 49.9332C293.482 48.3273 294.686 45.9184 294.686 43.108C294.686 40.2977 293.883 37.8888 291.876 36.2829C290.27 34.6769 287.861 33.4725 285.452 33.4725C283.043 33.4725 280.634 34.2754 279.029 36.2829C277.423 37.8888 276.218 40.2977 276.218 43.108C276.218 45.9184 277.021 48.3273 279.029 49.9332ZM302.314 55.1525V31.0636H305.928L317.571 49.9332V31.0636H320.783V55.1525H317.571L305.125 35.4799V55.1525H302.314Z" fill="white" stroke="white" stroke-width="0.2" stroke-miterlimit="10"/>
</svg>
