<svg width="542" height="163" viewBox="0 0 542 163" fill="none" xmlns="http://www.w3.org/2000/svg">
<path d="M521.926 160.977H20.0741C9.03333 160.977 0 151.922 0 140.855V20.1222C0 9.05498 9.03333 0 20.0741 0H521.926C532.967 0 542 9.05498 542 20.1222V140.855C542 151.922 532.967 160.977 521.926 160.977Z" fill="black"/>
<path d="M521.926 3.21955C531.24 3.21955 538.788 10.7855 538.788 20.1222V140.855C538.788 150.192 531.24 157.758 521.926 157.758H20.0741C10.7597 157.758 3.21185 150.192 3.21185 140.855V20.1222C3.21185 10.7855 10.7597 3.21955 20.0741 3.21955H521.926ZM521.926 0H20.0741C9.03333 0 0 9.05498 0 20.1222V140.855C0 151.922 9.03333 160.977 20.0741 160.977H521.926C532.967 160.977 542 151.922 542 140.855V20.1222C542 9.05498 532.967 0 521.926 0Z" fill="#A6A6A6"/>
<path d="M169.808 119.543H166.957V111.844H169.808V119.543Z" fill="white" stroke="white" stroke-width="0.2" stroke-miterlimit="10"/>
<path d="M174.906 136.224V111.844H182.374C186.108 111.844 189.119 112.967 191.367 115.252C193.615 117.498 194.739 120.465 194.739 124.074C194.739 127.683 193.615 130.61 191.367 132.896C189.119 135.141 186.108 136.304 182.374 136.304H174.906V136.224ZM178.038 133.256H182.374C185.184 133.256 187.432 132.454 189.079 130.851C190.725 129.247 191.568 126.961 191.568 124.074C191.568 121.187 190.725 118.941 189.079 117.297C187.432 115.653 185.184 114.851 182.374 114.851H178.038V133.256Z" fill="white" stroke="white" stroke-width="0.2" stroke-miterlimit="10"/>
<path d="M213.409 114.851H202.288V122.59H212.325V125.517H202.288V133.256H213.409V136.264H199.156V111.844H213.409V114.851Z" fill="white" stroke="white" stroke-width="0.2" stroke-miterlimit="10"/>
<path d="M217.863 136.224V111.844H221.677L233.561 130.81H233.682L233.561 126.119V111.844H236.693V136.264H233.401L220.995 116.375H220.874L220.995 121.066V136.264L217.863 136.224Z" fill="white" stroke="white" stroke-width="0.2" stroke-miterlimit="10"/>
<path d="M247.094 136.224L256.288 111.844H259.821L269.015 136.264H265.522L263.153 129.648H252.875L250.466 136.264L247.094 136.224ZM253.999 126.68H262.109L258.134 115.653H258.014L253.999 126.68Z" fill="white" stroke="white" stroke-width="0.2" stroke-miterlimit="10"/>
<path d="M272.266 136.224V111.844H275.397V133.256H285.996V136.264L272.266 136.224Z" fill="white" stroke="white" stroke-width="0.2" stroke-miterlimit="10"/>
<path d="M289.367 136.224V111.844H292.499V136.264L289.367 136.224Z" fill="white" stroke="white" stroke-width="0.2" stroke-miterlimit="10"/>
<path d="M298.121 136.224V111.844H301.935L313.819 130.81H313.939L313.819 126.119V111.844H316.951V136.264H313.699L301.293 116.375H301.172L301.293 121.066V136.264L298.121 136.224Z" fill="white" stroke="white" stroke-width="0.2" stroke-miterlimit="10"/>
<path d="M210.139 83.1237H201.016L196.019 67.4255H178.649L173.889 83.1237H165.008L182.221 29.6798H192.85L210.139 83.1237V83.1237ZM194.513 60.8394L189.993 46.884C189.515 45.4584 188.616 42.1011 187.298 36.8161H187.137C186.607 39.0891 185.76 42.4464 184.599 46.884L180.156 60.8394H194.513ZM254.317 63.3814C254.317 69.9354 252.538 75.116 248.975 78.919C245.785 82.3045 241.821 83.9952 237.093 83.9952C231.987 83.9952 228.316 82.176 226.086 78.5295V98.7497H217.522V57.2531C217.522 53.1368 217.413 48.9161 217.205 44.5869H224.736L225.214 50.6951H225.375C228.231 46.0929 232.565 43.7918 238.382 43.7918C242.929 43.7918 246.725 45.5869 249.762 49.1811C252.795 52.7834 254.317 57.5142 254.317 63.3814ZM245.593 63.6947C245.593 59.9438 244.749 56.8515 243.054 54.4139C241.202 51.8798 238.715 50.6108 235.598 50.6108C233.485 50.6108 231.565 51.3176 229.85 52.7111C228.131 54.1167 227.006 55.952 226.48 58.225C226.245 59.075 226.111 59.9499 226.082 60.8313V67.2608C226.082 70.0599 226.942 72.4253 228.661 74.361C230.38 76.2886 232.614 77.2564 235.361 77.2564C238.587 77.2564 241.098 76.0075 242.893 73.5297C244.693 71.0438 245.593 67.7668 245.593 63.6947V63.6947ZM298.653 63.3814C298.653 69.9354 296.873 75.116 293.31 78.919C290.117 82.3045 286.156 83.9952 281.424 83.9952C276.319 83.9952 272.647 82.176 270.418 78.5295V98.7497H261.853V57.2531C261.853 53.1368 261.745 48.9161 261.536 44.5869H269.068L269.546 50.6951H269.707C272.559 46.0929 276.893 43.7918 282.714 43.7918C287.257 43.7918 291.053 45.5869 294.098 49.1811C297.127 52.7834 298.653 57.5142 298.653 63.3814V63.3814ZM289.924 63.6947C289.924 59.9438 289.076 56.8515 287.381 54.4139C285.529 51.8798 283.051 50.6108 279.934 50.6108C277.821 50.6108 275.901 51.3176 274.177 52.7111C272.458 54.1167 271.337 55.952 270.811 58.225C270.55 59.2852 270.41 60.1486 270.41 60.8313V67.2608C270.41 70.0599 271.273 72.4253 272.984 74.361C274.704 76.2846 276.937 77.2564 279.693 77.2564C282.922 77.2564 285.433 76.0075 287.225 73.5297C289.024 71.0438 289.924 67.7668 289.924 63.6947V63.6947ZM348.223 68.1323C348.223 72.6823 346.632 76.381 343.47 79.2363C339.992 82.3527 335.135 83.9148 328.909 83.9148C323.157 83.9148 318.545 82.8065 315.066 80.5856L317.047 73.4493C320.803 75.6742 324.928 76.7826 329.419 76.7826C332.649 76.7826 335.159 76.0517 336.951 74.6019C338.747 73.1482 339.654 71.2044 339.654 68.7788C339.654 66.6062 338.903 64.787 337.429 63.3051C335.947 61.8273 333.496 60.4498 330.054 59.1848C320.694 55.695 316.01 50.5907 316.01 43.8761C316.01 39.4907 317.665 35.9005 320.967 33.0933C324.269 30.2902 328.648 28.8887 334.095 28.8887C338.959 28.8887 343.013 29.736 346.23 31.4267L344.081 38.4064C341.052 36.7679 337.634 35.9487 333.81 35.9487C330.789 35.9487 328.419 36.6916 326.724 38.1695C325.298 39.4907 324.575 41.1011 324.575 43.0127C324.575 45.121 325.398 46.872 327.037 48.2454C328.459 49.5104 331.054 50.8879 334.806 52.3658C339.409 54.2211 342.792 56.3817 344.957 58.8635C347.138 61.3454 348.223 64.4416 348.223 68.1323ZM376.611 51.0124H367.171V69.7226C367.171 74.4814 368.834 76.8549 372.168 76.8549C373.698 76.8549 374.968 76.7263 375.972 76.4573L376.209 82.9591C374.522 83.5896 372.3 83.9068 369.549 83.9068C366.166 83.9068 363.523 82.8747 361.615 80.8105C359.715 78.7464 358.759 75.2886 358.759 70.4213V50.9963H353.135V44.5708H358.759V37.5149L367.171 34.9768V44.5708H376.611V51.0124V51.0124ZM419.118 63.5381C419.118 69.4615 417.423 74.3248 414.041 78.1279C410.502 82.0434 405.794 83.9952 399.925 83.9952C394.261 83.9952 389.758 82.1197 386.4 78.3729C383.042 74.618 381.363 69.8872 381.363 64.1806C381.363 58.2089 383.098 53.3175 386.557 49.5145C390.023 45.7074 394.691 43.8038 400.56 43.8038C406.216 43.8038 410.759 45.6833 414.198 49.4341C417.483 53.0726 419.118 57.7712 419.118 63.5381ZM410.241 63.7348C410.241 60.2048 409.478 57.1768 407.947 54.6428C406.152 51.5827 403.581 50.0526 400.251 50.0526C396.82 50.0526 394.189 51.5827 392.397 54.6428C390.863 57.1768 390.1 60.257 390.1 63.8955C390.1 67.4295 390.863 70.4655 392.397 72.9915C394.249 76.0517 396.832 77.5817 400.178 77.5817C403.452 77.5817 406.019 76.0195 407.875 72.9152C409.449 70.3209 410.241 67.2729 410.241 63.7348ZM446.968 52.1168C446.077 51.956 445.174 51.8767 444.269 51.8798C441.256 51.8798 438.926 53.0123 437.287 55.2934C435.865 57.3013 435.15 59.8394 435.15 62.9035V83.1237H426.586V56.723C426.594 52.6776 426.511 48.6326 426.337 44.5909H433.796L434.11 51.9642H434.347C435.255 49.4301 436.677 47.386 438.629 45.8559C440.416 44.519 442.587 43.7949 444.819 43.7918C445.61 43.7918 446.325 43.848 446.96 43.9484L446.968 52.1168V52.1168ZM485.27 62.0321C485.292 63.3336 485.187 64.6342 484.957 65.9155H459.264C459.361 69.7226 460.606 72.6381 462.992 74.6461C465.157 76.4372 467.957 77.3368 471.395 77.3368C475.2 77.3368 478.67 76.7344 481.791 75.5176L483.133 81.4571C479.486 83.0474 475.179 83.8385 470.21 83.8385C464.233 83.8385 459.541 82.0796 456.127 78.5697C452.72 75.0557 451.013 70.333 451.013 64.4175C451.013 58.6105 452.6 53.7713 455.777 49.912C459.103 45.7917 463.598 43.7315 469.254 43.7315C474.81 43.7315 479.016 45.7917 481.872 49.912C484.133 53.177 485.27 57.225 485.27 62.0321V62.0321ZM477.104 59.8113C477.164 57.2692 476.601 55.0805 475.441 53.2292C473.958 50.8437 471.677 49.655 468.62 49.655C465.82 49.655 463.538 50.8156 461.803 53.1448C460.377 54.9962 459.529 57.221 459.268 59.8032L477.104 59.8113Z" fill="white"/>
<path d="M109.261 84.3793C109.143 71.2404 120.022 64.8484 120.519 64.5508C114.358 55.5701 104.808 54.343 101.452 54.2452C93.4316 53.4013 85.6514 59.0433 81.5656 59.0433C77.3982 59.0433 71.1064 54.3267 64.3252 54.4653C55.599 54.5998 47.4355 59.6507 42.9583 67.4941C33.7183 83.4865 40.6095 106.988 49.4621 119.915C53.8905 126.25 59.065 133.315 65.838 133.066C72.4642 132.797 74.9394 128.847 82.9357 128.847C90.8586 128.847 93.1828 133.066 100.09 132.907C107.202 132.797 111.679 126.547 115.953 120.159C121.07 112.907 123.125 105.757 123.207 105.39C123.044 105.333 109.4 100.123 109.261 84.3793ZM96.2125 45.7414C99.7764 41.2857 102.215 35.2238 101.538 29.0723C96.3797 29.3006 89.9289 32.6393 86.2141 36.9971C82.9275 40.8373 79.9916 47.1315 80.75 53.0507C86.5444 53.4828 92.4937 50.1278 96.2125 45.7414Z" fill="white"/>
</svg>
