<svg width="800" height="800" viewBox="0 0 800 800" fill="none" xmlns="http://www.w3.org/2000/svg">
<path d="M123.294 292.344L379.656 548.706C390.715 559.765 408.647 559.765 419.706 548.706C430.765 537.647 430.765 519.716 419.706 508.657L163.344 252.295C152.284 241.235 134.353 241.235 123.294 252.295C112.235 263.354 112.235 281.284 123.294 292.344Z" fill="black" stroke="black" stroke-width="25"/>
<path d="M636.657 252.294L380.295 508.656C369.235 519.715 369.235 537.647 380.295 548.706C391.353 559.765 409.283 559.765 420.343 548.706L676.706 292.344C687.765 281.284 687.765 263.353 676.706 252.294C665.646 241.235 647.716 241.235 636.657 252.294Z" fill="black" stroke="black" stroke-width="25"/>
</svg>
