<svg width="800" height="800" viewBox="0 0 800 800" fill="none" xmlns="http://www.w3.org/2000/svg">
<g clip-path="url(#clip0_7996_11)">
<mask id="mask0_7996_11" style="mask-type:luminance" maskUnits="userSpaceOnUse" x="0" y="0" width="800" height="800">
<path d="M800 0H0V800H800V0Z" fill="white"/>
</mask>
<g mask="url(#mask0_7996_11)">
<path d="M641.998 186.933L273.168 555.763C257.257 571.674 257.257 597.472 273.168 613.383C289.078 629.294 314.875 629.294 330.786 613.383L699.617 244.553C715.527 228.641 715.527 202.844 699.617 186.933C683.706 171.022 657.909 171.022 641.998 186.933Z" fill="black"/>
<path d="M100.933 440.524L273.791 613.382C289.702 629.293 315.499 629.293 331.41 613.382C347.321 597.471 347.321 571.674 331.41 555.763L158.552 382.906C142.641 366.995 116.844 366.995 100.933 382.906C85.0222 398.817 85.0222 424.613 100.933 440.524Z" fill="black"/>
</g>
</g>
<defs>
<clipPath id="clip0_7996_11">
<rect width="800" height="800" fill="white"/>
</clipPath>
</defs>
</svg>
