<svg width="800" height="800" viewBox="0 0 800 800" fill="none" xmlns="http://www.w3.org/2000/svg">
<path d="M291.344 676.706L547.706 420.344C558.765 409.285 558.765 391.353 547.706 380.294C536.647 369.235 518.716 369.235 507.657 380.294L251.295 636.656C240.235 647.716 240.235 665.647 251.295 676.706C262.354 687.765 280.284 687.765 291.344 676.706Z" fill="black"/>
<path d="M251.294 163.343L507.656 419.705C518.715 430.765 536.647 430.765 547.706 419.705C558.765 408.647 558.765 390.717 547.706 379.657L291.344 123.294C280.284 112.235 262.353 112.235 251.294 123.294C240.235 134.354 240.235 152.284 251.294 163.343Z" fill="black"/>
</svg>
