<svg width="800" height="800" viewBox="0 0 800 800" fill="none" xmlns="http://www.w3.org/2000/svg">
<path d="M676.706 507.656L420.344 251.294C409.285 240.235 391.353 240.235 380.294 251.294C369.235 262.353 369.235 280.284 380.294 291.343L636.656 547.705C647.716 558.765 665.647 558.765 676.706 547.705C687.765 536.646 687.765 518.716 676.706 507.656Z" fill="black" stroke="black" stroke-width="25"/>
<path d="M163.343 547.706L419.705 291.344C430.765 280.285 430.765 262.353 419.705 251.294C408.647 240.235 390.717 240.235 379.657 251.294L123.294 507.656C112.235 518.716 112.235 536.647 123.294 547.706C134.354 558.765 152.284 558.765 163.343 547.706Z" fill="black" stroke="black" stroke-width="25"/>
</svg>
