<svg width="800" height="800" viewBox="0 0 800 800" fill="none" xmlns="http://www.w3.org/2000/svg">
<path d="M123.294 291.344L379.656 547.706C390.715 558.765 408.647 558.765 419.706 547.706C430.765 536.647 430.765 518.716 419.706 507.657L163.344 251.295C152.284 240.235 134.353 240.235 123.294 251.295C112.235 262.354 112.235 280.284 123.294 291.344Z" fill="black"/>
<path d="M636.657 251.294L380.295 507.656C369.235 518.715 369.235 536.647 380.295 547.706C391.353 558.765 409.283 558.765 420.343 547.706L676.706 291.344C687.765 280.284 687.765 262.353 676.706 251.294C665.646 240.235 647.716 240.235 636.657 251.294Z" fill="black"/>
</svg>
