<svg width="800" height="800" viewBox="0 0 800 800" fill="none" xmlns="http://www.w3.org/2000/svg">
<path d="M569.628 173.727L173.648 569.706C158.027 585.328 158.027 610.654 173.648 626.276C189.269 641.896 214.596 641.896 230.216 626.276L626.196 230.296C641.818 214.674 641.818 189.348 626.196 173.727C610.576 158.106 585.248 158.106 569.628 173.727Z" fill="black"/>
<path d="M173.803 230.294L569.784 626.272C585.404 641.894 610.73 641.894 626.352 626.272C641.972 610.652 641.972 585.326 626.352 569.704L230.372 173.724C214.75 158.104 189.424 158.103 173.803 173.724C158.183 189.345 158.183 214.672 173.803 230.294Z" fill="black"/>
</svg>
