<svg width="800" height="800" viewBox="0 0 800 800" fill="none" xmlns="http://www.w3.org/2000/svg">
<path d="M153.344 676.706L409.706 420.344C420.765 409.285 420.765 391.353 409.706 380.294C398.647 369.235 380.716 369.235 369.657 380.294L113.295 636.656C102.235 647.716 102.235 665.647 113.295 676.706C124.354 687.765 142.284 687.765 153.344 676.706Z" fill="black" stroke="black" stroke-width="25"/>
<path d="M113.294 163.343L369.656 419.705C380.715 430.765 398.647 430.765 409.706 419.705C420.765 408.647 420.765 390.717 409.706 379.657L153.344 123.294C142.284 112.235 124.353 112.235 113.294 123.294C102.235 134.354 102.235 152.284 113.294 163.343Z" fill="black" stroke="black" stroke-width="25"/>
<path d="M430.344 676.706L686.706 420.344C697.765 409.285 697.765 391.353 686.706 380.294C675.647 369.235 657.716 369.235 646.657 380.294L390.295 636.656C379.235 647.716 379.235 665.647 390.295 676.706C401.354 687.765 419.284 687.765 430.344 676.706Z" fill="black" stroke="black" stroke-width="25"/>
<path d="M390.294 163.343L646.656 419.705C657.715 430.765 675.647 430.765 686.706 419.705C697.765 408.647 697.765 390.717 686.706 379.657L430.344 123.294C419.284 112.235 401.353 112.235 390.294 123.294C379.235 134.354 379.235 152.284 390.294 163.343Z" fill="black" stroke="black" stroke-width="25"/>
</svg>
