<svg width="800" height="800" viewBox="0 0 800 800" fill="none" xmlns="http://www.w3.org/2000/svg">
<path d="M507.656 123.294L251.294 379.656C240.235 390.715 240.235 408.647 251.294 419.706C262.353 430.765 280.284 430.765 291.343 419.706L547.705 163.344C558.765 152.284 558.765 134.353 547.705 123.294C536.646 112.235 518.716 112.235 507.656 123.294Z" fill="black" stroke="black" stroke-width="25"/>
<path d="M547.706 636.657L291.344 380.295C280.285 369.235 262.353 369.235 251.294 380.295C240.235 391.353 240.235 409.283 251.294 420.343L507.656 676.706C518.716 687.765 536.647 687.765 547.706 676.706C558.765 665.646 558.765 647.716 547.706 636.657Z" fill="black" stroke="black" stroke-width="25"/>
</svg>
