<svg width="800" height="800" viewBox="0 0 800 800" fill="none" xmlns="http://www.w3.org/2000/svg">
<path d="M646.656 123.294L390.294 379.656C379.235 390.715 379.235 408.647 390.294 419.706C401.353 430.765 419.284 430.765 430.343 419.706L686.705 163.344C697.765 152.284 697.765 134.353 686.705 123.294C675.646 112.235 657.716 112.235 646.656 123.294Z" fill="black" stroke="black" stroke-width="25"/>
<path d="M686.706 636.657L430.344 380.295C419.285 369.235 401.353 369.235 390.294 380.295C379.235 391.353 379.235 409.283 390.294 420.343L646.656 676.706C657.716 687.765 675.647 687.765 686.706 676.706C697.765 665.646 697.765 647.716 686.706 636.657Z" fill="black" stroke="black" stroke-width="25"/>
<path d="M369.656 123.294L113.294 379.656C102.235 390.715 102.235 408.647 113.294 419.706C124.353 430.765 142.284 430.765 153.343 419.706L409.705 163.344C420.765 152.284 420.765 134.353 409.705 123.294C398.646 112.235 380.716 112.235 369.656 123.294Z" fill="black" stroke="black" stroke-width="25"/>
<path d="M409.706 636.657L153.344 380.295C142.285 369.235 124.353 369.235 113.294 380.295C102.235 391.353 102.235 409.283 113.294 420.343L369.656 676.706C380.716 687.765 398.647 687.765 409.706 676.706C420.765 665.646 420.765 647.716 409.706 636.657Z" fill="black" stroke="black" stroke-width="25"/>
</svg>
