<svg width="800" height="800" viewBox="0 0 800 800" fill="none" xmlns="http://www.w3.org/2000/svg">
<path d="M292.344 676.706L548.706 420.344C559.765 409.285 559.765 391.353 548.706 380.294C537.647 369.235 519.716 369.235 508.657 380.294L252.295 636.656C241.235 647.716 241.235 665.647 252.295 676.706C263.354 687.765 281.284 687.765 292.344 676.706Z" fill="black" stroke="black" stroke-width="25"/>
<path d="M252.294 163.343L508.656 419.705C519.715 430.765 537.647 430.765 548.706 419.705C559.765 408.647 559.765 390.717 548.706 379.657L292.344 123.294C281.284 112.235 263.353 112.235 252.294 123.294C241.235 134.354 241.235 152.284 252.294 163.343Z" fill="black" stroke="black" stroke-width="25"/>
</svg>
