<svg width="824" height="824" viewBox="0 0 824 824" fill="none" xmlns="http://www.w3.org/2000/svg">
<path d="M738.19 249.189C737.015 237.814 731.663 227.28 723.169 219.624C714.675 211.967 703.643 207.734 692.208 207.742H131.502C120.061 207.725 109.021 211.955 100.519 219.612C92.0176 227.269 86.6604 237.808 85.485 249.189L33.3164 750.731C32.6468 757.166 33.3364 763.67 35.3404 769.821C37.3444 775.972 40.6182 781.634 44.9497 786.439C49.2813 791.245 54.5739 795.087 60.4849 797.716C66.3958 800.346 72.7932 801.705 79.2627 801.705H744.377C750.847 801.705 757.244 800.346 763.155 797.716C769.066 795.087 774.359 791.245 778.69 786.439C783.022 781.634 786.295 775.972 788.299 769.821C790.303 763.67 790.992 757.166 790.323 750.731L738.19 249.189Z" fill="#FF8D1D"/>
<path d="M784 716H40V789H784V716Z" fill="#FFA750"/>
<path d="M744.377 815.766H79.2634C70.8221 815.767 62.4748 813.995 54.7623 810.563C47.0498 807.132 40.1444 802.119 34.4934 795.848C28.8425 789.577 24.5722 782.189 21.9593 774.163C19.3464 766.136 18.4492 757.65 19.3258 749.254L71.4944 247.782C72.9879 232.921 79.9605 219.148 91.0537 209.146C102.147 199.145 116.566 193.631 131.502 193.68H692.209C707.133 193.649 721.535 199.17 732.613 209.17C743.691 219.17 750.654 232.933 752.146 247.782L765.189 373.352C765.38 375.199 765.206 377.065 764.677 378.844C764.147 380.624 763.272 382.281 762.102 383.723C760.931 385.164 759.489 386.36 757.856 387.244C756.223 388.128 754.432 388.681 752.586 388.873C750.739 389.064 748.873 388.89 747.094 388.361C745.314 387.831 743.657 386.956 742.216 385.786C740.774 384.615 739.578 383.173 738.694 381.54C737.81 379.907 737.257 378.117 737.065 376.27L724.199 250.63C723.397 242.717 719.682 235.385 713.777 230.058C707.872 224.731 700.197 221.789 692.244 221.803H131.502C123.549 221.789 115.875 224.731 109.969 230.058C104.064 235.385 100.35 242.717 99.5473 250.63L47.1326 752.172C46.6648 756.649 47.1427 761.174 48.5355 765.454C49.9282 769.734 52.2047 773.674 55.2173 777.018C58.23 780.362 61.9117 783.036 66.0238 784.866C70.1359 786.696 74.5866 787.642 79.0876 787.642H744.202C748.703 787.642 753.153 786.696 757.266 784.866C761.378 783.036 765.059 780.362 768.072 777.018C771.085 773.674 773.361 769.734 774.754 765.454C776.147 761.174 776.625 756.649 776.157 752.172L757.912 576.718C757.72 574.872 757.894 573.005 758.424 571.226C758.953 569.447 759.828 567.789 760.999 566.348C762.169 564.907 763.612 563.71 765.244 562.826C766.877 561.943 768.668 561.389 770.514 561.198C772.361 561.006 774.227 561.18 776.007 561.71C777.786 562.239 779.444 563.114 780.885 564.285C782.326 565.455 783.523 566.898 784.406 568.53C785.29 570.163 785.843 571.954 786.035 573.8L804.28 749.254C805.156 757.65 804.259 766.136 801.646 774.163C799.033 782.189 794.763 789.577 789.112 795.848C783.461 802.119 776.556 807.132 768.843 810.563C761.131 813.995 752.784 815.767 744.342 815.766H744.377Z" fill="#275563" stroke="#275563" stroke-width="10"/>
<path d="M79.2283 815.766H744.342C752.783 815.767 761.131 813.995 768.843 810.563C776.556 807.132 783.461 802.119 789.112 795.848C794.763 789.577 799.033 782.189 801.646 774.163C804.259 766.136 805.156 757.65 804.28 749.254L752.111 247.782C750.618 232.921 743.645 219.148 732.552 209.146C721.459 199.145 707.039 193.631 692.103 193.68H131.397C116.473 193.649 102.071 199.17 90.9926 209.17C79.9142 219.17 72.9516 232.933 71.4592 247.782L58.4171 373.352C58.2255 375.199 58.3995 377.065 58.9292 378.844C59.4588 380.624 60.3338 382.281 61.504 383.723C62.6743 385.164 64.117 386.36 65.7497 387.244C67.3824 388.128 69.1732 388.681 71.0198 388.873C72.8664 389.064 74.7327 388.89 76.512 388.361C78.2914 387.831 79.9489 386.956 81.3902 385.786C82.8314 384.615 84.028 383.173 84.9116 381.54C85.7953 379.907 86.3487 378.117 86.5403 376.27L99.4066 250.63C100.209 242.717 103.923 235.385 109.829 230.058C115.734 224.731 123.408 221.789 131.362 221.803H692.103C700.056 221.789 707.731 224.731 713.636 230.058C719.541 235.385 723.256 242.717 724.058 250.63L776.473 752.172C776.941 756.649 776.463 761.174 775.07 765.454C773.677 769.734 771.401 773.674 768.388 777.018C765.375 780.362 761.694 783.036 757.582 784.866C753.47 786.696 749.019 787.642 744.518 787.642H79.4041C74.903 787.642 70.4523 786.696 66.3402 784.866C62.2281 783.036 58.5464 780.362 55.5338 777.018C52.5211 773.674 50.2446 769.734 48.8519 765.454C47.4591 761.174 46.9812 756.649 47.449 752.172L65.694 576.718C65.8856 574.872 65.7116 573.005 65.1819 571.226C64.6522 569.447 63.7773 567.789 62.607 566.348C61.4367 564.907 59.9941 563.71 58.3613 562.826C56.7286 561.943 54.9379 561.389 53.0913 561.198C51.2447 561.006 49.3784 561.18 47.5991 561.71C45.8197 562.239 44.1621 563.114 42.7209 564.285C41.2797 565.455 40.0831 566.898 39.1994 568.53C38.3158 570.163 37.7623 571.954 37.5708 573.8L19.3258 749.254C18.4492 757.65 19.3464 766.136 21.9593 774.163C24.5722 782.189 28.8426 789.577 34.4935 795.848C40.1444 802.119 47.0499 807.132 54.7623 810.563C62.4748 813.995 70.8221 815.767 79.2634 815.766H79.2283Z" fill="#275563" stroke="#275563" stroke-width="10"/>
<path d="M612.058 264.266C608.328 264.266 604.752 262.784 602.115 260.147C599.478 257.51 597.996 253.933 597.996 250.204C598.97 225.146 594.876 200.15 585.959 176.712C577.041 153.275 563.484 131.878 546.1 113.805C528.716 95.7323 507.863 81.3546 484.789 71.5336C461.716 61.7126 436.897 56.6504 411.82 56.6504C386.744 56.6504 361.925 61.7126 338.852 71.5336C315.778 81.3546 294.925 95.7323 277.54 113.805C260.156 131.878 246.6 153.275 237.682 176.712C228.765 200.15 224.671 225.146 225.645 250.204C225.645 253.933 224.163 257.51 221.526 260.147C218.889 262.784 215.312 264.266 211.583 264.266C207.854 264.266 204.277 262.784 201.64 260.147C199.003 257.51 197.521 253.933 197.521 250.204C196.478 221.409 201.249 192.698 211.548 165.788C221.848 138.877 237.466 114.319 257.468 93.5784C277.47 72.838 301.448 56.3416 327.968 45.0743C354.487 33.8071 383.006 28 411.82 28C440.635 28 469.153 33.8071 495.673 45.0743C522.193 56.3416 546.17 72.838 566.173 93.5784C586.175 114.319 601.793 138.877 612.092 165.788C622.392 192.698 627.163 221.409 626.119 250.204C626.119 253.933 624.638 257.51 622.001 260.147C619.364 262.784 615.787 264.266 612.058 264.266Z" fill="#275563" stroke="#275563" stroke-width="10"/>
<path d="M411.821 630.066C498.12 630.066 568.08 560.106 568.08 473.807C568.08 387.507 498.12 317.547 411.821 317.547C325.521 317.547 255.561 387.507 255.561 473.807C255.561 560.106 325.521 630.066 411.821 630.066Z" fill="white"/>
<path d="M411.82 641.385C378.137 641.378 345.212 631.384 317.208 612.666C289.204 593.948 267.379 567.347 254.492 536.226C241.606 505.106 238.236 470.863 244.809 437.827C251.382 404.791 267.602 374.446 291.42 350.628C315.238 326.81 345.583 310.59 378.619 304.017C411.655 297.444 445.898 300.814 477.018 313.7C508.139 326.587 534.74 348.412 553.458 376.416C572.176 404.42 582.17 437.345 582.177 471.028C582.13 516.195 564.167 559.499 532.229 591.437C500.291 623.375 456.987 641.338 411.82 641.385ZM411.82 328.83C383.698 328.837 356.209 337.183 332.829 352.812C309.449 368.441 291.229 390.652 280.472 416.636C269.714 442.62 266.903 471.21 272.394 498.791C277.885 526.373 291.431 551.707 311.319 571.59C331.207 591.473 356.544 605.013 384.127 610.497C411.71 615.98 440.299 613.162 466.28 602.399C492.262 591.635 514.468 573.409 530.091 550.026C545.715 526.642 554.053 499.151 554.053 471.028C554.007 433.323 539.006 397.176 512.341 370.518C485.676 343.86 449.525 328.868 411.82 328.83Z" fill="#275563" stroke="#275563" stroke-width="5"/>
<path d="M361 495.425V445.564C361 429.179 365.598 417.179 374.793 409.564C385.52 401.448 398.788 397.378 412.242 398.077C425.713 397.399 439.001 401.415 449.82 409.435C459.23 417.05 463.957 429.05 464 445.435V495.425C464 511.809 459.295 523.809 449.884 531.424C439.083 539.49 425.794 543.553 412.307 542.911C398.846 543.662 385.554 539.638 374.793 531.553C365.598 523.938 361 511.895 361 495.425ZM394.904 495.425C394.904 506.676 400.726 512.28 412.371 512.237C424.016 512.194 429.946 506.569 430.161 495.36V445.5C430.161 434.248 424.209 428.644 412.307 428.687C400.404 428.729 394.581 434.355 394.839 445.564L394.904 495.425Z" fill="#275563"/>
</svg>
