<svg width="800" height="800" viewBox="0 0 800 800" fill="none" xmlns="http://www.w3.org/2000/svg">
<path d="M700 333.333C704.574 333.378 709.134 333.841 713.623 334.717C716.03 335.146 718.502 335.049 720.868 334.431C723.234 333.813 725.437 332.689 727.326 331.137C729.207 329.575 730.72 327.618 731.758 325.405C732.796 323.192 733.334 320.777 733.333 318.333V250C733.307 227.907 724.518 206.726 708.896 191.104C693.274 175.481 672.093 166.693 650 166.667H150C127.907 166.693 106.726 175.481 91.1035 191.104C75.4812 206.726 66.693 227.907 66.6665 250V318.333C66.666 320.78 67.2042 323.197 68.243 325.412C69.2817 327.628 70.7955 329.587 72.6769 331.152C74.5582 332.716 76.7609 333.847 79.1286 334.464C81.4963 335.082 83.9708 335.17 86.3765 334.723C90.8657 333.845 95.4258 333.38 99.9998 333.333C117.681 333.333 134.638 340.357 147.14 352.859C159.643 365.362 166.667 382.319 166.667 400C166.667 417.681 159.643 434.638 147.14 447.14C134.638 459.643 117.681 466.666 99.9998 466.666C95.426 466.622 90.8659 466.159 86.3765 465.283C83.9694 464.854 81.4977 464.951 79.132 465.569C76.7662 466.187 74.5626 467.311 72.6732 468.863C70.7931 470.425 69.2801 472.382 68.242 474.595C67.2038 476.808 66.6659 479.222 66.6665 481.666V550C66.693 572.093 75.4812 593.274 91.1035 608.896C106.726 624.518 127.907 633.307 150 633.333H650C672.093 633.307 693.274 624.518 708.896 608.896C724.518 593.274 733.307 572.093 733.333 550V481.666C733.336 479.222 732.799 476.806 731.762 474.592C730.725 472.378 729.213 470.42 727.333 468.856C725.443 467.306 723.239 466.183 720.874 465.565C718.508 464.947 716.037 464.849 713.63 465.276C709.138 466.155 704.576 466.62 700 466.666C682.319 466.666 665.362 459.643 652.859 447.14C640.357 434.638 633.333 417.681 633.333 400C633.333 382.319 640.357 365.362 652.859 352.859C665.362 340.357 682.319 333.333 700 333.333ZM700 500V550C699.985 563.256 694.712 575.965 685.339 585.339C675.965 594.712 663.256 599.985 650 600H150C136.744 599.985 124.035 594.712 114.661 585.339C105.287 575.965 100.015 563.256 99.9998 550V500C126.521 500 151.957 489.464 170.711 470.711C189.464 451.957 200 426.521 200 400C200 373.478 189.464 348.043 170.711 329.289C151.957 310.536 126.521 300 99.9998 300V250C100.015 236.744 105.287 224.035 114.661 214.661C124.035 205.287 136.744 200.015 150 200H650C663.256 200.015 675.965 205.287 685.339 214.661C694.712 224.035 699.985 236.744 700 250V300C673.478 300 648.043 310.536 629.289 329.289C610.535 348.043 600 373.478 600 400C600 426.521 610.535 451.957 629.289 470.711C648.043 489.464 673.478 500 700 500Z" fill="black" stroke="black" stroke-width="15"/>
<path d="M416.666 300V333.333C416.666 337.753 414.91 341.993 411.785 345.118C408.659 348.244 404.42 350 400 350C395.579 350 391.34 348.244 388.215 345.118C385.089 341.993 383.333 337.753 383.333 333.333V300C383.333 295.579 385.089 291.34 388.215 288.215C391.34 285.089 395.579 283.333 400 283.333C404.42 283.333 408.659 285.089 411.785 288.215C414.91 291.34 416.666 295.579 416.666 300Z" fill="black" stroke="black" stroke-width="15"/>
<path d="M416.666 466.667V500C416.666 504.42 414.91 508.66 411.785 511.785C408.659 514.911 404.42 516.667 400 516.667C395.579 516.667 391.34 514.911 388.215 511.785C385.089 508.66 383.333 504.42 383.333 500V466.667C383.333 462.246 385.089 458.007 388.215 454.882C391.34 451.756 395.579 450 400 450C404.42 450 408.659 451.756 411.785 454.882C414.91 458.007 416.666 462.246 416.666 466.667Z" fill="black" stroke="black" stroke-width="15"/>
</svg>
