<svg width="800" height="800" viewBox="0 0 800 800" fill="none" xmlns="http://www.w3.org/2000/svg">
<path fill-rule="evenodd" clip-rule="evenodd" d="M266.666 133.333C266.666 114.924 280.442 100 297.435 100H502.563C519.556 100 533.333 114.924 533.333 133.333C533.333 151.743 519.556 166.667 502.563 166.667H297.435C280.442 166.667 266.666 151.743 266.666 133.333Z" fill="black"/>
<path fill-rule="evenodd" clip-rule="evenodd" d="M325.925 700H474.073C578.109 700 630.126 700 667.493 675.923C683.666 665.5 697.556 652.107 708.366 636.51C733.333 600.477 733.333 550.317 733.333 449.997C733.333 349.677 733.326 299.523 708.359 263.491C697.553 247.892 683.663 234.499 667.486 224.076C630.119 200 578.103 200 474.069 200H325.92C221.886 200 169.868 200 132.502 224.076C116.326 234.499 102.437 247.892 91.628 263.491C66.666 299.516 66.666 349.653 66.666 449.93V449.997C66.666 550.317 66.666 600.477 91.6334 636.51C102.442 652.107 116.331 665.5 132.507 675.923C169.874 700 221.891 700 325.925 700ZM261.11 449.997C261.11 376.027 323.293 316.065 399.999 316.065C476.706 316.065 538.889 376.027 538.889 449.997C538.889 523.963 476.706 583.927 399.999 583.927C323.293 583.927 261.11 523.963 261.11 449.997ZM316.666 449.997C316.666 405.617 353.976 369.637 399.999 369.637C446.023 369.637 483.333 405.617 483.333 449.997C483.333 494.377 446.023 530.353 399.999 530.353C353.976 530.353 316.666 494.377 316.666 449.997ZM603.703 316.065C588.363 316.065 575.926 328.058 575.926 342.85C575.926 357.647 588.363 369.637 603.703 369.637H622.223C637.563 369.637 649.999 357.647 649.999 342.85C649.999 328.058 637.563 316.065 622.223 316.065H603.703Z" fill="black"/>
</svg>
