<svg width="801" height="800" viewBox="0 0 801 800" fill="none" xmlns="http://www.w3.org/2000/svg">
<path d="M590.742 361.971L571.025 404.858C561.577 425.408 550.127 444.975 536.839 463.277C518.258 488.87 496.236 511.78 471.396 531.358L454.236 544.882" stroke="black" stroke-width="60" stroke-linecap="round"/>
<path d="M418.635 657.77C408.686 661.281 392.302 661.281 382.353 657.77C297.503 628.804 107.906 507.965 107.906 303.152C107.906 212.743 180.76 139.596 270.585 139.596C323.836 139.596 370.942 165.343 400.494 205.136C430.046 165.343 477.445 139.596 530.404 139.596C620.228 139.596 693.083 212.743 693.083 303.152C693.083 507.965 503.485 628.804 418.635 657.77Z" stroke="black" stroke-width="60" stroke-linecap="round" stroke-linejoin="round"/>
</svg>
