<svg width="800" height="800" viewBox="0 0 800 800" fill="none" xmlns="http://www.w3.org/2000/svg">
<path d="M399.664 411.903C495.615 411.903 574.118 333.402 574.118 237.452C574.118 141.503 495.615 63 399.664 63C303.718 63 225.215 141.503 225.215 237.452C225.215 333.402 303.718 411.903 399.664 411.903ZM399.664 94.7185C478.17 94.7185 542.401 158.949 542.401 237.452C542.401 315.957 478.17 380.186 399.664 380.186C321.163 380.186 256.933 315.957 256.933 237.452C256.933 158.949 321.163 94.7185 399.664 94.7185Z" fill="black" stroke="black" stroke-width="25"/>
<path d="M587.513 412.604C578.657 411.048 570.613 417.265 569.002 425.815C567.392 434.364 573.832 442.135 582.684 443.687C652.699 453.792 705.813 513.63 705.813 582.793V690.039C705.813 698.586 698.569 705.582 689.717 705.582H110.286C101.433 705.582 94.1904 698.586 94.1904 690.039V582.018C94.1904 513.63 147.305 453.793 217.32 442.912C226.172 441.357 231.805 433.584 231.001 425.037C229.391 416.487 221.343 411.048 212.491 411.825C126.381 425.037 62 498.085 62 582.018V690.039C62 715.685 83.7287 736.667 110.286 736.667H689.717C716.272 736.667 738 715.685 738 690.039V582.018C738 498.085 673.619 425.037 587.513 412.604Z" fill="black" stroke="black" stroke-width="25"/>
<path d="M207.498 428.316C207.498 428.316 196.963 430.605 208.139 428.177C219.316 425.749 230.969 427.1 241.317 432.025L248.597 436.241C248.597 436.241 264.895 447.528 275.338 454.761C281.972 459.356 292.324 466.528 292.324 466.528C301.197 472.674 310.922 477.446 321.181 480.688C331.44 483.93 343.667 487.792 343.667 487.792L358.886 491.401L382.594 495.217C382.594 495.217 405.588 497.026 416.971 495.145C428.353 493.263 435.513 492.873 447.149 490.155C460.027 487.147 479.498 480.078 479.498 480.078C488.612 477.238 497.317 473.189 505.385 468.036C513.453 462.883 518.367 460.417 526.173 454.761C533.791 449.242 544.853 439.525 544.853 439.525C544.853 439.525 554.68 432.814 560.266 430.813C567.273 428.303 574.725 427.332 582.13 427.962C589.535 428.592 586.294 428.316 586.294 428.316" stroke="black" stroke-width="56" stroke-linecap="round"/>
</svg>
