<svg width="900" height="901" viewBox="0 0 900 901" fill="none" xmlns="http://www.w3.org/2000/svg">
<path d="M450.126 94.3042C436.862 94.3042 423.556 97.6965 415.944 104.4L222.562 275.297L29.0628 446.194C20.188 454.061 27.0044 476.929 37.2458 487.17C42.9925 492.917 54.62 510.009 73.3682 500.507L152.462 428.142V759.157C152.462 787.125 185.535 809.637 226.617 809.637H335.339C348.013 809.637 358.287 799.365 358.287 786.694V630.118C358.287 605.256 372.219 585.316 399.608 585.316H498.558C525.946 585.316 533.395 605.256 533.395 630.118V786.694C533.395 799.365 543.669 809.637 556.344 809.637H671.548C712.632 809.637 745.705 787.125 745.705 759.157V428.142L827.419 500.507C849.118 517.437 891.231 465.099 876.051 451.59L676.53 275.284L484.19 104.072C476.578 97.3625 463.39 93.9756 450.126 93.9756V94.3042Z" fill="black"/>
</svg>
