<svg width="300" height="360" viewBox="0 0 300 360" fill="none" xmlns="http://www.w3.org/2000/svg">
<path fill-rule="evenodd" clip-rule="evenodd" d="M95 5C56.3401 5 25 36.3401 25 75V285C25 323.66 56.3401 355 95 355H205C243.66 355 275 323.66 275 285V75C275 36.3401 243.66 5 205 5H95ZM122.744 226.139C103.087 210.43 80 191.978 80 159.993C80 124.683 118.501 99.6418 150 133.589C181.499 99.6418 220 124.683 220 159.993C220 191.979 196.913 210.43 177.256 226.14C175.213 227.772 173.207 229.376 171.268 230.961C164 236.905 157 242.5 150 242.5C143 242.5 136 236.905 128.732 230.961C126.793 229.376 124.787 227.772 122.744 226.139Z" fill="#D9D9D9"/>
</svg>
