<svg width="901" height="901" viewBox="0 0 901 901" fill="none" xmlns="http://www.w3.org/2000/svg">
<path d="M486.793 102.215C479.841 96.0073 470.875 92.5284 461.553 92.4222C452.231 92.3159 443.188 95.5894 436.097 101.636L34.6738 443.411C32.3675 444.911 30.4089 446.886 28.93 449.206C27.4511 451.525 26.486 454.136 26.0994 456.86C25.7128 459.583 25.914 462.356 26.6891 464.997C27.4642 467.635 28.7955 470.079 30.5934 472.16C32.3914 474.243 34.6142 475.915 37.1128 477.066C39.6113 478.218 42.3274 478.822 45.0787 478.838C47.83 478.851 50.5526 478.278 53.0635 477.154C55.5745 476.03 57.8155 474.38 59.6362 472.318L125.946 415.853V721.301C125.946 744.303 135.085 766.36 151.352 782.624C167.62 798.887 189.682 808.023 212.687 808.023H366.897C372.009 808.023 376.91 805.993 380.527 802.379C384.142 798.766 386.172 793.863 386.172 788.751V607.023C386.172 604.468 387.187 602.017 388.994 600.213C390.803 598.404 393.254 597.388 395.811 597.388H508.19C510.746 597.388 513.197 598.404 515.005 600.213C516.811 602.017 517.828 604.468 517.828 607.023V788.751C517.828 793.863 519.859 798.766 523.472 802.379C527.087 805.993 531.991 808.023 537.104 808.023H691.311C714.317 808.023 736.381 798.887 752.646 782.624C768.913 766.36 778.054 744.303 778.054 721.301V413.829L843.689 472.51C847.524 475.922 852.555 477.672 857.68 477.374C862.804 477.076 867.599 474.755 871.012 470.921C874.424 467.089 876.174 462.055 875.875 456.933C875.577 451.809 873.257 447.015 869.422 443.604L486.793 102.215ZM739.02 721.301C739.02 727.63 737.774 733.895 735.351 739.741C732.929 745.586 729.38 750.897 724.904 755.371C720.43 759.845 715.117 763.394 709.271 765.814C703.423 768.234 697.159 769.48 690.83 769.48H555.897V607.023C555.897 594.247 550.82 581.991 541.782 572.957C532.746 563.923 520.487 558.845 507.708 558.845H395.521C382.739 558.845 370.483 563.923 361.447 572.957C352.407 581.991 347.331 594.247 347.331 607.023V769.48H212.398C206.07 769.48 199.804 768.234 193.957 765.814C188.11 763.394 182.798 759.845 178.323 755.371C173.848 750.897 170.298 745.586 167.877 739.741C165.455 733.895 164.209 727.63 164.209 721.301V383.477L461.253 131.025L739.02 379.334V721.301Z" fill="black" stroke="black" stroke-width="30"/>
</svg>
