<svg width="700" height="700" viewBox="0 0 700 700" fill="none" xmlns="http://www.w3.org/2000/svg">
<path d="M300 348.001C300 403.23 255.228 448.002 200 448.002C144.772 448.002 100 403.23 100 348.001C100 292.772 144.772 248 200 248C255.228 248 300 292.772 300 348.001ZM130.373 348.001C130.373 386.456 161.546 417.629 200 417.629C238.454 417.629 269.627 386.456 269.627 348.001C269.627 309.547 238.454 278.373 200 278.373C161.546 278.373 130.373 309.547 130.373 348.001Z" fill="black" stroke="black" stroke-width="15"/>
<path d="M600 148.005C600 203.234 555.228 248.006 500 248.006C444.772 248.006 400 203.234 400 148.005C400 92.7754 444.772 48.0034 500 48.0034C555.228 48.0034 600 92.7754 600 148.005ZM430.373 148.005C430.373 186.459 461.546 217.633 500 217.633C538.454 217.633 569.627 186.459 569.627 148.005C569.627 109.55 538.454 78.3763 500 78.3763C461.546 78.3763 430.373 109.55 430.373 148.005Z" fill="black" stroke="black" stroke-width="15"/>
<path d="M600 552.001C600 607.23 555.228 652.001 500 652.001C444.772 652.001 400 607.23 400 552.001C400 496.773 444.772 452.001 500 452.001C555.228 452.001 600 496.773 600 552.001ZM430.373 552.001C430.373 590.455 461.546 621.629 500 621.629C538.454 621.629 569.627 590.455 569.627 552.001C569.627 513.547 538.454 482.374 500 482.374C461.546 482.374 430.373 513.547 430.373 552.001Z" fill="black" stroke="black" stroke-width="15"/>
<line y1="-25" x2="178.108" y2="-25" transform="matrix(0.81948 0.573108 -0.574044 0.818824 271.255 413.931)" stroke="black" stroke-width="50"/>
<line y1="-25" x2="178.108" y2="-25" transform="matrix(0.81948 -0.573108 0.574044 0.818824 287.529 320.961)" stroke="black" stroke-width="50"/>
<circle cx="499.5" cy="148.5" r="73.5" fill="black"/>
<circle cx="200.5" cy="348.5" r="73.5" fill="black"/>
<circle cx="499.5" cy="552.5" r="73.5" fill="black"/>
</svg>
