<svg width="800" height="800" viewBox="0 0 800 800" fill="none" xmlns="http://www.w3.org/2000/svg">
<path d="M305.105 180.279C347.326 104.538 368.436 66.6667 399.999 66.6667C431.563 66.6667 452.673 104.537 494.893 180.279L505.816 199.874C517.816 221.398 523.813 232.16 533.169 239.26C542.523 246.361 554.169 248.997 577.469 254.268L598.683 259.068C680.669 277.619 721.666 286.894 731.419 318.258C741.173 349.62 713.226 382.303 657.329 447.663L642.869 464.573C626.986 483.147 619.043 492.433 615.469 503.923C611.899 515.413 613.099 527.803 615.499 552.587L617.686 575.147C626.136 662.353 630.363 705.957 604.829 725.34C579.293 744.723 540.909 727.05 464.143 691.707L444.283 682.56C422.469 672.517 411.563 667.493 399.999 667.493C388.436 667.493 377.529 672.517 355.716 682.56L335.856 691.707C259.089 727.05 220.705 744.723 195.171 725.34C169.637 705.957 173.862 662.353 182.313 575.147L184.499 552.587C186.9 527.803 188.101 515.413 184.528 503.923C180.955 492.433 173.014 483.147 157.13 464.573L142.669 447.663C86.7744 382.303 58.8267 349.62 68.5801 318.258C78.3334 286.894 119.328 277.619 201.317 259.068L222.529 254.268C245.828 248.997 257.477 246.361 266.831 239.26C276.184 232.16 282.184 221.398 294.182 199.874L305.105 180.279Z" fill="black"/>
</svg>
