<svg width="900" height="901" viewBox="0 0 900 901" fill="none" xmlns="http://www.w3.org/2000/svg">
<path fill-rule="evenodd" clip-rule="evenodd" d="M744.713 31.1382H744.304H715.439C710.457 31.1382 706.418 35.1769 706.418 40.1588C706.418 45.1407 710.457 49.1794 715.439 49.1794H744.304C764.661 49.1794 779.386 49.1864 790.968 50.1327C802.443 51.0703 810.035 52.8849 816.27 56.0618C828.151 62.1155 837.812 71.7755 843.865 83.6567C847.042 89.8915 848.857 97.4836 849.795 108.959C850.74 120.54 850.748 135.266 850.748 155.623V184.488C850.748 189.47 854.787 193.509 859.768 193.509C864.749 193.509 868.789 189.47 868.789 184.488V155.623V155.214C868.789 135.352 868.789 119.892 867.775 107.49C866.746 94.8987 864.628 84.6682 859.939 75.4662C852.157 60.1901 839.737 47.7704 824.461 39.9869C815.259 35.2981 805.028 33.1801 792.437 32.1514C780.035 31.1382 764.575 31.1382 744.713 31.1382Z" fill="black" stroke="black" stroke-width="45"/>
<path fill-rule="evenodd" clip-rule="evenodd" d="M868.789 745.062V744.654V715.788C868.789 710.806 864.75 706.767 859.768 706.767C854.786 706.767 850.747 710.806 850.747 715.788V744.654C850.747 765.011 850.74 779.736 849.794 791.317C848.856 802.793 847.042 810.385 843.865 816.619C837.811 828.501 828.151 838.161 816.27 844.214C810.035 847.391 802.443 849.206 790.968 850.144C779.386 851.09 764.661 851.097 744.304 851.097H715.438C710.457 851.097 706.418 855.136 706.418 860.117C706.418 865.099 710.457 869.138 715.438 869.138H744.304H744.713C764.575 869.138 780.035 869.138 792.437 868.124C805.028 867.096 815.259 864.978 824.461 860.289C839.737 852.506 852.156 840.086 859.94 824.81C864.629 815.608 866.747 805.377 867.775 792.786C868.789 780.385 868.789 764.925 868.789 745.062Z" fill="black" stroke="black" stroke-width="45"/>
<path fill-rule="evenodd" clip-rule="evenodd" d="M154.865 869.138H155.274H184.14C189.121 869.138 193.16 865.099 193.16 860.118C193.16 855.136 189.121 851.097 184.14 851.097H155.274C134.917 851.097 120.192 851.09 108.61 850.144C97.1348 849.206 89.5427 847.391 83.3079 844.215C71.4267 838.161 61.7662 828.501 55.7133 816.62C52.5363 810.385 50.7213 802.793 49.7832 791.317C48.8378 779.736 48.8306 765.011 48.8306 744.654L48.8306 715.788C48.8306 710.807 44.7912 706.767 39.81 706.767C34.8288 706.767 30.7894 710.807 30.7894 715.788L30.7894 744.654V745.062C30.7894 764.925 30.7894 780.385 31.8033 792.786C32.8317 805.378 34.9497 815.608 39.6386 824.81C47.4216 840.086 59.8411 852.506 75.1173 860.29C84.3194 864.978 94.5499 867.096 107.141 868.125C119.543 869.138 135.003 869.138 154.865 869.138Z" fill="black" stroke="black" stroke-width="45"/>
<path fill-rule="evenodd" clip-rule="evenodd" d="M30.7891 155.214V155.623L30.7891 184.489C30.7891 189.471 34.8278 193.509 39.8097 193.509C44.7916 193.509 48.8303 189.471 48.8303 184.489V155.623C48.8303 135.266 48.8373 120.541 49.7836 108.96C50.7212 97.4839 52.5357 89.8918 55.7126 83.6569C61.7663 71.7757 71.4263 62.1152 83.3075 56.0623C89.5424 52.8853 97.1345 51.0703 108.61 50.1322C120.191 49.1868 134.916 49.1796 155.273 49.1796L184.139 49.1796C189.12 49.1796 193.16 45.1402 193.16 40.159C193.16 35.1778 189.12 31.1384 184.139 31.1384L155.273 31.1384H154.865C135.002 31.1384 119.542 31.1384 107.141 32.1523C94.5495 33.1807 84.3191 35.2987 75.117 39.9876C59.841 47.7706 47.4212 60.1902 39.6377 75.4664C34.949 84.6685 32.831 94.8989 31.8023 107.49C30.7891 119.892 30.7891 135.352 30.7891 155.214Z" fill="black" stroke="black" stroke-width="45"/>
<path fill-rule="evenodd" clip-rule="evenodd" d="M594.643 128.849H596.837C625.23 128.849 648.126 128.849 666.56 130.604C685.569 132.414 702.13 136.248 717.024 145.388C732.104 154.642 744.781 167.34 754.023 182.441C763.147 197.357 766.976 213.944 768.785 232.982C770.536 251.442 770.536 274.374 770.536 302.809V305.008C770.536 323.692 770.536 339.284 769.335 351.948C768.078 365.188 765.351 377.526 758.425 388.842C751.649 399.917 742.352 409.228 731.294 416.017C719.992 422.95 707.675 425.682 694.455 426.94C681.811 428.146 666.239 428.143 647.584 428.143H612.088C585.237 428.146 562.848 428.146 545.073 425.753C526.311 423.227 509.371 417.67 495.759 404.038C482.148 390.406 476.6 373.441 474.078 354.651C471.687 336.85 471.687 314.426 471.691 287.535V251.988C471.691 233.304 471.687 217.709 472.892 205.045C474.148 191.805 476.876 179.467 483.799 168.15C490.578 157.076 499.875 147.764 510.933 140.978C522.231 134.042 534.552 131.311 547.771 130.052C560.416 128.848 575.988 128.849 594.643 128.849ZM621.112 315.908C605.711 315.908 598.01 315.908 592.571 312.044C590.653 310.681 588.976 309.003 587.614 307.081C583.756 301.635 583.756 293.922 583.756 278.497C583.756 263.071 583.756 255.358 587.614 249.912C588.976 247.99 590.653 246.312 592.571 244.949C598.01 241.084 605.711 241.084 621.112 241.084C636.516 241.084 644.217 241.084 649.656 244.949C651.574 246.312 653.247 247.99 654.61 249.912C658.468 255.358 658.468 263.07 658.468 278.496C658.468 293.922 658.468 301.635 654.61 307.081C653.247 309.003 651.574 310.681 649.656 312.044C644.217 315.908 636.516 315.908 621.112 315.908Z" fill="black" stroke="black" stroke-width="5"/>
<path fill-rule="evenodd" clip-rule="evenodd" d="M388.103 140.978C376.804 134.042 364.484 131.311 351.265 130.052C338.619 128.848 323.049 128.849 304.393 128.849H302.2C273.808 128.849 250.909 128.849 232.477 130.604C213.467 132.414 196.905 136.248 182.012 145.388C166.933 154.642 154.255 167.34 145.014 182.441C135.888 197.357 132.06 213.944 130.252 232.982C128.5 251.442 128.5 274.374 128.5 302.808V305.005C128.5 323.689 128.499 339.283 129.702 351.948C130.959 365.188 133.686 377.526 140.611 388.842C147.387 399.917 156.684 409.228 167.743 416.017C179.042 422.95 191.362 425.682 204.582 426.94C217.226 428.146 232.795 428.143 251.45 428.143H286.948C313.798 428.146 336.189 428.146 353.964 425.753C372.725 423.227 389.665 417.67 403.277 404.038C416.888 390.406 422.436 373.441 424.958 354.651C427.349 336.85 427.349 314.427 427.345 287.536V251.988C427.345 233.305 427.349 217.709 426.144 205.045C424.888 191.805 422.16 179.467 415.237 168.15C408.458 157.076 399.161 147.764 388.103 140.978ZM249.381 312.044C254.819 315.908 262.52 315.908 277.923 315.908C293.326 315.908 301.027 315.908 306.465 312.044C308.384 310.681 310.059 309.003 311.42 307.081C315.279 301.635 315.279 293.922 315.279 278.496C315.279 263.07 315.279 255.358 311.42 249.912C310.059 247.99 308.384 246.312 306.465 244.949C301.027 241.084 293.326 241.084 277.923 241.084C262.52 241.084 254.819 241.084 249.381 244.949C247.462 246.312 245.787 247.99 244.426 249.912C240.567 255.358 240.567 263.07 240.567 278.496C240.567 293.922 240.567 301.635 244.426 307.081C245.787 309.003 247.462 310.681 249.381 312.044Z" fill="black" stroke="black" stroke-width="5"/>
<path fill-rule="evenodd" clip-rule="evenodd" d="M353.964 474.945C372.725 477.471 389.665 483.027 403.277 496.659C416.888 510.292 422.436 527.257 424.958 546.047C427.349 563.849 427.349 586.271 427.345 613.162V648.712C427.345 667.395 427.349 682.99 426.144 695.654C424.888 708.893 422.16 721.229 415.237 732.548C408.458 743.622 399.161 752.933 388.103 759.719C376.804 766.656 364.484 769.387 351.265 770.645C338.619 771.849 323.047 771.849 304.392 771.849H302.2C273.807 771.849 250.91 771.849 232.477 770.095C213.467 768.284 196.905 764.449 182.012 755.311C166.933 746.055 154.255 733.359 145.014 718.256C135.888 703.34 132.06 686.754 130.252 667.717C128.5 649.255 128.5 626.325 128.5 597.889V595.692C128.5 577.008 128.499 561.413 129.702 548.749C130.959 535.51 133.686 523.171 140.611 511.855C147.387 500.781 156.684 491.47 167.743 484.681C179.042 477.747 191.362 475.016 204.582 473.758C217.227 472.551 232.796 472.554 251.452 472.554H286.948C313.799 472.551 336.189 472.551 353.964 474.945ZM277.923 659.612C262.52 659.612 254.819 659.612 249.381 655.748C247.462 654.384 245.787 652.708 244.426 650.787C240.567 645.34 240.567 637.628 240.567 622.2C240.567 606.776 240.567 599.063 244.426 593.616C245.787 591.696 247.462 590.016 249.381 588.652C254.819 584.788 262.52 584.788 277.923 584.788C293.325 584.788 301.027 584.788 306.465 588.652C308.384 590.016 310.059 591.696 311.42 593.616C315.279 599.063 315.279 606.776 315.279 622.2C315.279 637.628 315.279 645.34 311.42 650.787C310.059 652.708 308.384 654.384 306.465 655.748C301.027 659.612 293.326 659.612 277.923 659.612Z" fill="black" stroke="black" stroke-width="5"/>
<path d="M471.697 589.553C471.686 595.076 476.168 599.555 481.69 599.555H506.569C512.092 599.555 516.565 595.074 516.576 589.551C516.608 573.47 516.781 561.901 517.714 552.722C518.795 542.118 520.706 537.219 522.873 533.978C525.601 529.898 529.107 526.397 533.192 523.673C536.437 521.508 541.342 519.599 551.96 518.52C562.953 517.405 577.373 517.377 598.852 517.377H648.69C654.213 517.377 658.69 512.899 658.69 507.377V482.555C658.69 477.032 654.213 472.555 648.69 472.555H597.704C577.669 472.555 560.953 472.551 547.418 473.926C533.253 475.369 520.107 478.498 508.258 486.403C499.275 492.397 491.558 500.104 485.556 509.076C477.641 520.91 474.508 534.039 473.064 548.186C471.921 559.407 471.729 573.607 471.697 589.553Z" fill="black" stroke="black" stroke-width="5"/>
<path d="M770.93 669.856C770.949 664.333 766.464 659.854 760.941 659.854H736.069C730.547 659.854 726.076 664.333 726.06 669.856C726.032 678.801 725.931 685.506 725.555 691.014C725.063 698.202 724.182 701.705 723.224 704.007C719.429 713.158 712.152 720.423 702.987 724.212C700.682 725.169 697.173 726.048 689.973 726.54C682.571 727.044 673.011 727.053 658.765 727.053H608.941C603.418 727.053 598.941 731.53 598.941 737.053V761.854C598.941 767.377 603.418 771.854 608.941 771.854H659.521C672.818 771.854 683.915 771.854 693.028 771.235C702.515 770.589 711.473 769.196 720.159 765.603C740.315 757.265 756.329 741.276 764.68 721.152C768.278 712.48 769.674 703.535 770.32 694.064C770.78 687.321 770.899 679.076 770.93 669.856Z" fill="black" stroke="black" stroke-width="5"/>
<path d="M516.69 748.948C516.69 761.319 506.618 771.349 494.189 771.349C481.762 771.349 471.69 761.319 471.69 748.948V669.349C471.69 663.826 476.168 659.349 481.69 659.349H506.69C512.213 659.349 516.69 663.826 516.69 669.349V748.948Z" fill="black" stroke="black" stroke-width="5"/>
<path d="M748.691 472.555C736.266 472.555 726.191 482.587 726.191 494.964V589.555C726.191 595.078 730.669 599.555 736.191 599.555H761.191C766.714 599.555 771.191 595.078 771.191 589.555V494.964C771.191 482.587 761.117 472.555 748.691 472.555Z" fill="black" stroke="black" stroke-width="5"/>
<path d="M580.178 598.622C577.732 604.537 577.732 612.035 577.732 627.029C577.732 642.023 577.732 649.521 580.178 655.436C583.439 663.321 589.696 669.587 597.569 672.853C603.475 675.302 610.962 675.302 625.933 675.302C640.905 675.302 648.392 675.302 654.298 672.853C662.171 669.587 668.427 663.321 671.689 655.436C674.134 649.521 674.134 642.023 674.134 627.029C674.134 612.035 674.134 604.537 671.689 598.622C668.427 590.737 662.171 584.471 654.298 581.205C648.392 578.756 640.905 578.756 625.933 578.756C610.962 578.756 603.475 578.756 597.569 581.205C589.696 584.471 583.439 590.737 580.178 598.622Z" fill="black" stroke="black" stroke-width="5"/>
</svg>
