<svg width="800" height="800" viewBox="0 0 800 800" fill="none" xmlns="http://www.w3.org/2000/svg">
<path d="M399.589 405.368C497.168 405.368 576.274 326.263 576.274 228.684C576.274 131.104 497.168 52 399.589 52C302.008 52 222.904 131.104 222.904 228.684C222.904 326.263 302.008 405.368 399.589 405.368Z" fill="black"/>
<path d="M566.592 420.648C537.496 416.111 508.265 423.974 481.861 437.018L472.839 441.478C422.514 466.339 363.236 465.135 313.962 438.246C288.642 424.429 260.087 416.123 231.588 420.57C190.256 427.018 151.953 442.514 121.668 465.49C80.902 496.415 58 538.36 58 582.095V710.158C58.0057 723.508 64.2371 734.425 70.0609 738.842C75.8846 743.259 86.2963 747 106.693 747H702.86C717.935 747 725.245 743.714 730.628 738.168C736.013 732.623 741.179 724.135 741.179 710.158V582.095C741.179 538.36 718.277 496.415 677.512 465.49C647.348 442.606 608.247 427.143 566.592 420.648Z" fill="black"/>
</svg>
