<svg width="801" height="800" viewBox="0 0 801 800" fill="none" xmlns="http://www.w3.org/2000/svg">
<path d="M171.061 648.19C177.118 648.19 181.155 646.173 185.193 642.14C193.268 634.073 193.268 621.973 185.193 613.906C66.0863 494.923 66.0863 303.34 185.193 186.373C193.268 178.306 193.268 166.206 185.193 158.14C177.118 150.073 165.005 150.073 156.93 158.14C23.6926 291.24 23.6926 509.04 156.93 642.14C160.968 646.173 167.024 648.19 171.061 648.19Z" fill="black" stroke="black" stroke-width="20"/>
<path d="M615.187 158.14C607.112 166.206 607.112 178.306 615.187 186.373C734.293 305.356 734.293 496.94 615.187 613.906C607.112 621.973 607.112 634.073 615.187 642.14C619.225 646.173 625.281 648.19 629.318 648.19C633.356 648.19 639.412 646.173 643.45 642.14C776.687 509.04 776.687 291.24 643.45 156.123C635.375 150.073 623.262 150.073 615.187 158.14Z" fill="black" stroke="black" stroke-width="20"/>
<path d="M271.998 242.84C263.923 234.773 251.811 234.773 243.736 242.84C156.929 329.556 156.929 470.723 243.736 557.44C247.773 561.473 253.829 563.49 257.867 563.49C261.904 563.49 267.961 561.473 271.998 557.44C280.073 549.373 280.073 537.273 271.998 529.206C201.342 458.623 201.342 343.673 271.998 273.09C280.073 265.023 280.073 250.906 271.998 242.84Z" fill="black" stroke="black" stroke-width="20"/>
<path d="M556.643 242.84C548.568 234.773 536.455 234.773 528.38 242.84C520.305 250.906 520.305 263.006 528.38 271.073C599.037 341.656 599.037 456.606 528.38 527.19C520.305 535.256 520.305 547.356 528.38 555.423C532.418 559.456 538.474 561.473 542.512 561.473C546.549 561.473 552.605 559.456 556.643 555.423C643.449 470.723 643.449 329.556 556.643 242.84Z" fill="black" stroke="black" stroke-width="20"/>
<path d="M489.203 399.131C489.203 349.334 450.037 310.208 400.189 310.208C350.34 310.208 311.174 349.334 311.174 399.131C311.174 448.928 350.34 488.054 400.189 488.054C450.037 488.054 489.203 448.928 489.203 399.131Z" fill="black" stroke="black" stroke-width="20"/>
</svg>
