<svg width="360" height="360" viewBox="0 0 360 360" fill="none" xmlns="http://www.w3.org/2000/svg">
<path d="M285.5 50.0015H74.5C57.0123 50.0015 40.2408 56.9484 27.8751 69.3141C15.5095 81.6798 8.5625 98.4512 8.5625 115.939V221.439C8.5625 230.098 10.268 238.673 13.5817 246.672C16.8954 254.672 21.7523 261.941 27.8751 268.064C40.2408 280.43 57.0123 287.377 74.5 287.377H87.6875V326.939C87.6939 329.325 88.3473 331.664 89.5781 333.708C90.8089 335.752 92.5711 337.423 94.6769 338.544C96.739 339.603 99.0439 340.1 101.359 339.984C103.674 339.868 105.918 339.144 107.864 337.885L183.956 287.377H285.5C294.159 287.377 302.733 285.671 310.733 282.358C318.733 279.044 326.002 274.187 332.125 268.064C338.247 261.941 343.104 254.672 346.418 246.672C349.732 238.673 351.437 230.098 351.437 221.439V115.939C351.437 98.4512 344.49 81.6798 332.125 69.3141C319.759 56.9484 302.987 50.0015 285.5 50.0015ZM180 208.252H100.875C97.3775 208.252 94.0232 206.862 91.55 204.389C89.0769 201.916 87.6875 198.562 87.6875 195.064C87.6875 191.567 89.0769 188.212 91.55 185.739C94.0232 183.266 97.3775 181.877 100.875 181.877H180C183.497 181.877 186.852 183.266 189.325 185.739C191.798 188.212 193.187 191.567 193.187 195.064C193.187 198.562 191.798 201.916 189.325 204.389C186.852 206.862 183.497 208.252 180 208.252ZM259.125 155.502H100.875C97.3775 155.502 94.0232 154.112 91.55 151.639C89.0769 149.166 87.6875 145.812 87.6875 142.314C87.6875 138.816 89.0769 135.462 91.55 132.989C94.0232 130.516 97.3775 129.127 100.875 129.127H259.125C262.622 129.127 265.977 130.516 268.45 132.989C270.923 135.462 272.312 138.816 272.312 142.314C272.312 145.812 270.923 149.166 268.45 151.639C265.977 154.112 262.622 155.502 259.125 155.502Z" fill="#1A1A1A"/>
</svg>
