<svg width="800" height="800" viewBox="0 0 800 800" fill="none" xmlns="http://www.w3.org/2000/svg">
<path fill-rule="evenodd" clip-rule="evenodd" d="M377.278 121.051C364.641 137.552 350.379 163.011 329.663 200.176L319.147 219.042C318.513 220.179 317.887 221.306 317.268 222.422C307.617 239.79 299.471 254.45 286.345 264.415C273.078 274.487 256.905 278.122 238.109 282.346C236.901 282.617 235.682 282.892 234.452 283.17L214.031 287.791C173.746 296.906 146.34 303.178 127.569 310.576C109.251 317.795 105.384 323.71 103.911 328.45C102.355 333.452 102.309 341.103 113.26 358.501C124.375 376.158 143.125 398.181 170.549 430.252L184.47 446.533C185.279 447.48 186.081 448.413 186.875 449.341C199.809 464.428 210.592 477.005 215.539 492.914C220.456 508.727 218.826 525.341 216.85 545.486C216.729 546.722 216.607 547.97 216.484 549.235L214.379 570.956C210.236 613.71 207.443 643.15 208.388 664.354C209.33 685.523 213.801 691.373 217.355 694.069C220.517 696.47 226.36 699.127 245.398 693.671C264.745 688.129 290.458 676.363 328.179 658.994L347.299 650.191C348.476 649.649 349.644 649.109 350.8 648.573C368.283 640.492 383.45 633.477 399.999 633.477C416.549 633.477 431.715 640.492 449.199 648.573C450.357 649.109 451.522 649.649 452.7 650.191L471.82 658.994C509.54 676.363 535.255 688.129 554.603 693.671C573.64 699.127 579.484 696.47 582.645 694.069C586.197 691.373 590.668 685.523 591.611 664.354C592.555 643.15 589.763 613.71 585.62 570.956L583.515 549.235C583.393 547.97 583.271 546.722 583.149 545.486C581.175 525.341 579.545 508.727 584.461 492.914C589.407 477.005 600.192 464.428 613.125 449.338C613.918 448.413 614.72 447.48 615.529 446.533L629.45 430.252C656.873 398.181 675.624 376.158 686.74 358.501C697.69 341.103 697.645 333.452 696.088 328.45C694.615 323.71 690.748 317.795 672.431 310.576C653.66 303.178 626.254 296.906 585.97 287.791L565.547 283.17C564.317 282.892 563.098 282.617 561.891 282.346C543.095 278.122 526.921 274.487 513.655 264.415C500.529 254.45 492.384 239.79 482.731 222.422C482.112 221.306 481.486 220.179 480.854 219.042L470.337 200.176C449.619 163.011 435.358 137.552 422.723 121.051C410.099 104.566 403.651 103.14 399.999 103.14C396.35 103.14 389.9 104.566 377.278 121.051ZM339.061 91.7822C354.356 71.8051 373.264 55 399.999 55C426.735 55 445.643 71.8051 460.941 91.7822C475.973 111.411 491.909 140.008 511.389 174.957L522.897 195.603C535.496 218.202 538.718 223.003 542.762 226.072C546.651 229.025 551.67 230.673 576.169 236.217L598.636 241.299C636.363 249.835 667.443 256.867 690.081 265.788C713.578 275.049 734.139 288.698 742.056 314.155C749.89 339.351 741.084 362.528 727.477 384.146C714.255 405.152 693.136 429.844 667.341 460.012L652.113 477.821C635.522 497.221 632.056 501.971 630.426 507.208C628.767 512.552 628.921 518.724 631.427 544.591L633.725 568.279C637.63 608.591 640.817 641.462 639.7 666.498C638.568 691.98 632.778 716.448 611.752 732.414C590.328 748.676 565.405 746.843 541.343 739.95C518.013 733.265 488.928 719.869 453.608 703.607L432.569 693.918C409.547 683.318 404.617 681.617 399.999 681.617C395.381 681.617 390.452 683.318 367.433 693.918L346.39 703.607C311.073 719.869 281.988 733.265 258.657 739.95C234.595 746.843 209.671 748.676 188.249 732.414C167.22 716.448 161.433 691.98 160.298 666.498C159.183 641.462 162.369 608.588 166.276 568.279L168.571 544.591C171.078 518.724 171.234 512.552 169.573 507.208C167.944 501.971 164.478 497.221 147.886 477.821L132.659 460.012C106.863 429.847 85.7442 405.152 72.5225 384.146C58.9144 362.528 50.1101 339.351 57.9446 314.155C65.8606 288.698 86.4226 275.049 109.92 265.788C132.556 256.867 163.637 249.835 201.365 241.299L203.408 240.837L223.829 236.217C248.329 230.673 253.348 229.025 257.24 226.072C261.281 223.003 264.504 218.202 277.101 195.603L288.609 174.957C308.09 140.008 324.028 111.411 339.061 91.7822Z" fill="black"/>
<path fill-rule="evenodd" clip-rule="evenodd" d="M377.278 121.051C364.641 137.552 350.379 163.011 329.663 200.176L319.147 219.042C318.513 220.179 317.887 221.306 317.268 222.422C307.617 239.79 299.471 254.45 286.345 264.415C273.078 274.487 256.905 278.122 238.109 282.346C236.901 282.617 235.682 282.892 234.452 283.17L214.031 287.791C173.746 296.906 146.34 303.178 127.569 310.576C109.251 317.795 105.384 323.71 103.911 328.45C102.355 333.452 102.309 341.103 113.26 358.501C124.375 376.158 143.125 398.181 170.549 430.252L184.47 446.533C185.279 447.48 186.081 448.413 186.875 449.341C199.809 464.428 210.592 477.005 215.539 492.914C220.456 508.727 218.826 525.341 216.85 545.486C216.729 546.722 216.607 547.97 216.484 549.235L214.379 570.956C210.236 613.71 207.443 643.15 208.388 664.354C209.33 685.523 213.801 691.373 217.355 694.069C220.517 696.47 226.36 699.127 245.398 693.671C264.745 688.129 290.458 676.363 328.179 658.994L347.299 650.191C348.476 649.649 349.644 649.109 350.8 648.573C368.283 640.492 383.45 633.477 399.999 633.477C416.549 633.477 431.715 640.492 449.199 648.573C450.357 649.109 451.522 649.649 452.7 650.191L471.82 658.994C509.54 676.363 535.255 688.129 554.603 693.671C573.64 699.127 579.484 696.47 582.645 694.069C586.197 691.373 590.668 685.523 591.611 664.354C592.555 643.15 589.763 613.71 585.62 570.956L583.515 549.235C583.393 547.97 583.271 546.722 583.149 545.486C581.175 525.341 579.545 508.727 584.461 492.914C589.407 477.005 600.192 464.428 613.125 449.338C613.918 448.413 614.72 447.48 615.529 446.533L629.45 430.252C656.873 398.181 675.624 376.158 686.74 358.501C697.69 341.103 697.645 333.452 696.088 328.45C694.615 323.71 690.748 317.795 672.431 310.576C653.66 303.178 626.254 296.906 585.97 287.791L565.547 283.17C564.317 282.892 563.098 282.617 561.891 282.346C543.095 278.122 526.921 274.487 513.655 264.415C500.529 254.45 492.384 239.79 482.731 222.422C482.112 221.306 481.486 220.179 480.854 219.042L470.337 200.176C449.619 163.011 435.358 137.552 422.723 121.051C410.099 104.566 403.651 103.14 399.999 103.14C396.35 103.14 389.9 104.566 377.278 121.051ZM339.061 91.7822C354.356 71.8051 373.264 55 399.999 55C426.735 55 445.643 71.8051 460.941 91.7822C475.973 111.411 491.909 140.008 511.389 174.957L522.897 195.603C535.496 218.202 538.718 223.003 542.762 226.072C546.651 229.025 551.67 230.673 576.169 236.217L598.636 241.299C636.363 249.835 667.443 256.867 690.081 265.788C713.578 275.049 734.139 288.698 742.056 314.155C749.89 339.351 741.084 362.528 727.477 384.146C714.255 405.152 693.136 429.844 667.341 460.012L652.113 477.821C635.522 497.221 632.056 501.971 630.426 507.208C628.767 512.552 628.921 518.724 631.427 544.591L633.725 568.279C637.63 608.591 640.817 641.462 639.7 666.498C638.568 691.98 632.778 716.448 611.752 732.414C590.328 748.676 565.405 746.843 541.343 739.95C518.013 733.265 488.928 719.869 453.608 703.607L432.569 693.918C409.547 683.318 404.617 681.617 399.999 681.617C395.381 681.617 390.452 683.318 367.433 693.918L346.39 703.607C311.073 719.869 281.988 733.265 258.657 739.95C234.595 746.843 209.671 748.676 188.249 732.414C167.22 716.448 161.433 691.98 160.298 666.498C159.183 641.462 162.369 608.588 166.276 568.279L168.571 544.591C171.078 518.724 171.234 512.552 169.573 507.208C167.944 501.971 164.478 497.221 147.886 477.821L132.659 460.012C106.863 429.847 85.7442 405.152 72.5225 384.146C58.9144 362.528 50.1101 339.351 57.9446 314.155C65.8606 288.698 86.4226 275.049 109.92 265.788C132.556 256.867 163.637 249.835 201.365 241.299L203.408 240.837L223.829 236.217C248.329 230.673 253.348 229.025 257.24 226.072C261.281 223.003 264.504 218.202 277.101 195.603L288.609 174.957C308.09 140.008 324.028 111.411 339.061 91.7822Z" stroke="black" stroke-width="20"/>
<path fill-rule="evenodd" clip-rule="evenodd" d="M377.278 121.051C364.641 137.552 350.379 163.011 329.663 200.176L319.147 219.042C318.513 220.179 317.887 221.306 317.268 222.422C307.617 239.79 299.471 254.45 286.345 264.415C273.078 274.487 256.905 278.122 238.109 282.346C236.901 282.617 235.682 282.892 234.452 283.17L214.031 287.791C173.746 296.906 146.34 303.178 127.569 310.576C109.251 317.795 105.384 323.71 103.911 328.45C102.355 333.452 102.309 341.103 113.26 358.501C124.375 376.158 143.125 398.181 170.549 430.252L184.47 446.533C185.279 447.48 186.081 448.413 186.875 449.341C199.809 464.428 210.592 477.005 215.539 492.914C220.456 508.727 218.826 525.341 216.85 545.486C216.729 546.722 216.607 547.97 216.484 549.235L214.379 570.956C210.236 613.71 207.443 643.15 208.388 664.354C209.33 685.523 213.801 691.373 217.355 694.069C220.517 696.47 226.36 699.127 245.398 693.671C264.745 688.129 290.458 676.363 328.179 658.994L347.299 650.191C348.476 649.649 349.644 649.109 350.8 648.573C368.283 640.492 383.45 633.477 399.999 633.477C416.549 633.477 431.715 640.492 449.199 648.573C450.357 649.109 451.522 649.649 452.7 650.191L471.82 658.994C509.54 676.363 535.255 688.129 554.603 693.671C573.64 699.127 579.484 696.47 582.645 694.069C586.197 691.373 590.668 685.523 591.611 664.354C592.555 643.15 589.763 613.71 585.62 570.956L583.515 549.235C583.393 547.97 583.271 546.722 583.149 545.486C581.175 525.341 579.545 508.727 584.461 492.914C589.407 477.005 600.192 464.428 613.125 449.338C613.918 448.413 614.72 447.48 615.529 446.533L629.45 430.252C656.873 398.181 675.624 376.158 686.74 358.501C697.69 341.103 697.645 333.452 696.088 328.45C694.615 323.71 690.748 317.795 672.431 310.576C653.66 303.178 626.254 296.906 585.97 287.791L565.547 283.17C564.317 282.892 563.098 282.617 561.891 282.346C543.095 278.122 526.921 274.487 513.655 264.415C500.529 254.45 492.384 239.79 482.731 222.422C482.112 221.306 481.486 220.179 480.854 219.042L470.337 200.176C449.619 163.011 435.358 137.552 422.723 121.051C410.099 104.566 403.651 103.14 399.999 103.14C396.35 103.14 389.9 104.566 377.278 121.051ZM339.061 91.7822C354.356 71.8051 373.264 55 399.999 55C426.735 55 445.643 71.8051 460.941 91.7822C475.973 111.411 491.909 140.008 511.389 174.957L522.897 195.603C535.496 218.202 538.718 223.003 542.762 226.072C546.651 229.025 551.67 230.673 576.169 236.217L598.636 241.299C636.363 249.835 667.443 256.867 690.081 265.788C713.578 275.049 734.139 288.698 742.056 314.155C749.89 339.351 741.084 362.528 727.477 384.146C714.255 405.152 693.136 429.844 667.341 460.012L652.113 477.821C635.522 497.221 632.056 501.971 630.426 507.208C628.767 512.552 628.921 518.724 631.427 544.591L633.725 568.279C637.63 608.591 640.817 641.462 639.7 666.498C638.568 691.98 632.778 716.448 611.752 732.414C590.328 748.676 565.405 746.843 541.343 739.95C518.013 733.265 488.928 719.869 453.608 703.607L432.569 693.918C409.547 683.318 404.617 681.617 399.999 681.617C395.381 681.617 390.452 683.318 367.433 693.918L346.39 703.607C311.073 719.869 281.988 733.265 258.657 739.95C234.595 746.843 209.671 748.676 188.249 732.414C167.22 716.448 161.433 691.98 160.298 666.498C159.183 641.462 162.369 608.588 166.276 568.279L168.571 544.591C171.078 518.724 171.234 512.552 169.573 507.208C167.944 501.971 164.478 497.221 147.886 477.821L132.659 460.012C106.863 429.847 85.7442 405.152 72.5225 384.146C58.9144 362.528 50.1101 339.351 57.9446 314.155C65.8606 288.698 86.4226 275.049 109.92 265.788C132.556 256.867 163.637 249.835 201.365 241.299L203.408 240.837L223.829 236.217C248.329 230.673 253.348 229.025 257.24 226.072C261.281 223.003 264.504 218.202 277.101 195.603L288.609 174.957C308.09 140.008 324.028 111.411 339.061 91.7822Z" stroke="black" stroke-width="20"/>
</svg>
