<svg width="800" height="800" viewBox="0 0 800 800" fill="none" xmlns="http://www.w3.org/2000/svg">
<path d="M170.872 648.19C176.928 648.19 180.966 646.173 185.003 642.14C193.078 634.073 193.078 621.973 185.003 613.906C65.8969 494.923 65.8969 303.34 185.003 186.373C193.078 178.306 193.078 166.206 185.003 158.14C176.928 150.073 164.816 150.073 156.741 158.14C23.5031 291.24 23.5031 509.04 156.741 642.14C160.778 646.173 166.834 648.19 170.872 648.19Z" fill="black" stroke="black" stroke-width="20"/>
<path d="M614.998 158.14C606.923 166.206 606.923 178.306 614.998 186.373C734.104 305.356 734.104 496.94 614.998 613.906C606.923 621.973 606.923 634.073 614.998 642.14C619.035 646.173 625.091 648.19 629.129 648.19C633.166 648.19 639.223 646.173 643.26 642.14C776.498 509.04 776.498 291.24 643.26 156.123C635.185 150.073 623.073 150.073 614.998 158.14Z" fill="black" stroke="black" stroke-width="20"/>
<path d="M271.809 242.84C263.734 234.773 251.621 234.773 243.546 242.84C156.74 329.556 156.74 470.723 243.546 557.44C247.584 561.473 253.64 563.49 257.677 563.49C261.715 563.49 267.771 561.473 271.809 557.44C279.884 549.373 279.884 537.273 271.809 529.206C201.152 458.623 201.152 343.673 271.809 273.09C279.884 265.023 279.884 250.906 271.809 242.84Z" fill="black" stroke="black" stroke-width="20"/>
<path d="M556.454 242.84C548.379 234.773 536.266 234.773 528.191 242.84C520.116 250.906 520.116 263.006 528.191 271.073C598.847 341.656 598.847 456.606 528.191 527.19C520.116 535.256 520.116 547.356 528.191 555.423C532.229 559.456 538.285 561.473 542.322 561.473C546.36 561.473 552.416 559.456 556.454 555.423C643.26 470.723 643.26 329.556 556.454 242.84Z" fill="black" stroke="black" stroke-width="20"/>
<path d="M501.947 400.14C501.947 343.673 457.535 299.306 401.01 299.306C344.485 299.306 300.072 343.673 300.072 400.14C300.072 456.606 344.485 500.973 401.01 500.973C457.535 500.973 501.947 456.606 501.947 400.14ZM340.447 400.14C340.447 365.856 366.691 339.64 401.01 339.64C435.329 339.64 461.572 365.856 461.572 400.14C461.572 434.423 435.329 460.64 401.01 460.64C366.691 460.64 340.447 434.423 340.447 400.14Z" fill="black" stroke="black" stroke-width="20"/>
</svg>
