<svg width="360" height="360" viewBox="0 0 360 360" fill="none" xmlns="http://www.w3.org/2000/svg">
<path d="M90.0002 128.728C90.0002 79.0224 130.295 38.728 180 38.728C229.706 38.728 270 79.0224 270 128.728V156.192C270 177.483 275.786 198.372 286.74 216.627L295.041 230.463C300.546 239.64 303.3 244.228 303.488 247.974C303.78 253.777 300.695 259.227 295.568 261.963C292.259 263.728 286.908 263.728 276.207 263.728H83.7947C73.0931 263.728 67.7423 263.728 64.4325 261.963C59.3063 259.227 56.2207 253.777 56.5127 247.974C56.7011 244.228 59.454 239.64 64.9599 230.463L73.2613 216.627C84.2144 198.372 90.0002 177.483 90.0002 156.193V128.728Z" fill="black"/>
<path d="M221.625 278.729C223.092 278.729 224.295 280.16 224.158 281.915C223.368 292.032 218.832 301.587 211.313 308.811C203.007 316.79 191.744 321.272 180 321.272C168.256 321.272 156.992 316.79 148.687 308.811C141.168 301.587 136.632 292.032 135.842 281.915C135.705 280.16 136.907 278.729 138.374 278.729H180H221.625Z" fill="black"/>
</svg>
