<svg width="900" height="901" viewBox="0 0 900 901" fill="none" xmlns="http://www.w3.org/2000/svg">
<path d="M712.629 795.475V697.601M186.617 795.475V697.601" stroke="black" stroke-width="70" stroke-linecap="round"/>
<path d="M74.2773 368.36C74.2773 244.196 74.2773 182.114 118.252 143.541C162.227 104.968 233.003 104.968 374.555 104.968H524.694C666.245 104.968 737.024 104.968 780.996 143.541C824.971 182.114 824.971 244.196 824.971 368.36V434.208C824.971 558.372 824.971 620.456 780.996 659.027C737.024 697.601 666.245 697.601 524.694 697.601H374.555C233.003 697.601 162.227 697.601 118.252 659.027C74.2773 620.456 74.2773 558.372 74.2773 434.208V368.36Z" stroke="black" stroke-width="70"/>
<path d="M336.908 549.001H562.342" stroke="black" stroke-width="70" stroke-linecap="round"/>
<path d="M336.908 248.382H562.342" stroke="black" stroke-width="70" stroke-linecap="round"/>
<path d="M74.2773 393.452H825.723" stroke="black" stroke-width="70" stroke-linecap="round"/>
</svg>
