<svg width="900" height="901" viewBox="0 0 900 901" fill="none" xmlns="http://www.w3.org/2000/svg">
<path fill-rule="evenodd" clip-rule="evenodd" d="M47.6562 369.334C47.6562 236.358 47.6563 169.87 94.7938 128.559C141.932 87.2483 217.798 87.2483 369.532 87.2483H530.47C682.202 87.2483 758.072 87.2483 805.207 128.559C852.346 169.87 852.346 236.358 852.346 369.334V378.149H47.6562V369.334ZM299.122 245.922C299.122 231.316 312.632 219.476 329.298 219.476H570.704C587.37 219.476 600.88 231.316 600.88 245.922C600.88 260.527 587.37 272.367 570.704 272.367H329.298C312.632 272.367 299.122 260.527 299.122 245.922Z" fill="black"/>
<path fill-rule="evenodd" clip-rule="evenodd" d="M47.6562 434.246H852.346V443.061C852.346 576.036 852.346 642.528 805.207 683.835C792.96 694.569 778.773 702.517 761.818 708.395V789.166C761.818 815.507 740.096 823.721 723.431 823.721C706.765 823.721 683.482 815.507 683.482 789.166V757.6V725.147C683.482 725.147 603.149 725.147 530.47 725.147H369.532C296.854 725.147 216.385 725.147 216.385 725.147V759.455V789.166C216.385 815.507 193.923 823.721 177.257 823.721C160.592 823.721 138.184 812.563 138.184 789.166V708.395C121.229 702.517 107.042 694.569 94.7938 683.835C47.6563 642.528 47.6562 576.036 47.6562 443.061V434.246ZM299.122 566.474C299.122 551.869 312.632 540.028 329.298 540.028H570.704C587.37 540.028 600.88 551.869 600.88 566.474C600.88 581.079 587.37 592.919 570.704 592.919H329.298C312.632 592.919 299.122 581.079 299.122 566.474Z" fill="black"/>
</svg>
