<svg width="800" height="800" viewBox="0 0 800 800" fill="none" xmlns="http://www.w3.org/2000/svg">
<g clip-path="url(#clip0_6224_12)">
<path d="M609.692 140.742C604.066 135.116 596.436 131.955 588.479 131.955H497.155C488.463 131.955 481.416 139.002 481.416 147.694V147.694C481.416 169.443 472.963 189.901 457.577 205.271C442.191 220.657 421.75 229.126 400 229.126C378.236 229.126 357.778 220.657 342.407 205.255C327.051 189.885 318.598 169.442 318.629 147.708V147.708C318.638 139.01 311.588 131.953 302.89 131.953H211.506C203.549 131.953 195.918 135.114 190.292 140.741L35.3525 295.692C15.8276 315.219 15.8283 346.876 35.3539 366.402L87.8279 418.876C107.352 438.4 139.007 438.402 158.534 418.88L189.841 387.581V618.047C189.841 645.661 212.226 668.047 239.841 668.047H560.145C587.759 668.047 610.145 645.661 610.145 618.047V387.58L641.453 418.88C660.979 438.402 692.633 438.401 712.158 418.878L764.64 366.402C784.169 346.876 784.169 315.216 764.642 295.689L609.692 140.742ZM595.736 328.657C589.436 322.358 578.665 326.82 578.665 335.729V604.984C578.665 621.552 565.234 634.984 548.665 634.984H251.319C234.75 634.984 221.319 621.552 221.319 604.984V335.729C221.319 326.82 210.548 322.358 204.248 328.657L144.392 388.504C132.676 400.218 113.682 400.218 101.967 388.503L65.7247 352.26C54.0093 340.545 54.0089 321.55 65.7237 309.835L203.324 172.221C208.95 166.594 216.581 163.433 224.538 163.433H279.496C284.49 163.433 288.671 167.132 289.733 172.012C294.275 192.877 304.678 212.042 320.135 227.513C341.454 248.847 369.812 260.606 400 260.606C430.156 260.606 458.516 248.863 479.833 227.543C495.306 212.057 505.735 192.887 510.293 172.006C511.358 167.129 515.537 163.433 520.53 163.433H575.446C583.403 163.433 591.034 166.594 596.66 172.22L734.271 309.833C745.987 321.549 745.986 340.546 734.269 352.261L698.017 388.507C686.301 400.22 667.309 400.22 655.594 388.506L595.736 328.657Z" fill="black"/>
</g>
<defs>
<clipPath id="clip0_6224_12">
<rect width="800" height="800" fill="white"/>
</clipPath>
</defs>
</svg>
