<svg width="900" height="900" viewBox="0 0 900 900" fill="none" xmlns="http://www.w3.org/2000/svg">
<path d="M244.68 249.624C240.831 255.05 240.831 262.733 240.831 278.1C240.831 293.467 240.831 301.15 244.68 306.575C246.039 308.49 247.71 310.161 249.624 311.519C255.05 315.369 262.733 315.369 278.1 315.369C293.467 315.369 301.15 315.369 306.575 311.519C308.49 310.161 310.161 308.49 311.519 306.575C315.369 301.15 315.369 293.467 315.369 278.1C315.369 262.733 315.369 255.05 311.519 249.624C310.161 247.71 308.49 246.039 306.575 244.68C301.15 240.831 293.467 240.831 278.1 240.831C262.733 240.831 255.05 240.831 249.624 244.68C247.71 246.039 246.039 247.71 244.68 249.624Z" fill="black" stroke="black" stroke-width="5"/>
<path fill-rule="evenodd" clip-rule="evenodd" d="M351.491 129.778C364.719 131.035 377.048 133.765 388.355 140.694C399.421 147.475 408.724 156.779 415.507 167.844C422.436 179.152 425.163 191.48 426.422 204.709C427.624 217.363 427.624 232.942 427.624 251.61V287.131C427.624 313.999 427.627 336.406 425.235 354.192C422.711 372.966 417.157 389.916 403.536 403.536C389.916 417.157 372.966 422.711 354.192 425.235C336.406 427.627 314 427.624 287.132 427.624H251.613C232.944 427.624 217.363 427.624 204.709 426.422C191.48 425.163 179.152 422.436 167.844 415.507C156.779 408.724 147.475 399.421 140.694 388.355C133.765 377.048 131.035 364.719 129.778 351.491C128.574 338.836 128.575 323.256 128.575 304.587V302.393C128.575 273.981 128.575 251.067 130.329 232.622C132.137 213.6 135.968 197.027 145.101 182.124C154.348 167.034 167.034 154.348 182.124 145.101C197.027 135.968 213.6 132.137 232.622 130.329C251.068 128.575 273.981 128.575 302.392 128.575H304.586C323.256 128.575 338.836 128.574 351.491 129.778ZM347.245 174.433C336.966 173.456 323.531 173.433 303.519 173.433C273.717 173.433 252.941 173.456 236.868 174.984C221.13 176.481 212.232 179.26 205.562 183.348C196.508 188.896 188.896 196.508 183.348 205.562C179.26 212.232 176.481 221.13 174.984 236.868C173.456 252.941 173.433 273.717 173.433 303.519C173.433 323.531 173.456 336.966 174.433 347.245C175.379 357.19 177.057 361.842 178.941 364.917C182.023 369.947 186.252 374.176 191.282 377.258C194.357 379.143 199.009 380.82 208.954 381.766C219.233 382.743 232.668 382.767 252.68 382.767H285.576C314.404 382.767 333.77 382.719 348.215 380.777C362.015 378.922 367.921 375.715 371.818 371.818C375.715 367.921 378.922 362.015 380.777 348.215C382.719 333.77 382.767 314.404 382.767 285.576V252.68C382.767 232.668 382.743 219.233 381.766 208.954C380.82 199.009 379.143 194.357 377.258 191.282C374.176 186.252 369.947 182.023 364.917 178.941C361.842 177.057 357.19 175.379 347.245 174.433Z" fill="black" stroke="black" stroke-width="5"/>
<path d="M588.631 249.624C584.782 255.05 584.782 262.733 584.782 278.1C584.782 293.467 584.782 301.15 588.631 306.575C589.99 308.49 591.66 310.161 593.574 311.519C599.001 315.369 606.684 315.369 622.051 315.369C637.417 315.369 645.101 315.369 650.527 311.519C652.441 310.161 654.111 308.49 655.47 306.575C659.319 301.15 659.319 293.467 659.319 278.1C659.319 262.733 659.319 255.05 655.47 249.624C654.111 247.71 652.441 246.039 650.527 244.68C645.101 240.831 637.417 240.831 622.051 240.831C606.684 240.831 599.001 240.831 593.574 244.68C591.66 246.039 589.99 247.71 588.631 249.624Z" fill="black" stroke="black" stroke-width="5"/>
<path fill-rule="evenodd" clip-rule="evenodd" d="M595.564 128.575H597.759C626.169 128.575 649.082 128.575 667.527 130.329C686.55 132.137 703.123 135.968 718.028 145.101C733.118 154.348 745.803 167.034 755.05 182.124C764.183 197.027 768.014 213.6 769.823 232.622C771.575 251.068 771.575 273.981 771.575 302.393V304.586C771.575 323.256 771.575 338.836 770.373 351.491C769.114 364.719 766.387 377.048 759.458 388.355C752.675 399.421 743.372 408.724 732.307 415.507C721 422.436 708.67 425.163 695.443 426.422C682.788 427.624 667.21 427.624 648.544 427.624H613.02C586.15 427.624 563.745 427.627 545.958 425.235C527.184 422.711 510.233 417.157 496.615 403.536C482.993 389.916 477.44 372.966 474.916 354.192C472.523 336.405 472.526 314 472.526 287.131V251.613C472.526 232.944 472.526 217.363 473.729 204.709C474.988 191.48 477.715 179.152 484.644 167.844C491.426 156.779 500.73 147.475 511.794 140.694C523.102 133.765 535.431 131.035 548.661 129.778C561.314 128.574 576.894 128.575 595.564 128.575ZM552.905 174.433C542.961 175.379 538.308 177.057 535.234 178.941C530.204 182.023 525.975 186.252 522.892 191.282C521.008 194.357 519.33 199.009 518.386 208.954C517.408 219.233 517.384 232.668 517.384 252.68V285.576C517.384 314.404 517.432 333.77 519.372 348.215C521.229 362.015 524.435 367.921 528.332 371.818C532.228 375.715 538.135 378.922 551.936 380.777C566.38 382.719 585.746 382.767 614.575 382.767H647.47C667.482 382.767 680.916 382.743 691.197 381.766C701.14 380.82 705.793 379.143 708.868 377.258C713.898 374.176 718.126 369.947 721.209 364.917C723.093 361.842 724.771 357.19 725.716 347.245C726.694 336.966 726.718 323.531 726.718 303.519C726.718 273.717 726.694 252.941 725.166 236.868C723.671 221.13 720.889 212.232 716.801 205.562C711.254 196.508 703.643 188.896 694.588 183.348C687.919 179.26 679.02 176.481 663.284 174.984C647.21 173.456 626.435 173.433 596.632 173.433C576.619 173.433 563.186 173.456 552.905 174.433Z" fill="black" stroke="black" stroke-width="5"/>
<path d="M240.831 622.051C240.831 606.684 240.831 599.001 244.68 593.574C246.039 591.66 247.71 589.99 249.624 588.631C255.05 584.782 262.733 584.782 278.1 584.782C293.467 584.782 301.15 584.782 306.575 588.631C308.49 589.99 310.161 591.66 311.519 593.574C315.369 599.001 315.369 606.684 315.369 622.051C315.369 637.417 315.369 645.101 311.519 650.527C310.161 652.441 308.49 654.111 306.575 655.47C301.15 659.319 293.467 659.319 278.1 659.319C262.733 659.319 255.05 659.319 249.624 655.47C247.71 654.111 246.039 652.441 244.68 650.527C240.831 645.101 240.831 637.417 240.831 622.051Z" fill="black" stroke="black" stroke-width="5"/>
<path fill-rule="evenodd" clip-rule="evenodd" d="M354.192 474.916C372.966 477.44 389.916 482.993 403.536 496.615C417.157 510.233 422.711 527.184 425.235 545.958C427.627 563.745 427.624 586.15 427.624 613.02V648.538C427.624 667.204 427.624 682.788 426.422 695.443C425.163 708.67 422.436 721 415.507 732.307C408.724 743.372 399.421 752.675 388.355 759.458C377.048 766.387 364.719 769.114 351.491 770.373C338.836 771.575 323.256 771.575 304.586 771.575H302.393C273.981 771.575 251.068 771.575 232.622 769.823C213.6 768.014 197.027 764.183 182.124 755.05C167.034 745.803 154.348 733.118 145.101 718.028C135.968 703.123 132.137 686.55 130.329 667.527C128.575 649.082 128.575 626.169 128.575 597.759V595.564C128.575 576.894 128.574 561.314 129.778 548.661C131.035 535.431 133.765 523.102 140.694 511.794C147.475 500.73 156.779 491.426 167.844 484.644C179.152 477.715 191.48 474.988 204.709 473.729C217.363 472.526 232.944 472.526 251.613 472.526H287.131C314 472.526 336.405 472.523 354.192 474.916ZM348.215 519.372C333.77 517.432 314.404 517.384 285.576 517.384H252.68C232.668 517.384 219.233 517.408 208.954 518.386C199.009 519.33 194.357 521.008 191.282 522.892C186.252 525.975 182.023 530.204 178.941 535.234C177.057 538.308 175.379 542.961 174.433 552.905C173.456 563.186 173.433 576.619 173.433 596.632C173.433 626.435 173.456 647.21 174.984 663.284C176.481 679.02 179.26 687.919 183.348 694.588C188.896 703.643 196.508 711.254 205.562 716.801C212.232 720.889 221.13 723.671 236.868 725.166C252.941 726.694 273.717 726.718 303.519 726.718C323.531 726.718 336.966 726.694 347.245 725.716C357.19 724.771 361.842 723.093 364.917 721.209C369.947 718.126 374.176 713.898 377.258 708.868C379.143 705.793 380.82 701.14 381.766 691.197C382.743 680.916 382.767 667.482 382.767 647.47V614.575C382.767 585.746 382.719 566.38 380.777 551.936C378.922 538.135 375.715 532.228 371.818 528.332C367.921 524.435 362.015 521.229 348.215 519.372Z" fill="black" stroke="black" stroke-width="5"/>
<path d="M598.54 472.526H649.526C655.049 472.526 659.526 477.004 659.526 482.526V507.35C659.526 512.873 655.049 517.35 649.526 517.35H599.686C578.21 517.35 563.788 517.377 552.796 518.494C542.18 519.573 537.273 521.48 534.027 523.646C529.946 526.371 526.439 529.874 523.711 533.95C521.541 537.192 519.632 542.092 518.552 552.695C517.617 561.872 517.445 573.443 517.413 589.523C517.402 595.046 512.929 599.526 507.406 599.526H482.526C477.004 599.526 472.522 595.047 472.533 589.525C472.566 573.578 472.76 559.378 473.903 548.159C475.345 534.009 478.477 520.882 486.394 509.049C492.396 500.075 500.11 492.371 509.095 486.377C520.943 478.47 534.087 475.341 548.254 473.901C561.787 472.526 578.506 472.526 598.54 472.526Z" fill="black" stroke="black" stroke-width="5"/>
<path d="M472.526 748.92V669.32C472.526 663.797 477.004 659.32 482.526 659.32H507.526C513.049 659.32 517.526 663.797 517.526 669.32V748.92C517.526 761.291 507.452 771.32 495.026 771.32C482.6 771.32 472.526 761.291 472.526 748.92Z" fill="black" stroke="black" stroke-width="5"/>
<path d="M771.672 494.938C771.672 482.561 761.598 472.526 749.172 472.526C736.746 472.526 726.672 482.561 726.672 494.938V589.526C726.672 595.049 731.15 599.526 736.672 599.526H761.672C767.195 599.526 771.672 595.049 771.672 589.526V494.938Z" fill="black" stroke="black" stroke-width="5"/>
<path d="M736.281 659.32C730.758 659.32 726.288 663.799 726.271 669.321C726.243 678.266 726.14 684.971 725.763 690.48C725.273 697.669 724.39 701.169 723.436 703.475C719.64 712.62 712.359 719.889 703.2 723.679C700.891 724.632 697.385 725.513 690.185 726.003C682.781 726.508 673.221 726.52 658.976 726.52H609.15C603.628 726.52 599.15 730.997 599.15 736.52V761.32C599.15 766.843 603.628 771.32 609.15 771.32H659.733C673.027 771.32 684.127 771.32 693.239 770.699C702.724 770.053 711.683 768.662 720.37 765.069C740.525 756.733 756.541 740.742 764.89 720.618C768.488 711.945 769.882 703 770.528 693.529C770.989 686.787 771.109 678.542 771.14 669.321C771.158 663.798 766.673 659.32 761.15 659.32H736.281Z" fill="black" stroke="black" stroke-width="5"/>
<path d="M574.574 582.856C569.515 590.43 569.515 600.97 569.515 622.051C569.515 643.131 569.515 653.671 574.574 661.245C576.765 664.524 579.578 667.336 582.856 669.528C590.43 674.586 600.97 674.586 622.051 674.586C643.131 674.586 653.671 674.586 661.245 669.528C664.524 667.336 667.336 664.524 669.528 661.245C674.586 653.671 674.586 643.131 674.586 622.051C674.586 600.97 674.586 590.43 669.528 582.856C667.336 579.578 664.524 576.765 661.245 574.574C653.671 569.515 643.131 569.515 622.051 569.515C600.97 569.515 590.43 569.515 582.856 574.574C579.578 576.765 576.765 579.578 574.574 582.856Z" fill="black" stroke="black" stroke-width="5"/>
<path fill-rule="evenodd" clip-rule="evenodd" d="M744.924 31H744.515H715.65C710.668 31 706.629 35.0387 706.629 40.0206C706.629 45.0025 710.668 49.0412 715.65 49.0412H744.515C764.872 49.0412 779.597 49.0483 791.179 49.9945C802.654 50.9321 810.246 52.7467 816.481 55.9236C828.363 61.9773 838.023 71.6373 844.076 83.5185C847.253 89.7534 849.068 97.3455 850.006 108.821C850.951 120.402 850.959 135.127 850.959 155.484V184.35C850.959 189.331 854.998 193.371 859.979 193.371C864.96 193.371 869 189.331 869 184.35V155.484V155.076C869 135.213 869 119.753 867.986 107.352C866.958 94.7605 864.839 84.5301 860.151 75.328C852.368 60.0519 839.948 47.6322 824.672 39.8487C815.47 35.1599 805.239 33.0419 792.648 32.0132C780.246 31 764.786 31 744.924 31Z" fill="black" stroke="black" stroke-width="45"/>
<path fill-rule="evenodd" clip-rule="evenodd" d="M869 744.924V744.515V715.65C869 710.668 864.961 706.629 859.979 706.629C854.997 706.629 850.959 710.668 850.959 715.65V744.515C850.959 764.872 850.952 779.597 850.005 791.179C849.068 802.654 847.253 810.246 844.076 816.481C838.023 828.363 828.363 838.023 816.481 844.076C810.247 847.253 802.655 849.068 791.179 850.006C779.598 850.951 764.873 850.959 744.516 850.959H715.65C710.669 850.959 706.629 854.998 706.629 859.979C706.629 864.96 710.669 869 715.65 869H744.516H744.924C764.787 869 780.247 869 792.648 867.986C805.239 866.958 815.47 864.839 824.672 860.151C839.948 852.368 852.368 839.948 860.151 824.672C864.84 815.47 866.958 805.239 867.987 792.648C869 780.246 869 764.786 869 744.924Z" fill="black" stroke="black" stroke-width="45"/>
<path fill-rule="evenodd" clip-rule="evenodd" d="M155.076 869H155.485H184.35C189.332 869 193.371 864.961 193.371 859.979C193.371 854.997 189.332 850.959 184.35 850.959H155.485C135.128 850.959 120.403 850.952 108.821 850.005C97.3457 849.068 89.7536 847.253 83.5187 844.076C71.6375 838.023 61.977 828.363 55.9241 816.481C52.7471 810.247 50.9321 802.655 49.994 791.179C49.0486 779.598 49.0414 764.873 49.0414 744.516L49.0414 715.65C49.0414 710.669 45.002 706.629 40.0208 706.629C35.0396 706.629 31.0002 710.669 31.0002 715.65L31.0002 744.516V744.924C31.0002 764.787 31.0002 780.247 32.0141 792.648C33.0425 805.239 35.1605 815.47 39.8494 824.672C47.6324 839.948 60.052 852.368 75.3282 860.151C84.5303 864.84 94.7607 866.958 107.352 867.987C119.754 869 135.214 869 155.076 869Z" fill="black" stroke="black" stroke-width="45"/>
<path fill-rule="evenodd" clip-rule="evenodd" d="M31 155.076V155.485L31 184.35C31 189.332 35.0387 193.371 40.0206 193.371C45.0025 193.371 49.0412 189.332 49.0412 184.35V155.485C49.0412 135.128 49.0483 120.403 49.9945 108.821C50.9321 97.3457 52.7467 89.7536 55.9236 83.5187C61.9773 71.6375 71.6373 61.977 83.5185 55.9241C89.7534 52.7471 97.3455 50.9321 108.821 49.994C120.402 49.0486 135.127 49.0414 155.484 49.0414L184.35 49.0414C189.331 49.0414 193.371 45.002 193.371 40.0208C193.371 35.0396 189.331 31.0002 184.35 31.0002L155.484 31.0002H155.076C135.213 31.0002 119.753 31.0002 107.352 32.0141C94.7605 33.0425 84.5301 35.1605 75.328 39.8494C60.0519 47.6324 47.6322 60.052 39.8487 75.3282C35.1599 84.5303 33.0419 94.7607 32.0132 107.352C31 119.754 31 135.214 31 155.076Z" fill="black" stroke="black" stroke-width="45"/>
</svg>
