<svg width="800" height="800" viewBox="0 0 800 800" fill="none" xmlns="http://www.w3.org/2000/svg">
<path d="M400 188.267L382.104 205.497C386.787 210.363 393.248 213.113 400 213.113C406.752 213.113 413.213 210.363 417.896 205.497L400 188.267ZM314.76 613C264.567 573.42 209.683 534.767 166.142 485.722C123.453 437.635 93.6744 381.527 93.6744 308.733H44C44 397.034 80.7756 464.398 129 518.717C176.373 572.078 236.762 614.766 284.008 652.024L314.76 613ZM93.6744 308.733C93.6744 237.481 133.923 177.729 188.863 152.608C242.236 128.203 313.953 134.666 382.104 205.497L417.896 171.038C337.029 86.9938 243.164 73.1423 168.211 107.415C94.8239 140.971 44 218.89 44 308.733H93.6744ZM284.008 652.024C300.971 665.401 319.181 679.665 337.635 690.452C356.085 701.235 377.137 710 400 710V660.309C389.747 660.309 377.683 656.311 362.698 647.549C347.719 638.793 332.181 626.738 314.76 613L284.008 652.024ZM515.993 652.024C563.237 614.766 623.628 572.078 671 518.717C719.224 464.398 756 397.034 756 308.733H706.326C706.326 381.527 676.547 437.635 633.857 485.722C590.316 534.767 535.432 573.42 485.241 613L515.993 652.024ZM756 308.733C756 218.89 705.176 140.971 631.787 107.415C556.835 73.1423 462.971 86.9938 382.104 171.038L417.896 205.497C486.046 134.666 557.763 128.203 611.136 152.608C666.076 177.729 706.326 237.481 706.326 308.733H756ZM485.241 613C467.819 626.738 452.281 638.793 437.302 647.549C422.317 656.311 410.253 660.309 400 660.309V710C422.863 710 443.915 701.235 462.365 690.452C480.82 679.665 499.028 665.401 515.993 652.024L485.241 613Z" fill="black"/>
<path d="M299.384 632.512L314.76 613M314.76 613C264.567 573.42 209.683 534.767 166.142 485.722C123.453 437.635 93.6744 381.527 93.6744 308.733M314.76 613L284.008 652.024M314.76 613C332.181 626.738 347.719 638.793 362.698 647.549C377.683 656.311 389.747 660.309 400 660.309M382.104 205.497L400 188.267L417.896 205.497M382.104 205.497C386.787 210.363 393.248 213.113 400 213.113C406.752 213.113 413.213 210.363 417.896 205.497M382.104 205.497C313.953 134.666 242.236 128.203 188.863 152.608C133.923 177.729 93.6744 237.481 93.6744 308.733M382.104 205.497L417.896 171.038C337.029 86.9938 243.164 73.1423 168.211 107.415C94.8239 140.971 44 218.89 44 308.733M417.896 205.497L382.104 171.038C462.971 86.9938 556.835 73.1423 631.787 107.415C705.176 140.971 756 218.89 756 308.733M417.896 205.497C486.046 134.666 557.763 128.203 611.136 152.608C666.076 177.729 706.326 237.481 706.326 308.733M500.617 632.512L515.993 652.024M515.993 652.024C563.237 614.766 623.628 572.078 671 518.717C719.224 464.398 756 397.034 756 308.733M515.993 652.024L485.241 613M515.993 652.024C499.028 665.401 480.82 679.665 462.365 690.452C443.915 701.235 422.863 710 400 710M93.6744 308.733H44M44 308.733C44 397.034 80.7756 464.398 129 518.717C176.373 572.078 236.762 614.766 284.008 652.024M284.008 652.024C300.971 665.401 319.181 679.665 337.635 690.452C356.085 701.235 377.137 710 400 710M400 710V660.309M400 660.309C410.253 660.309 422.317 656.311 437.302 647.549C452.281 638.793 467.819 626.738 485.241 613M756 308.733H706.326M706.326 308.733C706.326 381.527 676.547 437.635 633.857 485.722C590.316 534.767 535.432 573.42 485.241 613" stroke="black" stroke-width="20"/>
</svg>
