<svg width="801" height="800" viewBox="0 0 801 800" fill="none" xmlns="http://www.w3.org/2000/svg">
<path fill-rule="evenodd" clip-rule="evenodd" d="M79.8794 301.281C79.8794 196.873 164.053 112.192 268.073 112.192C319.87 112.192 366.631 133.248 400.503 167.21C434.45 133.238 481.385 112.192 532.916 112.192C636.935 112.192 721.109 196.873 721.109 301.281C721.109 413.108 669.235 501.407 607.304 564.859C545.69 627.989 472.774 668.008 426.314 683.889C418.132 686.755 408.764 687.808 400.494 687.808C392.224 687.808 382.856 686.755 374.675 683.889C328.215 668.008 255.299 627.989 193.683 564.859C131.754 501.407 79.8794 413.108 79.8794 301.281ZM654.118 376.59C662.192 359.027 654.5 338.244 636.938 330.169C619.375 322.095 598.592 329.787 590.517 347.35L570.8 390.237C562.314 408.696 552.028 426.273 540.092 442.714C523.401 465.703 503.62 486.282 481.307 503.868L481.307 503.868L464.147 517.392C448.965 529.358 446.358 551.365 458.323 566.546C470.288 581.728 492.295 584.335 507.477 572.37L524.637 558.845L524.637 558.845C552.004 537.276 576.266 512.035 596.737 483.839L596.738 483.839C611.377 463.675 623.992 442.117 634.401 419.477L654.118 376.59Z" fill="black"/>
</svg>
