<svg width="700" height="700" viewBox="0 0 700 700" fill="none" xmlns="http://www.w3.org/2000/svg">
<path d="M300 348.007C300 403.236 255.228 448.008 200 448.008C144.772 448.008 100 403.236 100 348.007C100 292.778 144.772 248.006 200 248.006C255.228 248.006 300 292.778 300 348.007ZM130.373 348.007C130.373 386.461 161.546 417.635 200 417.635C238.454 417.635 269.627 386.461 269.627 348.007C269.627 309.552 238.454 278.379 200 278.379C161.546 278.379 130.373 309.552 130.373 348.007Z" fill="black" stroke="black" stroke-width="15"/>
<path d="M600 148.005C600 203.234 555.228 248.006 500 248.006C444.772 248.006 400 203.234 400 148.005C400 92.7754 444.772 48.0034 500 48.0034C555.228 48.0034 600 92.7754 600 148.005ZM430.373 148.005C430.373 186.459 461.546 217.633 500 217.633C538.454 217.633 569.627 186.459 569.627 148.005C569.627 109.55 538.454 78.3763 500 78.3763C461.546 78.3763 430.373 109.55 430.373 148.005Z" fill="black" stroke="black" stroke-width="15"/>
<path d="M600 552.002C600 607.231 555.228 652.003 500 652.003C444.772 652.003 400 607.231 400 552.002C400 496.773 444.772 452.001 500 452.001C555.228 452.001 600 496.773 600 552.002ZM430.373 552.002C430.373 590.457 461.546 621.631 500 621.631C538.454 621.631 569.627 590.457 569.627 552.002C569.627 513.548 538.454 482.374 500 482.374C461.546 482.374 430.373 513.548 430.373 552.002Z" fill="black" stroke="black" stroke-width="15"/>
<line y1="-25" x2="180" y2="-25" transform="matrix(0.819149 0.573581 -0.573572 0.819155 271 414.004)" stroke="black" stroke-width="50"/>
<line y1="-25" x2="178" y2="-25" transform="matrix(0.819149 -0.573581 0.573572 0.819155 288 321.003)" stroke="black" stroke-width="50"/>
</svg>
