<svg width="360" height="360" viewBox="0 0 360 360" fill="none" xmlns="http://www.w3.org/2000/svg">
<path d="M97.5 134.307C97.5 88.7436 134.436 51.8071 180 51.8071C225.564 51.8071 262.5 88.7436 262.5 134.307V164.307C262.5 188.649 270.395 212.334 285 231.807L288.215 236.093C289.31 237.552 289.856 238.281 290.174 238.784C296.214 248.325 289.943 260.868 278.685 261.761C278.094 261.807 277.182 261.807 275.357 261.807H84.6429C82.8186 261.807 81.9066 261.807 81.315 261.761C70.0571 260.868 63.7854 248.325 69.8265 238.784C70.1439 238.281 70.6913 237.552 71.7857 236.093L75 231.807C89.6051 212.334 97.5 188.649 97.5 164.307V134.307Z" stroke="black" stroke-width="23"/>
<path d="M143.778 276.012C145.914 285.244 150.622 293.403 157.171 299.221C163.72 305.039 171.745 308.192 180 308.192C188.254 308.192 196.279 305.039 202.828 299.221C209.377 293.403 214.086 285.244 216.222 276.012" stroke="black" stroke-width="23" stroke-linecap="round"/>
</svg>
