<svg width="800" height="800" viewBox="0 0 800 800" fill="none" xmlns="http://www.w3.org/2000/svg">
<g clip-path="url(#clip0_6224_16)">
<path d="M620.493 144.549C611.116 135.172 598.398 129.904 585.137 129.904H522.892C511.845 129.904 503.093 138.947 500.972 149.789C491.713 197.101 450.024 232.801 399.999 232.801C349.981 232.801 308.298 197.112 299.073 149.811C296.956 138.961 288.201 129.904 277.146 129.904H227.926C215.27 129.904 203.085 134.703 193.829 143.334L37.8722 288.745C17.1737 308.044 16.6032 340.66 36.6142 360.67L71.5193 395.576C91.0447 415.101 122.701 415.102 142.228 395.578L177.063 360.747C183.363 354.448 194.134 358.91 194.134 367.818V620.096C194.134 647.71 216.519 670.096 244.134 670.096H555.851C583.464 670.096 605.849 647.712 605.851 620.099L605.867 367.819C605.867 358.91 616.638 354.449 622.938 360.748L657.771 395.578C677.297 415.103 708.954 415.103 728.48 395.577L764.644 359.413C784.171 339.887 784.171 308.229 764.645 288.702L620.493 144.549Z" fill="black"/>
</g>
<defs>
<clipPath id="clip0_6224_16">
<rect width="800" height="800" fill="white"/>
</clipPath>
</defs>
</svg>
