<svg width="81" height="65" viewBox="0 0 81 65" fill="none" xmlns="http://www.w3.org/2000/svg">
<path d="M11.9889 11.295L22.3589 9.78498C23.7189 9.59498 24.9489 8.88498 25.8189 7.80498L29.0289 3.79498C30.5289 1.92498 32.7689 0.85498 35.1689 0.85498H45.5889C47.9889 0.85498 50.2289 1.92498 51.7289 3.79498L54.9389 7.80498C55.7989 8.88498 57.0389 9.58498 58.3989 9.78498L68.7689 11.295C75.3889 12.255 80.3789 18.035 80.3789 24.725V45.275C80.3789 52.765 74.2889 58.855 66.7989 58.855H55.2889C51.2589 62.265 46.0589 64.315 40.3789 64.315C34.6989 64.315 29.4989 62.265 25.4689 58.855H13.9589C6.46891 58.855 0.378906 52.765 0.378906 45.275V24.725C0.378906 18.035 5.36891 12.255 11.9889 11.295ZM68.1389 15.575L57.7789 14.065C55.3289 13.705 53.1189 12.445 51.5589 10.505L48.3489 6.49498C47.6689 5.65498 46.6589 5.17498 45.5789 5.17498H35.1589C34.0789 5.17498 33.0689 5.65498 32.3889 6.49498L29.1789 10.505C27.6189 12.445 25.4189 13.705 22.9589 14.065L12.5989 15.575C8.68891 16.145 5.60891 19.185 4.85891 22.955H26.0589C30.0089 19.855 34.9689 17.985 40.3589 17.985C45.7489 17.985 50.7189 19.855 54.6589 22.955H75.8789C75.1289 19.185 72.0489 16.145 68.1389 15.575ZM66.7989 54.525C71.8989 54.525 76.0489 50.375 76.0489 45.275V27.285H58.8889C61.7889 31.155 63.5389 35.945 63.5389 41.145C63.5389 46.345 61.9389 50.745 59.2489 54.525H66.7989ZM40.3789 59.985C50.7689 59.985 59.2189 51.535 59.2189 41.145C59.2189 30.755 50.7689 22.315 40.3789 22.315C29.9889 22.315 21.5389 30.755 21.5389 41.145C21.5389 51.535 29.9889 59.985 40.3789 59.985ZM4.69891 45.275C4.69891 50.375 8.84891 54.525 13.9489 54.525H21.4989C18.8089 50.745 17.2089 46.135 17.2089 41.145C17.2089 36.155 18.9589 31.155 21.8589 27.285H4.69891V45.275Z" fill="black"/>
<path d="M40.3786 25.475C49.0286 25.475 56.0586 32.515 56.0586 41.155C56.0586 49.795 49.0286 56.835 40.3786 56.835C31.7286 56.835 24.6986 49.805 24.6986 41.155C24.6986 32.505 31.7286 25.475 40.3786 25.475ZM40.3786 52.505C46.6386 52.505 51.7286 47.415 51.7286 41.155C51.7286 34.895 46.6386 29.805 40.3786 29.805C34.1186 29.805 29.0286 34.905 29.0286 41.155C29.0286 47.405 34.1186 52.505 40.3786 52.505Z" fill="black"/>
<path d="M40.3793 33.0349C44.8593 33.0349 48.4893 36.6749 48.4893 41.1449C48.4893 42.3449 47.5193 43.3049 46.3293 43.3049C45.1393 43.3049 44.1693 42.3449 44.1693 41.1449C44.1693 39.0649 42.4693 37.3649 40.3893 37.3649C39.1993 37.3649 38.2293 36.4049 38.2293 35.2049C38.2293 34.0049 39.1993 33.0449 40.3893 33.0449L40.3793 33.0349Z" fill="black"/>
</svg>
