<svg width="800" height="800" viewBox="0 0 800 800" fill="none" xmlns="http://www.w3.org/2000/svg">
<path fill-rule="evenodd" clip-rule="evenodd" d="M291.667 125C291.667 111.193 302.86 100 316.667 100H483.333C497.14 100 508.333 111.193 508.333 125C508.333 138.807 497.14 150 483.333 150H316.667C302.86 150 291.667 138.807 291.667 125ZM331.942 183.341H468.047C513.687 183.34 549.85 183.34 578.73 186.278C608.32 189.288 633.02 195.587 654.627 210.025C671.917 221.576 686.76 236.42 698.31 253.709C712.747 275.315 719.05 300.013 722.06 329.601C725 358.49 725 394.67 725 440.337V443.053C725 488.693 725 524.857 722.063 553.737C719.053 583.323 712.753 608.023 698.317 629.633C686.763 646.92 671.92 661.763 654.633 673.317C633.023 687.753 608.323 694.053 578.737 697.063C549.857 700 513.693 700 468.053 700H331.948C286.307 700 250.144 700 221.265 697.063C191.677 694.053 166.975 687.753 145.368 673.317C128.08 661.763 113.236 646.92 101.684 629.633C87.2463 608.023 80.947 583.323 77.9373 553.737C74.9993 524.857 74.9997 488.693 75 443.053V440.22C74.9997 394.6 74.9993 358.45 77.9367 329.583C80.946 300.005 87.2443 275.312 101.679 253.709C113.231 236.42 128.075 221.576 145.363 210.025C166.97 195.587 191.672 189.288 221.26 186.278C250.138 183.34 286.302 183.34 331.942 183.341ZM226.32 236.021C200.685 238.629 185.164 243.565 173.142 251.598C161.313 259.502 151.156 269.658 143.253 281.487C135.221 293.507 130.287 309.022 127.68 334.644C125.03 360.687 125 394.29 125 441.603V441.667C125 489.003 125.03 522.623 127.68 548.673C130.288 574.31 135.224 589.83 143.257 601.853C151.161 613.683 161.318 623.84 173.147 631.743C185.169 639.777 200.69 644.713 226.325 647.32C252.378 649.97 285.998 650 333.333 650H466.667C514.003 650 547.623 649.97 573.673 647.32C599.31 644.713 614.83 639.777 626.853 631.743C638.683 623.84 648.84 613.683 656.743 601.853C664.777 589.83 669.713 574.31 672.32 548.673C674.97 522.623 675 489.003 675 441.667C675 394.33 674.97 360.713 672.317 334.663C669.71 309.031 664.77 293.511 656.737 281.487C648.833 269.658 638.677 259.502 626.85 251.598C614.827 243.565 599.303 238.629 573.67 236.021C547.617 233.371 513.997 233.341 466.663 233.341H333.328C285.993 233.341 252.373 233.371 226.32 236.021ZM400 366.667C358.58 366.667 325 400.247 325 441.667C325 483.087 358.58 516.667 400 516.667C441.42 516.667 475 483.087 475 441.667C475 400.247 441.42 366.667 400 366.667ZM275 441.667C275 372.63 330.964 316.667 400 316.667C469.037 316.667 525 372.63 525 441.667C525 510.703 469.037 566.667 400 566.667C330.964 566.667 275 510.703 275 441.667ZM558.333 341.667C558.333 327.86 569.527 316.667 583.333 316.667H600C613.807 316.667 625 327.86 625 341.667C625 355.473 613.807 366.667 600 366.667H583.333C569.527 366.667 558.333 355.473 558.333 341.667Z" fill="black" stroke="black" stroke-width="5"/>
</svg>
