<svg width="801" height="800" viewBox="0 0 801 800" fill="none" xmlns="http://www.w3.org/2000/svg">
<path d="M625.325 325C625.325 265.326 601.62 208.097 559.424 165.901C517.228 123.705 459.999 100 400.325 100C340.651 100 283.422 123.705 241.226 165.901C199.03 208.097 175.325 265.326 175.325 325C175.325 414.46 244.701 530.224 386.593 668.467C394.239 675.916 406.411 675.916 414.057 668.467C555.949 530.224 625.325 414.46 625.325 325ZM413.754 737.687C406.187 744.687 394.463 744.687 386.896 737.687C212.5 576.36 125.325 438.766 125.325 325C125.325 252.065 154.298 182.118 205.871 130.546C257.443 78.9731 327.39 50 400.325 50C473.26 50 543.207 78.9731 594.779 130.546C646.352 182.118 675.325 252.065 675.325 325C675.325 438.766 588.15 576.36 413.754 737.687Z" fill="black" stroke="black" stroke-width="20"/>
<path d="M400.325 400C420.216 400 439.293 392.098 453.358 378.033C467.423 363.968 475.325 344.891 475.325 325C475.325 305.109 467.423 286.032 453.358 271.967C439.293 257.902 420.216 250 400.325 250C380.434 250 361.357 257.902 347.292 271.967C333.227 286.032 325.325 305.109 325.325 325C325.325 344.891 333.227 363.968 347.292 378.033C361.357 392.098 380.434 400 400.325 400ZM400.325 450C367.173 450 335.379 436.83 311.937 413.388C288.495 389.946 275.325 358.152 275.325 325C275.325 291.848 288.495 260.054 311.937 236.612C335.379 213.17 367.173 200 400.325 200C433.477 200 465.271 213.17 488.713 236.612C512.155 260.054 525.325 291.848 525.325 325C525.325 358.152 512.155 389.946 488.713 413.388C465.271 436.83 433.477 450 400.325 450Z" fill="black" stroke="black" stroke-width="20"/>
</svg>
