<svg width="718" height="718" viewBox="0 0 718 718" fill="none" xmlns="http://www.w3.org/2000/svg">
<path d="M445.194 459.12L473.927 520.62C473.927 520.62 603.217 547.927 603.217 612.873C603.217 659 545.754 659 545.754 659H392.52L317.1 617.333" stroke="black" stroke-width="50" stroke-linecap="round" stroke-linejoin="round"/>
<path d="M272.808 459.12L244.077 520.62C244.077 520.62 114.785 547.927 114.785 612.873C114.785 659 172.248 659 172.248 659H241.682L317.104 617.333L409.284 559" stroke="black" stroke-width="50" stroke-linecap="round" stroke-linejoin="round"/>
<path d="M57.3193 489.87C57.3193 489.87 129.148 474.497 172.245 459.12C215.343 243.865 344.633 259.24 359 259.24C373.367 259.24 502.657 243.865 545.754 459.12C588.85 474.497 660.681 489.87 660.681 489.87" stroke="black" stroke-width="50" stroke-linecap="round" stroke-linejoin="round"/>
<path d="M359 192.333C396.026 192.333 426.04 162.486 426.04 125.667C426.04 88.8477 396.026 59 359 59C321.974 59 291.96 88.8477 291.96 125.667C291.96 162.486 321.974 192.333 359 192.333Z" stroke="black" stroke-width="50" stroke-linecap="round" stroke-linejoin="round"/>
</svg>
