<svg width="1118" height="1118" viewBox="0 0 1118 1118" fill="none" xmlns="http://www.w3.org/2000/svg">
<path d="M490.629 836.837L519.363 898.337C519.363 898.337 648.653 925.644 648.653 990.59C648.653 1036.72 591.189 1036.72 591.189 1036.72H437.956L362.536 995.05" stroke="black" stroke-width="50" stroke-linecap="round" stroke-linejoin="round"/>
<path d="M318.244 836.837L289.512 898.337C289.512 898.337 160.221 925.644 160.221 990.59C160.221 1036.72 217.683 1036.72 217.683 1036.72H287.118L362.539 995.05L454.719 936.717" stroke="black" stroke-width="50" stroke-linecap="round" stroke-linejoin="round"/>
<path d="M102.755 867.587C102.755 867.587 174.584 852.213 217.681 836.837C260.778 621.582 390.069 636.957 404.436 636.957C418.802 636.957 548.093 621.582 591.189 836.837C634.286 852.213 706.116 867.587 706.116 867.587" stroke="black" stroke-width="50" stroke-linecap="round" stroke-linejoin="round"/>
<path d="M404.436 570.05C441.462 570.05 471.476 540.202 471.476 503.383C471.476 466.564 441.462 436.717 404.436 436.717C367.409 436.717 337.396 466.564 337.396 503.383C337.396 540.202 367.409 570.05 404.436 570.05Z" stroke="black" stroke-width="50" stroke-linecap="round" stroke-linejoin="round"/>
<path fill-rule="evenodd" clip-rule="evenodd" d="M848.653 703.384C959.11 703.384 1048.65 613.841 1048.65 503.384C1048.65 392.927 959.11 303.384 848.653 303.384C738.196 303.384 648.653 392.927 648.653 503.384C648.653 613.841 738.196 703.384 848.653 703.384ZM771.589 394.212V612.394H859.905C876.596 612.394 890.445 609.801 901.454 604.616C912.462 599.432 920.701 592.365 926.17 583.416C931.639 574.396 934.373 564.24 934.373 552.947C934.373 541.868 932.1 532.422 927.555 524.609C923.009 516.797 917.15 510.76 909.977 506.499C902.874 502.166 895.452 499.787 887.711 499.361V497.23C894.813 495.525 901.241 492.721 906.994 488.814C912.747 484.908 917.327 479.83 920.736 473.58C924.146 467.259 925.85 459.659 925.85 450.781C925.85 439.986 923.222 430.327 917.967 421.804C912.782 413.281 904.934 406.569 894.422 401.669C883.982 396.697 870.878 394.212 855.111 394.212H771.589ZM853.62 579.368H811.113V515.447H854.686C862.853 515.447 869.884 516.975 875.779 520.028C881.674 523.012 886.219 527.131 889.416 532.387C892.611 537.571 894.209 543.395 894.209 549.858C894.209 558.522 891.014 565.625 884.622 571.165C878.3 576.634 867.967 579.368 853.62 579.368ZM850.211 487.003H811.113V426.812H851.063C862.711 426.812 871.482 429.546 877.377 435.015C883.343 440.483 886.326 447.443 886.326 455.895C886.326 462.287 884.728 467.827 881.532 472.515C878.407 477.131 874.11 480.718 868.641 483.274C863.172 485.76 857.029 487.003 850.211 487.003Z" fill="black"/>
</svg>
