<svg width="800" height="800" viewBox="0 0 800 800" fill="none" xmlns="http://www.w3.org/2000/svg">
<path d="M625 325C625 265.326 601.295 208.097 559.099 165.901C516.903 123.705 459.674 100 400 100C340.326 100 283.097 123.705 240.901 165.901C198.705 208.097 175 265.326 175 325C175 414.46 244.376 530.224 386.268 668.467C393.914 675.916 406.086 675.916 413.732 668.467C555.624 530.224 625 414.46 625 325ZM413.429 737.687C405.862 744.687 394.138 744.687 386.571 737.687C212.175 576.36 125 438.766 125 325C125 252.065 153.973 182.118 205.546 130.546C257.118 78.9731 327.065 50 400 50C472.935 50 542.882 78.9731 594.454 130.546C646.027 182.118 675 252.065 675 325C675 438.766 587.825 576.36 413.429 737.687Z" fill="black"/>
<path d="M400 400C419.891 400 438.968 392.098 453.033 378.033C467.098 363.968 475 344.891 475 325C475 305.109 467.098 286.032 453.033 271.967C438.968 257.902 419.891 250 400 250C380.109 250 361.032 257.902 346.967 271.967C332.902 286.032 325 305.109 325 325C325 344.891 332.902 363.968 346.967 378.033C361.032 392.098 380.109 400 400 400ZM400 450C366.848 450 335.054 436.83 311.612 413.388C288.17 389.946 275 358.152 275 325C275 291.848 288.17 260.054 311.612 236.612C335.054 213.17 366.848 200 400 200C433.152 200 464.946 213.17 488.388 236.612C511.83 260.054 525 291.848 525 325C525 358.152 511.83 389.946 488.388 413.388C464.946 436.83 433.152 450 400 450Z" fill="black"/>
</svg>
