<svg width="355" height="333" viewBox="0 0 355 333" fill="none" xmlns="http://www.w3.org/2000/svg">
<path d="M299.531 0.674805H288.463C273.023 0.674805 266.326 4.93601 264.445 6.70679L177.449 78.1522H177.781V233.107H177.449L264.168 304.331C266.326 306.323 273.023 310.584 288.463 310.584H299.531C305.646 310.584 310.599 305.631 310.599 299.516V11.743C310.599 5.62799 305.646 0.674805 299.531 0.674805Z" fill="#B2C4D0"/>
<path d="M310.598 105.823V205.437C338.108 202.254 357.826 177.379 354.644 149.869C351.971 126.742 333.725 108.496 310.598 105.823Z" fill="#79C68C"/>
<path d="M310.598 105.823V205.437C338.108 202.254 357.826 177.379 354.644 149.869C351.971 126.742 333.725 108.496 310.598 105.823Z" fill="#B2C4D0"/>
<path d="M44.9622 177.763V111.354H11.7576C5.64264 111.353 0.689453 116.307 0.689453 122.422V188.831C0.689453 194.946 5.64264 199.899 11.7576 199.899H44.9622V177.763Z" fill="#576D7E"/>
<path d="M89.2342 222.042H111.371C117.486 222.042 122.439 226.995 122.439 233.11V321.655C122.439 327.77 117.486 332.724 111.371 332.724H89.2342C83.1192 332.724 78.166 327.77 78.166 321.655V233.11C78.166 226.994 83.1192 222.042 89.2342 222.042Z" fill="#B2C4D0"/>
<path d="M299.532 0.674805H288.463V310.584H299.532C305.647 310.584 310.6 305.631 310.6 299.516V11.743C310.6 5.62799 305.647 0.674805 299.532 0.674805Z" fill="#576D7E"/>
<path d="M122.441 233.108V266.313C128.556 266.313 133.509 261.359 133.509 255.244V233.108H122.441Z" fill="#576D7E"/>
<path d="M56.0309 78.1553C43.8064 78.1553 33.8945 88.0672 33.8945 100.292V210.973C33.8945 223.198 43.8064 233.11 56.0309 233.11H177.782V78.156L56.0309 78.1553Z" fill="#03A9F5"/>
<path d="M92.0022 122.425C96.5867 122.425 100.304 118.708 100.304 114.124C100.304 109.539 96.5867 105.823 92.0022 105.823C87.4177 105.823 83.7012 109.539 83.7012 114.124C83.7012 118.708 87.4177 122.425 92.0022 122.425Z" fill="#F5F5F5"/>
<path d="M64.3322 122.425C68.9167 122.425 72.6333 118.708 72.6333 114.124C72.6333 109.539 68.9167 105.823 64.3322 105.823C59.7477 105.823 56.0312 109.539 56.0312 114.124C56.0312 118.708 59.7477 122.425 64.3322 122.425Z" fill="#F5F5F5"/>
</svg>
