<svg width="355" height="333" viewBox="0 0 355 333" fill="none" xmlns="http://www.w3.org/2000/svg">
<path d="M299.53 0.674805H288.462C273.022 0.674805 266.325 4.93601 264.444 6.70679L177.448 78.1522H177.78V233.107H177.448L264.167 304.331C266.325 306.323 273.022 310.584 288.462 310.584H299.53C305.645 310.584 310.598 305.631 310.598 299.516V11.743C310.598 5.62799 305.645 0.674805 299.53 0.674805Z" fill="#B2C4D0"/>
<path d="M310.599 105.823V205.437C338.109 202.254 357.827 177.379 354.645 149.869C351.972 126.742 333.726 108.496 310.599 105.823Z" fill="#79C68C"/>
<path d="M310.599 105.823V205.437C338.109 202.254 357.827 177.379 354.645 149.869C351.972 126.742 333.726 108.496 310.599 105.823Z" fill="#B2C4D0"/>
<path d="M44.9622 177.763V111.354H11.7576C5.64264 111.353 0.689453 116.307 0.689453 122.422V188.831C0.689453 194.946 5.64264 199.899 11.7576 199.899H44.9622V177.763Z" fill="#576D7E"/>
<path d="M89.2342 222.042H111.371C117.486 222.042 122.439 226.995 122.439 233.11V321.655C122.439 327.77 117.486 332.724 111.371 332.724H89.2342C83.1192 332.724 78.166 327.77 78.166 321.655V233.11C78.166 226.994 83.1192 222.042 89.2342 222.042Z" fill="#B2C4D0"/>
<path d="M299.532 0.674805H288.463V310.584H299.532C305.647 310.584 310.6 305.631 310.6 299.516V11.743C310.6 5.62799 305.647 0.674805 299.532 0.674805Z" fill="#576D7E"/>
<path d="M122.44 233.108V266.313C128.555 266.313 133.508 261.359 133.508 255.244V233.108H122.44Z" fill="#576D7E"/>
<path d="M56.03 78.1553C43.8055 78.1553 33.8936 88.0672 33.8936 100.292V210.973C33.8936 223.198 43.8055 233.11 56.03 233.11H177.781V78.156L56.03 78.1553Z" fill="#FF8D1D"/>
<path d="M92.0022 122.425C96.5867 122.425 100.304 118.708 100.304 114.124C100.304 109.539 96.5867 105.823 92.0022 105.823C87.4177 105.823 83.7012 109.539 83.7012 114.124C83.7012 118.708 87.4177 122.425 92.0022 122.425Z" fill="#F5F5F5"/>
<path d="M64.3313 122.425C68.9158 122.425 72.6323 118.708 72.6323 114.124C72.6323 109.539 68.9158 105.823 64.3313 105.823C59.7468 105.823 56.0303 109.539 56.0303 114.124C56.0303 118.708 59.7468 122.425 64.3313 122.425Z" fill="#F5F5F5"/>
</svg>
