<svg width="800" height="800" viewBox="0 0 800 800" fill="none" xmlns="http://www.w3.org/2000/svg">
<path d="M400 750C593.3 750 750 593.3 750 400C750 206.7 593.3 50 400 50C206.7 50 50 206.7 50 400C50 593.3 206.7 750 400 750Z" fill="#79C68C"/>
<path d="M559.305 259.84L316.992 502.152C306.539 512.606 306.539 529.554 316.992 540.007C327.445 550.461 344.393 550.461 354.846 540.007L597.159 297.695C607.612 287.241 607.612 270.293 597.159 259.84C586.706 249.387 569.758 249.387 559.305 259.84Z" fill="white"/>
<path d="M559.305 259.84L316.992 502.152C306.539 512.606 306.539 529.554 316.992 540.007C327.445 550.461 344.393 550.461 354.846 540.007L597.159 297.695C607.612 287.241 607.612 270.293 597.159 259.84C586.706 249.387 569.758 249.387 559.305 259.84Z" stroke="white" stroke-width="20"/>
<path d="M559.305 259.84L316.992 502.152C306.539 512.606 306.539 529.554 316.992 540.007C327.445 550.461 344.393 550.461 354.846 540.007L597.159 297.695C607.612 287.241 607.612 270.293 597.159 259.84C586.706 249.387 569.758 249.387 559.305 259.84Z" stroke="white" stroke-width="20"/>
<path d="M203.84 426.443L317.403 540.007C327.857 550.46 344.805 550.46 355.258 540.007C365.711 529.553 365.711 512.605 355.258 502.152L241.694 388.589C231.241 378.136 214.293 378.136 203.84 388.589C193.387 399.043 193.387 415.99 203.84 426.443Z" fill="white" stroke="white" stroke-width="20"/>
</svg>
