<svg width="800" height="800" viewBox="0 0 800 800" fill="none" xmlns="http://www.w3.org/2000/svg">
<path d="M400 750C593.3 750 750 593.3 750 400C750 206.7 593.3 50 400 50C206.7 50 50 206.7 50 400C50 593.3 206.7 750 400 750Z" fill="#E22B2B"/>
<path d="M511.154 251.679L251.677 511.155C241.441 521.392 241.441 537.988 251.677 548.224C261.913 558.46 278.509 558.46 288.745 548.224L548.222 288.747C558.458 278.511 558.458 261.915 548.222 251.679C537.986 241.443 521.389 241.443 511.154 251.679Z" fill="white" stroke="white" stroke-width="20"/>
<path d="M251.778 288.746L511.256 548.221C521.491 558.458 538.087 558.458 548.323 548.221C558.559 537.986 558.559 521.39 548.323 511.154L288.847 251.677C278.61 241.441 262.014 241.441 251.778 251.677C241.543 261.913 241.543 278.509 251.778 288.746Z" fill="white" stroke="white" stroke-width="20"/>
</svg>
