<svg height='100px' width='100px'  fill="#1A1A1A" xmlns="http://www.w3.org/2000/svg" xmlns:xlink="http://www.w3.org/1999/xlink" viewBox="0 0 100 100" version="1.1" x="0px" y="0px"><title>i18 copy 2</title><desc>Created with Sketch.</desc><g stroke="none" stroke-width="1" fill="none" fill-rule="evenodd"><path d="M73.0647745,27.7804847 C73.0647745,15.2193254 62.845449,5 50.2842897,5 C37.7231305,5 27.503805,15.2193254 27.503805,27.7804847 C27.503805,40.341644 37.7231305,50.5609694 50.2842897,50.5609694 C62.845449,50.5609694 73.0647745,40.341644 73.0647745,27.7804847 M93.2106961,81.4683921 C94.9032861,88.2558375 90.3722477,95 84.2317681,95 L16.3356724,95 C10.1951927,95 5.66529334,88.2558375 7.35788336,81.4683921 C10.5972683,68.4778207 18.3904721,57.6286148 28.675861,51.2113523 C34.363009,56.459976 41.9546055,59.6731633 50.2842897,59.6731633 C58.613974,59.6731633 66.2055705,56.459976 71.8915795,51.2113523 C82.1781074,57.6286148 89.9701722,68.4778207 93.2106961,81.4683921" fill="#1A1A1A"></path></g></svg>