<svg width="718" height="723" viewBox="0 0 718 723" fill="none" xmlns="http://www.w3.org/2000/svg">
<path d="M25.3809 364.417C25.3809 238.709 25.3809 175.855 64.4332 136.803C103.486 97.7505 166.34 97.7505 292.048 97.7505H425.381C551.088 97.7505 613.944 97.7505 652.994 136.803C692.047 175.855 692.048 238.709 692.048 364.417V431.084C692.048 556.79 692.047 619.647 652.994 658.697C613.944 697.75 551.088 697.75 425.381 697.75H292.048C166.34 697.75 103.486 697.75 64.4332 658.697C25.3809 619.647 25.3809 556.79 25.3809 431.084V364.417Z" stroke="black" stroke-width="50"/>
<path d="M189.972 97.8068V25.7729" stroke="black" stroke-width="50" stroke-linecap="round"/>
<path d="M525.194 97.7515V25.772" stroke="black" stroke-width="50" stroke-linecap="round"/>
<path d="M37.2139 234.356H357.46H677.706" stroke="black" stroke-width="50" stroke-linecap="round"/>
<path d="M319.098 371.962C336.724 340.341 345.537 324.531 358.714 324.531C371.891 324.531 380.704 340.341 398.33 371.962L402.89 380.142C407.9 389.128 410.403 393.621 414.309 396.585C418.214 399.549 423.076 400.65 432.804 402.85L441.66 404.854C475.887 412.599 493.002 416.471 497.074 429.564C501.146 442.657 489.479 456.302 466.143 483.588L460.106 490.648C453.476 498.401 450.159 502.278 448.668 507.075C447.177 511.872 447.678 517.045 448.68 527.391L449.593 536.809C453.121 573.216 454.885 591.419 444.226 599.511C433.565 607.603 417.541 600.225 385.492 585.47L377.201 581.652C368.095 577.459 363.542 575.362 358.714 575.362C353.887 575.362 349.334 577.459 340.227 581.652L331.936 585.47C299.887 600.225 283.863 607.603 273.203 599.511C262.543 591.419 264.307 573.216 267.835 536.809L268.748 527.391C269.751 517.045 270.252 511.872 268.76 507.075C267.269 502.278 263.953 498.401 257.322 490.648L251.285 483.588C227.95 456.302 216.283 442.657 220.355 429.564C224.427 416.471 241.541 412.599 275.769 404.854L284.625 402.85C294.351 400.65 299.215 399.549 303.12 396.585C307.024 393.621 309.529 389.128 314.538 380.142L319.098 371.962Z" stroke="black" stroke-width="50"/>
</svg>
