<svg width="1166" height="1166" viewBox="0 0 1166 1166" fill="none" xmlns="http://www.w3.org/2000/svg">
<path fill-rule="evenodd" clip-rule="evenodd" d="M341.68 114.473C267.122 114.473 206.68 174.914 206.68 249.473V368.648H276.68V249.473C276.68 213.574 305.782 184.473 341.68 184.473H927.68C963.578 184.473 992.68 213.574 992.68 249.473V915.473C992.68 951.372 963.578 980.473 927.68 980.473H341.68C305.782 980.473 276.68 951.372 276.68 915.473V796.303H206.68V915.473C206.68 990.031 267.122 1050.47 341.68 1050.47H927.68C1002.24 1050.47 1062.68 990.031 1062.68 915.473V249.473C1062.68 174.914 1002.24 114.473 927.68 114.473H341.68Z" fill="black" stroke="black" stroke-width="22"/>
<path d="M430.578 368.934H202.578C147.35 368.934 102.578 413.705 102.578 468.934V696.934C102.578 752.162 147.35 796.934 202.578 796.934H430.578C485.807 796.934 530.578 752.162 530.578 696.934V468.934C530.578 413.705 485.807 368.934 430.578 368.934Z" stroke="black" stroke-width="90"/>
<path d="M876.172 545.539H691.172C670.461 545.539 653.672 562.328 653.672 583.039C653.672 603.75 670.461 620.539 691.172 620.539H876.172C896.883 620.539 913.672 603.75 913.672 583.039C913.672 562.328 896.883 545.539 876.172 545.539Z" fill="black" stroke="black" stroke-width="20"/>
<path d="M876.172 722.145H691.172C670.461 722.145 653.672 738.934 653.672 759.645C653.672 780.355 670.461 797.145 691.172 797.145H876.172C896.883 797.145 913.672 780.355 913.672 759.645C913.672 738.934 896.883 722.145 876.172 722.145Z" fill="black" stroke="black" stroke-width="20"/>
<path d="M876.172 368.934H691.172C670.461 368.934 653.672 385.723 653.672 406.434C653.672 427.144 670.461 443.934 691.172 443.934H876.172C896.883 443.934 913.672 427.144 913.672 406.434C913.672 385.723 896.883 368.934 876.172 368.934Z" fill="black" stroke="black" stroke-width="20"/>
<path d="M419.121 632.541L267.099 480.501C252.456 465.856 228.716 465.856 214.073 480.501C199.43 495.146 199.43 518.889 214.073 533.534L366.095 685.574C380.737 700.219 404.478 700.219 419.121 685.574C433.764 670.93 433.764 647.186 419.121 632.541Z" fill="black"/>
<path d="M366.152 480.486L214.13 632.526C199.488 647.171 199.488 670.915 214.13 685.559C228.773 700.204 252.514 700.204 267.157 685.559L419.179 533.519C433.822 518.874 433.822 495.131 419.179 480.486C404.536 465.841 380.795 465.841 366.152 480.486Z" fill="black"/>
</svg>
