<svg width="700" height="700" viewBox="0 0 700 700" fill="none" xmlns="http://www.w3.org/2000/svg">
<g clip-path="url(#clip0_5447_2)">
<rect width="700" height="700" rx="100" fill="white"/>
<path fill-rule="evenodd" clip-rule="evenodd" d="M373.893 700H38.6346C17.291 700 0 682.698 0 661.363V38.6344C0 17.2937 17.2938 0 38.6346 0H661.368C682.703 0 700 17.2937 700 38.6344V661.363C700 682.701 682.701 700 661.368 700H482.99V428.921H573.978L587.603 323.277H482.99V255.83C482.99 225.244 491.483 204.4 535.344 204.4L591.286 204.376V109.887C581.611 108.599 548.403 105.723 509.768 105.723C429.112 105.723 373.893 154.956 373.893 245.368V323.277H282.67V428.921H373.893V700Z" fill="#4460A0"/>
</g>
<defs>
<clipPath id="clip0_5447_2">
<rect width="700" height="700" rx="100" fill="white"/>
</clipPath>
</defs>
</svg>
