<svg width="601" height="612" viewBox="0 0 601 612" fill="none" xmlns="http://www.w3.org/2000/svg">
<path d="M567.047 86.3434C567.047 67.6727 567.034 58.3302 563.396 51.199C560.198 44.9262 555.109 39.8299 548.831 36.6335C541.692 33 532.327 33 513.633 33H86.4339C67.7422 33 58.4055 33 51.2663 36.6335C44.9864 39.8299 39.8844 44.9262 36.6844 51.199C33.0469 58.3302 33.0469 67.6727 33.0469 86.3434V110.922C33.0469 119.076 33.0469 123.156 33.969 126.993C34.7867 130.394 36.1384 133.644 37.9684 136.626C40.0316 139.99 42.9229 142.878 48.6914 148.64L217.66 317.419C223.432 323.183 226.303 326.05 228.367 329.418C230.197 332.398 231.567 335.658 232.384 339.062C233.297 342.859 233.297 346.89 233.297 354.881V513.428C233.297 542.004 233.297 556.303 239.321 564.907C244.584 572.422 252.701 577.436 261.782 578.776C272.182 580.309 284.985 573.925 310.573 561.147L337.273 547.812C347.99 542.461 353.333 539.774 357.248 535.78C360.709 532.25 363.359 528.013 364.971 523.342C366.797 518.058 366.797 512.061 366.797 500.093V355.127C366.797 346.973 366.797 342.899 367.718 339.062C368.536 335.658 369.887 332.398 371.72 329.418C373.769 326.074 376.632 323.213 382.326 317.526L382.443 317.419L551.411 148.64C557.181 142.874 560.051 139.991 562.117 136.626C563.946 133.644 565.318 130.394 566.136 126.993C567.047 123.195 567.047 119.159 567.047 111.17V86.3434Z" stroke="black" stroke-width="66" stroke-linecap="round" stroke-linejoin="round"/>
</svg>
