<svg fill="none" height="480" viewBox="0 0 480 480" width="480" xmlns="http://www.w3.org/2000/svg" xmlns:xlink="http://www.w3.org/1999/xlink"><clipPath id="a"><rect height="480" rx="240" width="480"/></clipPath><g clip-path="url(#a)" clip-rule="evenodd" fill-rule="evenodd"><path d="m-118 0h912v36.9375h-912zm0 73.875h912v36.937h-912zm0 73.781h912v37.032h-912zm0 73.875h912v36.938h-912zm0 73.875h912v36.938h-912zm0 73.782h912v36.937h-912zm0 73.874h912v36.938h-912z" fill="#bd3d44"/><path d="m-118 36.9375h912v36.9375h-912zm0 73.8745h912v36.844h-912zm0 73.782h912v36.937h-912zm0 73.875h912v36.937h-912zm0 73.875h912v36.937h-912zm0 73.781h912v36.937h-912z" fill="#fff"/><path d="m-118 0h364.781v258.469h-364.781z" fill="#192f5d"/><path d="m-87.6255 11.0625 3.375 10.2188h10.6875l-8.625 6.2812 3.2813 10.3125-8.7188-6.375-8.625 6.2812 3.2813-10.2187-8.7188-6.2812h10.875zm60.8438 0 3.2812 10.2188h10.7813l-8.7188 6.2812 3.2813 10.3125-8.625-6.375-8.7188 6.2812 3.2813-10.2187-8.625-6.2812h10.6875zm60.75 0 3.375 10.2188h10.5937l-8.625 6.2812 3.2813 10.3125-8.7188-6.375-8.625 6.2812 3.2813-10.2187-8.7188-6.2812h10.7813zm60.8437 0 3.2813 10.2188h10.7817l-8.719 6.2812 3.375 10.3125-8.719-6.375-8.7187 6.2812 3.375-10.2187-8.7188-6.2812h10.6875zm60.75 0 3.375 10.2188h10.688l-8.625 6.2812 3.281 10.3125-8.719-6.375-8.625 6.2812 3.281-10.2187-8.625-6.2812h10.688zm60.844 0 3.281 10.2188h10.781l-8.718 6.2812 3.375 10.3125-8.719-6.375-8.719 6.2812 3.375-10.2187-8.719-6.2812h10.782zm-273.5627 25.875 3.2812 10.2187h10.7813l-8.7188 6.2813 3.1875 10.2188-8.4375-6.2813-8.7187 6.2813 3.0937-10.2188-8.4375-6.2813h10.6875zm60.74996 0 3.37501 10.2187h10.68753l-8.71879 6.2813 3.37499 10.2188-8.71874-6.2813-8.71874 6.2813 3.375-10.2188-8.71872-6.2813h10.781212zm60.84374 0 3.2813 10.2187h10.7812l-8.7187 6.2813 3.2812 10.2188-8.625-6.2813-8.7187 6.2813 3.2812-10.2188-8.625-6.2813h10.6875zm60.75 0 3.375 10.2187h10.688l-8.719 6.2813 3.375 10.2188-8.719-6.2813-8.625 6.2813 3.281-10.2188-8.718-6.2813h10.875zm60.844 0 3.281 10.2187h10.781l-8.718 6.2813 3.281 10.2188-8.625-6.2813-8.719 6.2813 3.281-10.2188-8.625-6.2813h10.688zm-273.6565 25.7813 3.375 10.4062h10.6875l-8.625 6.2812 3.2813 10.2188-8.7188-6.375-8.625 6.375 3.2813-10.3125-8.7188-6.2813h10.875zm60.8438 0 3.2812 10.3124h10.7813l-8.7188 6.2813 3.2813 10.2187-8.625-6.375-8.7188 6.375 3.2813-10.3124-8.625-6.2813h10.6875zm60.75 0 3.375 10.3124h10.5937l-8.625 6.2813 3.2813 10.2187-8.7188-6.375-8.625 6.375 3.2813-10.3124-8.7188-6.2813h10.7813zm60.8437 0 3.2813 10.3124h10.7817l-8.719 6.2813 3.375 10.2187-8.719-6.375-8.7187 6.375 3.375-10.3124-8.7188-6.2813h10.6875zm60.75 0 3.375 10.3124h10.688l-8.625 6.2813 3.281 10.2187-8.719-6.375-8.625 6.375 3.281-10.3124-8.625-6.2813h10.688zm60.844 0 3.281 10.3124h10.781l-8.718 6.2813 3.375 10.2187-8.719-6.375-8.719 6.375 3.375-10.3124-8.719-6.2813h10.782zm-273.5627 25.875 3.2812 10.2187h10.7813l-8.7188 6.2815 3.2813 10.312-8.625-6.375-8.7188 6.281 3.2813-10.218-8.625-6.2815h10.6875zm60.74996 0 3.37501 10.2187h10.68753l-8.71879 6.2815 3.37499 10.312-8.71874-6.375-8.71874 6.281 3.375-10.218-8.71872-6.2815h10.781212zm60.84374 0 3.2813 10.2187h10.7812l-8.7187 6.2815 3.2812 10.312-8.625-6.375-8.7187 6.281 3.2812-10.218-8.625-6.2815h10.6875zm60.75 0 3.375 10.2187h10.688l-8.625 6.2815 3.281 10.312-8.719-6.375-8.625 6.281 3.281-10.218-8.718-6.2815h10.875zm60.844 0 3.281 10.2187h10.781l-8.718 6.2815 3.281 10.312-8.625-6.375-8.719 6.281 3.281-10.218-8.625-6.2815h10.688zm-273.6565 25.8752 3.375 10.219h10.6875l-8.625 6.281 3.2813 10.312-8.7188-6.375-8.625 6.282 3.2813-10.219-8.7188-6.281h10.875zm60.8438 0 3.2812 10.219h10.7813l-8.7188 6.281 3.2813 10.219-8.625-6.282-8.7188 6.282 3.2813-10.219-8.625-6.281h10.6875zm60.75 0 3.375 10.219h10.5937l-8.625 6.281 3.2813 10.312-8.7188-6.375-8.625 6.282 3.2813-10.219-8.7188-6.281h10.7813zm60.8437 0 3.2813 10.219h10.7817l-8.719 6.281 3.375 10.312-8.719-6.375-8.7187 6.282 3.375-10.219-8.7188-6.281h10.6875zm60.75 0 3.375 10.219h10.688l-8.625 6.281 3.281 10.312-8.719-6.375-8.625 6.282 3.281-10.219-8.625-6.281h10.688zm60.844 0 3.281 10.219h10.781l-8.718 6.281 3.375 10.312-8.719-6.375-8.719 6.282 3.375-10.219-8.719-6.281h10.782zm-273.5627 25.875 3.2812 10.218h10.7813l-8.7188 6.282 3.2813 10.218-8.625-6.375-8.7188 6.375 3.2813-10.312-8.625-6.281h10.6875zm60.74996 0 3.37501 10.218h10.68753l-8.71879 6.282 3.37499 10.218-8.71874-6.375-8.71874 6.375 3.375-10.312-8.71872-6.281h10.781212zm60.84374 0 3.2813 10.218h10.7812l-8.7187 6.282 3.2812 10.218-8.625-6.375-8.7187 6.375 3.2812-10.312-8.625-6.281h10.6875zm60.75 0 3.375 10.218h10.688l-8.625 6.282 3.281 10.218-8.719-6.375-8.625 6.375 3.281-10.312-8.718-6.281h10.875zm60.844 0 3.281 10.218h10.781l-8.718 6.282 3.281 10.218-8.625-6.375-8.719 6.375 3.281-10.312-8.625-6.281h10.688zm-273.6565 25.781 3.375 10.313h10.6875l-8.625 6.281 3.2813 10.125-8.7188-6.282-8.625 6.282 3.2813-10.219-8.7188-6.281h10.875zm60.8438 0 3.2812 10.313h10.7813l-8.7188 6.281 3.375 10.125-8.7187-6.282-8.7188 6.282 3.375-10.219-8.7187-6.281h10.6875zm60.75 0 3.375 10.313h10.5937l-8.625 6.281 3.2813 10.125-8.7188-6.282-8.625 6.282 3.2813-10.219-8.7188-6.281h10.7813zm60.8437 0 3.2813 10.313h10.7817l-8.719 6.281 3.375 10.125-8.719-6.282-8.7187 6.282 3.375-10.219-8.7188-6.281h10.6875zm60.75 0 3.375 10.313h10.688l-8.625 6.281 3.281 10.125-8.719-6.282-8.625 6.282 3.281-10.219-8.625-6.281h10.688zm60.844 0 3.281 10.313h10.781l-8.718 6.281 3.375 10.125-8.719-6.282-8.719 6.282 3.375-10.219-8.719-6.281h10.782zm-273.5627 25.875 3.2812 10.219h10.7813l-8.7188 6.281 3.2813 10.312-8.625-6.374-8.7188 6.281 3.2813-10.219-8.625-6.281h10.6875zm60.74996 0 3.37501 10.219h10.68753l-8.71879 6.281 3.37499 10.312-8.71874-6.374-8.71874 6.281 3.375-10.219-8.71872-6.281h10.781212zm60.84374 0 3.2813 10.219h10.7812l-8.7187 6.281 3.2812 10.312-8.625-6.374-8.7187 6.281 3.2812-10.219-8.625-6.281h10.6875zm60.75 0 3.375 10.219h10.688l-8.625 6.281 3.281 10.312-8.719-6.374-8.625 6.281 3.281-10.219-8.718-6.281h10.875zm60.844 0 3.281 10.219h10.781l-8.718 6.281 3.281 10.312-8.625-6.374-8.719 6.281 3.281-10.219-8.625-6.281h10.688zm-273.6565 25.875 3.375 10.219h10.6875l-8.625 6.281 3.2813 10.219-8.7188-6.282-8.625 6.282 3.2813-10.313-8.7188-6.281h10.875zm60.8438 0 3.2812 10.219h10.7813l-8.7188 6.281 3.375 10.219-8.7187-6.282-8.7188 6.282 3.375-10.313-8.7187-6.281h10.6875zm60.75 0 3.375 10.219h10.5937l-8.4375 6.281 3.2813 10.219-8.7188-6.282-8.625 6.282 3.2813-10.313-8.7188-6.281h10.7813zm60.8437 0 3.2813 10.219h10.7817l-8.719 6.281 3.375 10.219-8.719-6.282-8.7187 6.282 3.375-10.313-8.7188-6.281h10.6875zm60.75 0 3.375 10.219h10.688l-8.625 6.281 3.281 10.219-8.719-6.282-8.625 6.282 3.281-10.313-8.625-6.281h10.688zm60.844 0 3.281 10.219h10.781l-8.718 6.281 3.375 10.219-8.719-6.282-8.719 6.282 3.375-10.313-8.719-6.281h10.782z" fill="#fff"/></g></svg>