<svg width="800" height="800" viewBox="0 0 800 800" fill="none" xmlns="http://www.w3.org/2000/svg">
<path d="M600.335 333.667H433.668" stroke="black" stroke-width="60" stroke-linecap="round"/>
<path d="M333.668 100.333H550.335C565.815 100.333 573.555 100.333 580.055 101.189C624.928 107.097 660.238 142.407 666.145 187.281C667.001 193.779 667.001 201.519 667.001 217" stroke="black" stroke-width="60"/>
<path d="M67 231.992C67 202.574 67 187.865 69.3117 175.613C79.488 121.677 121.677 79.488 175.613 69.3117C187.865 67 202.574 67 231.992 67C244.881 67 251.325 67 257.519 67.5793C284.222 70.0763 309.551 80.568 330.198 97.6837C334.987 101.654 339.543 106.211 348.657 115.325L367 133.667C394.193 160.859 407.79 174.456 424.07 183.514C433.013 188.49 442.503 192.42 452.347 195.226C470.263 200.333 489.49 200.333 527.947 200.333H540.403C628.15 200.333 672.02 200.333 700.54 225.982C703.163 228.341 705.66 230.838 708.017 233.461C733.667 261.978 733.667 305.851 733.667 393.597V467C733.667 592.707 733.667 655.563 694.613 694.613C655.563 733.667 592.707 733.667 467 733.667H333.667C207.959 733.667 145.105 733.667 106.052 694.613C67 655.563 67 592.707 67 467V231.992Z" stroke="black" stroke-width="60"/>
</svg>
