<svg width="542" height="162" viewBox="0 0 542 162" fill="none" xmlns="http://www.w3.org/2000/svg">
<path d="M521.926 161.552H20.0741C8.83259 161.552 0 152.719 0 141.478V21.0331C0 9.79158 8.83259 0.958984 20.0741 0.958984H521.926C533.167 0.958984 542 9.79158 542 21.0331V141.478C542 152.719 533.167 161.552 521.926 161.552Z" fill="black"/>
<path d="M521.926 4.17084C531.16 4.17084 538.788 11.799 538.788 21.0331V141.478C538.788 150.712 531.16 158.34 521.926 158.34H20.0741C10.84 158.34 3.21185 150.712 3.21185 141.478V21.0331C3.21185 11.799 10.84 4.17084 20.0741 4.17084H521.926ZM521.926 0.958984H20.0741C8.83259 0.958984 0 10.1931 0 21.0331V141.478C0 152.719 8.83259 161.552 20.0741 161.552H521.926C533.167 161.552 542 152.719 542 141.478V21.0331C542 10.1931 533.167 0.958984 521.926 0.958984Z" fill="#A6A6A6"/>
<path d="M190.304 41.911C190.304 45.1228 189.501 47.9332 187.493 49.9406C185.084 52.3495 182.274 53.554 178.661 53.554C175.047 53.554 172.237 52.3495 169.828 49.9406C167.419 47.5317 166.215 44.7214 166.215 41.108C166.215 37.4947 167.419 34.6843 169.828 32.2754C172.237 29.8666 175.047 28.6621 178.661 28.6621C180.267 28.6621 181.873 29.0636 183.479 29.8666C185.084 30.6695 186.289 31.4725 187.092 32.6769L185.084 34.6843C183.479 32.6769 181.471 31.874 178.661 31.874C176.252 31.874 173.843 32.6769 172.237 34.6843C170.23 36.2903 169.427 38.6991 169.427 41.5095C169.427 44.3199 170.23 46.7288 172.237 48.3347C174.244 49.9406 176.252 51.1451 178.661 51.1451C181.471 51.1451 183.479 50.3421 185.486 48.3347C186.69 47.1303 187.493 45.5243 187.493 43.5169H178.661V40.3051H190.304V41.911ZM208.772 31.874H197.932V39.5021H207.969V42.3125H197.932V49.9406H208.772V53.1525H194.72V29.0636H208.772V31.874ZM222.021 53.1525H218.809V31.874H211.984V29.0636H228.846V31.874H222.021V53.1525ZM240.489 53.1525V29.0636H243.701V53.1525H240.489ZM257.351 53.1525H254.139V31.874H247.314V29.0636H263.775V31.874H256.95V53.1525H257.351ZM295.492 49.9406C293.083 52.3495 290.273 53.554 286.659 53.554C283.046 53.554 280.236 52.3495 277.827 49.9406C275.418 47.5317 274.213 44.7214 274.213 41.108C274.213 37.4947 275.418 34.6843 277.827 32.2754C280.236 29.8666 283.046 28.6621 286.659 28.6621C290.273 28.6621 293.083 29.8666 295.492 32.2754C297.901 34.6843 299.105 37.4947 299.105 41.108C299.105 44.7214 297.901 47.5317 295.492 49.9406ZM280.236 47.9332C281.842 49.5391 284.25 50.7436 286.659 50.7436C289.068 50.7436 291.477 49.9406 293.083 47.9332C294.689 46.3273 295.893 43.9184 295.893 41.108C295.893 38.2977 295.09 35.8888 293.083 34.2829C291.477 32.6769 289.068 31.4725 286.659 31.4725C284.25 31.4725 281.842 32.2754 280.236 34.2829C278.63 35.8888 277.425 38.2977 277.425 41.108C277.425 43.9184 278.228 46.3273 280.236 47.9332ZM303.521 53.1525V29.0636H307.135L318.778 47.9332V29.0636H321.99V53.1525H318.778L306.332 33.4799V53.1525H303.521Z" fill="white" stroke="white" stroke-width="0.2" stroke-miterlimit="10"/>
<path d="M273.408 88.4829C263.772 88.4829 256.144 95.7096 256.144 105.747C256.144 115.382 263.772 123.01 273.408 123.01C283.043 123.01 290.672 115.784 290.672 105.747C290.672 95.3081 283.043 88.4829 273.408 88.4829ZM273.408 115.784C268.189 115.784 263.772 111.367 263.772 105.345C263.772 99.3229 268.189 94.9066 273.408 94.9066C278.627 94.9066 283.043 98.9214 283.043 105.345C283.043 111.367 278.627 115.784 273.408 115.784ZM236.07 88.4829C226.434 88.4829 218.806 95.7096 218.806 105.747C218.806 115.382 226.434 123.01 236.07 123.01C245.706 123.01 253.334 115.784 253.334 105.747C253.334 95.3081 245.706 88.4829 236.07 88.4829ZM236.07 115.784C230.851 115.784 226.434 111.367 226.434 105.345C226.434 99.3229 230.851 94.9066 236.07 94.9066C241.289 94.9066 245.706 98.9214 245.706 105.345C245.706 111.367 241.289 115.784 236.07 115.784ZM191.506 93.7022V100.929H208.769C208.368 104.944 206.762 108.156 204.754 110.163C202.346 112.572 198.331 115.382 191.506 115.382C180.666 115.382 172.636 106.951 172.636 96.1111C172.636 85.2711 181.067 76.8399 191.506 76.8399C197.126 76.8399 201.543 79.2488 204.754 82.0592L209.974 76.8399C205.557 72.8251 199.937 69.6133 191.907 69.6133C177.454 69.6133 165.008 81.6577 165.008 96.1111C165.008 110.564 177.454 122.609 191.907 122.609C199.937 122.609 205.557 120.2 210.375 114.981C215.193 110.163 216.799 103.338 216.799 98.1185C216.799 96.5125 216.799 94.9066 216.397 93.7022H191.506V93.7022ZM373.778 99.3229C372.172 95.3081 368.157 88.4829 359.325 88.4829C350.492 88.4829 343.266 95.3081 343.266 105.747C343.266 115.382 350.492 123.01 360.128 123.01C367.756 123.01 372.574 118.193 374.18 115.382L368.559 111.367C366.552 114.178 364.143 116.185 360.128 116.185C356.113 116.185 353.704 114.579 351.697 110.966L374.581 101.33L373.778 99.3229V99.3229ZM350.492 104.944C350.492 98.5199 355.712 94.9066 359.325 94.9066C362.135 94.9066 364.946 96.5125 365.749 98.5199L350.492 104.944ZM331.623 121.404H339.251V71.2192H331.623V121.404ZM319.578 92.0962C317.571 90.0888 314.359 88.0814 310.344 88.0814C301.913 88.0814 293.883 95.7096 293.883 105.345C293.883 114.981 301.512 122.207 310.344 122.207C314.359 122.207 317.571 120.2 319.177 118.193H319.578V120.601C319.578 127.025 315.965 130.638 310.344 130.638C305.928 130.638 302.716 127.427 301.913 124.616L295.489 127.427C297.497 131.843 302.314 137.464 310.746 137.464C319.578 137.464 326.805 132.244 326.805 119.798V89.2859H319.578V92.0962V92.0962ZM310.746 115.784C305.526 115.784 301.11 111.367 301.11 105.345C301.11 99.3229 305.526 94.9066 310.746 94.9066C315.965 94.9066 319.98 99.3229 319.98 105.345C319.98 111.367 315.965 115.784 310.746 115.784ZM408.707 71.2192H390.64V121.404H398.269V102.535H408.707C417.138 102.535 425.168 96.5125 425.168 86.877C425.168 77.2414 417.138 71.2192 408.707 71.2192V71.2192ZM409.109 95.3081H398.269V78.0444H409.109C414.729 78.0444 417.941 82.8622 417.941 86.4755C417.54 90.8918 414.328 95.3081 409.109 95.3081ZM455.279 88.0814C449.658 88.0814 444.037 90.4903 442.03 95.7096L448.855 98.5199C450.461 95.7096 452.87 94.9066 455.68 94.9066C459.695 94.9066 463.309 97.3155 463.71 101.33V101.732C462.506 100.929 459.294 99.7244 456.082 99.7244C448.855 99.7244 441.629 103.739 441.629 110.966C441.629 117.791 447.651 122.207 454.074 122.207C459.294 122.207 461.703 119.798 463.71 117.39H464.112V121.404H471.338V102.133C470.535 93.3007 463.71 88.0814 455.279 88.0814V88.0814ZM454.476 115.784C452.067 115.784 448.454 114.579 448.454 111.367C448.454 107.353 452.87 106.148 456.483 106.148C459.695 106.148 461.301 106.951 463.309 107.754C462.506 112.572 458.491 115.784 454.476 115.784V115.784ZM496.632 89.2859L488.2 110.966H487.799L478.966 89.2859H470.937L484.186 119.798L476.557 136.661H484.186L504.661 89.2859H496.632V89.2859ZM429.183 121.404H436.811V71.2192H429.183V121.404Z" fill="white"/>
<path d="M85.2546 78.9238L41.7891 124.614C41.7914 124.624 41.7932 124.633 41.7956 124.642C43.1292 129.603 47.7035 133.256 53.1345 133.256C55.3043 133.256 57.3424 132.675 59.0909 131.655L59.2292 131.573L108.148 103.608L85.2546 78.9238Z" fill="#EA4335"/>
<path d="M129.226 71.1425L129.184 71.1153L108.062 58.9863L84.2656 79.9601L108.146 103.607L129.156 91.6004C132.84 89.6297 135.34 85.7846 135.34 81.3511C135.341 76.9446 132.874 73.1203 129.226 71.1425Z" fill="#FBBC04"/>
<path d="M41.785 37.8945C41.5244 38.8494 41.3867 39.851 41.3867 40.8869V121.624C41.4293 122.783 41.5232 123.664 41.7874 124.613L86.7479 80.0931L41.785 37.8945Z" fill="#4285F4"/>
<path d="M85.5739 81.2559L108.063 58.9869L59.2004 30.9187C57.4242 29.8651 55.3512 29.2559 53.1336 29.2559C47.7025 29.2559 43.1212 32.9165 41.7881 37.8837C41.7869 37.8873 41.7863 37.8914 41.7852 37.8955L85.5739 81.2559Z" fill="#34A853"/>
</svg>
