<svg width="542" height="163" viewBox="0 0 542 163" fill="none" xmlns="http://www.w3.org/2000/svg">
<g clip-path="url(#clip0_3873_202)">
<path d="M521.926 161.203H20.0741C9.03333 161.203 0 152.181 0 141.154V20.8579C0 9.8308 9.03333 0.808594 20.0741 0.808594H521.926C532.967 0.808594 542 9.8308 542 20.8579V141.154C542 152.181 532.967 161.203 521.926 161.203Z" fill="black"/>
<path d="M521.926 4.01649C531.24 4.01649 538.788 11.555 538.788 20.8579V141.154C538.788 150.457 531.24 157.996 521.926 157.996H20.0741C10.7597 157.996 3.21185 150.457 3.21185 141.154V20.8579C3.21185 11.555 10.7597 4.01649 20.0741 4.01649H521.926ZM521.926 0.808594H20.0741C9.03333 0.808594 0 9.8308 0 20.8579V141.154C0 152.181 9.03333 161.203 20.0741 161.203H521.926C532.967 161.203 542 152.181 542 141.154V20.8579C542 9.8308 532.967 0.808594 521.926 0.808594Z" fill="#A6A6A6"/>
<path d="M167.733 116.773H164.883V109.074H167.733V116.773Z" fill="white" stroke="white" stroke-width="0.2" stroke-miterlimit="10"/>
<path d="M172.832 133.454V109.074H180.3C184.033 109.074 187.044 110.197 189.293 112.483C191.541 114.728 192.665 117.695 192.665 121.304C192.665 124.913 191.541 127.84 189.293 130.126C187.044 132.372 184.033 133.534 180.3 133.534H172.832V133.454ZM175.964 130.487H180.3C183.11 130.487 185.358 129.685 187.004 128.081C188.65 126.477 189.494 124.191 189.494 121.304C189.494 118.417 188.65 116.172 187.004 114.528C185.358 112.884 183.11 112.082 180.3 112.082H175.964V130.487Z" fill="white" stroke="white" stroke-width="0.2" stroke-miterlimit="10"/>
<path d="M211.335 112.082H200.214V119.821H210.251V122.748H200.214V130.487H211.335V133.494H197.082V109.074H211.335V112.082Z" fill="white" stroke="white" stroke-width="0.2" stroke-miterlimit="10"/>
<path d="M215.789 133.454V109.074H219.603L231.487 128.041H231.607L231.487 123.349V109.074H234.619V133.494H231.326L218.921 113.605H218.8L218.921 118.297V133.494L215.789 133.454Z" fill="white" stroke="white" stroke-width="0.2" stroke-miterlimit="10"/>
<path d="M245.02 133.454L254.213 109.074H257.746L266.94 133.494H263.448L261.079 126.878H250.801L248.392 133.494L245.02 133.454ZM251.925 123.911H260.035L256.06 112.884H255.94L251.925 123.911Z" fill="white" stroke="white" stroke-width="0.2" stroke-miterlimit="10"/>
<path d="M270.191 133.454V109.074H273.323V130.487H283.922V133.494L270.191 133.454Z" fill="white" stroke="white" stroke-width="0.2" stroke-miterlimit="10"/>
<path d="M287.293 133.454V109.074H290.425V133.494L287.293 133.454Z" fill="white" stroke="white" stroke-width="0.2" stroke-miterlimit="10"/>
<path d="M296.047 133.454V109.074H299.861L311.745 128.041H311.865L311.745 123.349V109.074H314.876V133.494H311.624L299.219 113.605H299.098L299.219 118.297V133.494L296.047 133.454Z" fill="white" stroke="white" stroke-width="0.2" stroke-miterlimit="10"/>
<path d="M273.447 49.6118C263.811 49.6118 256.183 56.8385 256.183 66.8755C256.183 76.5111 263.811 84.1392 273.447 84.1392C283.082 84.1392 290.711 76.9126 290.711 66.8755C290.711 56.437 283.082 49.6118 273.447 49.6118ZM273.447 76.9126C268.228 76.9126 263.811 72.4963 263.811 66.474C263.811 60.4518 268.228 56.0355 273.447 56.0355C278.666 56.0355 283.082 60.0503 283.082 66.474C283.082 72.4963 278.666 76.9126 273.447 76.9126ZM236.109 49.6118C226.474 49.6118 218.845 56.8385 218.845 66.8755C218.845 76.5111 226.474 84.1392 236.109 84.1392C245.745 84.1392 253.373 76.9126 253.373 66.8755C253.373 56.437 245.745 49.6118 236.109 49.6118ZM236.109 76.9126C230.89 76.9126 226.474 72.4963 226.474 66.474C226.474 60.4518 230.89 56.0355 236.109 56.0355C241.328 56.0355 245.745 60.0503 245.745 66.474C245.745 72.4963 241.328 76.9126 236.109 76.9126ZM191.545 54.8311V62.0577H208.808C208.407 66.0726 206.801 69.2844 204.794 71.2918C202.385 73.7007 198.37 76.5111 191.545 76.5111C180.705 76.5111 172.675 68.08 172.675 57.24C172.675 46.4 181.106 37.9689 191.545 37.9689C197.165 37.9689 201.582 40.3777 204.794 43.1881L210.013 37.9689C205.597 33.954 199.976 30.7422 191.946 30.7422C177.493 30.7422 165.047 42.7866 165.047 57.24C165.047 71.6933 177.493 83.7377 191.946 83.7377C199.976 83.7377 205.597 81.3289 210.414 76.1096C215.232 71.2918 216.838 64.4666 216.838 59.2474C216.838 57.6414 216.838 56.0355 216.437 54.8311H191.545V54.8311ZM373.817 60.4518C372.211 56.437 368.197 49.6118 359.364 49.6118C350.531 49.6118 343.305 56.437 343.305 66.8755C343.305 76.5111 350.531 84.1392 360.167 84.1392C367.795 84.1392 372.613 79.3214 374.219 76.5111L368.598 72.4963C366.591 75.3066 364.182 77.314 360.167 77.314C356.152 77.314 353.743 75.7081 351.736 72.0948L374.62 62.4592L373.817 60.4518V60.4518ZM350.531 66.0726C350.531 59.6489 355.751 56.0355 359.364 56.0355C362.174 56.0355 364.985 57.6414 365.788 59.6488L350.531 66.0726ZM331.662 82.5333H339.29V32.3481H331.662V82.5333ZM319.617 53.2252C317.61 51.2177 314.398 49.2103 310.383 49.2103C301.952 49.2103 293.922 56.8385 293.922 66.474C293.922 76.1096 301.551 83.3363 310.383 83.3363C314.398 83.3363 317.61 81.3289 319.216 79.3214H319.617V81.7303C319.617 88.154 316.004 91.7674 310.383 91.7674C305.967 91.7674 302.755 88.5555 301.952 85.7451L295.528 88.5555C297.536 92.9718 302.354 98.5926 310.785 98.5926C319.617 98.5926 326.844 93.3733 326.844 80.9274V50.4148H319.617V53.2252V53.2252ZM310.785 76.9126C305.565 76.9126 301.149 72.4963 301.149 66.474C301.149 60.4518 305.565 56.0355 310.785 56.0355C316.004 56.0355 320.019 60.4518 320.019 66.474C320.019 72.4963 316.004 76.9126 310.785 76.9126ZM408.746 32.3481H390.679V82.5333H398.308V63.6637H408.746C417.177 63.6637 425.207 57.6414 425.207 48.0059C425.207 38.3703 417.177 32.3481 408.746 32.3481V32.3481ZM409.148 56.437H398.308V39.1733H409.148C414.768 39.1733 417.98 43.9911 417.98 47.6044C417.579 52.0207 414.367 56.437 409.148 56.437ZM455.318 49.2103C449.697 49.2103 444.077 51.6192 442.069 56.8385L448.894 59.6488C450.5 56.8385 452.909 56.0355 455.719 56.0355C459.734 56.0355 463.348 58.4444 463.749 62.4592V62.8607C462.545 62.0577 459.333 60.8533 456.121 60.8533C448.894 60.8533 441.668 64.8681 441.668 72.0948C441.668 78.92 447.69 83.3363 454.114 83.3363C459.333 83.3363 461.742 80.9274 463.749 78.5185H464.151V82.5333H471.377V63.2622C470.574 54.4296 463.749 49.2103 455.318 49.2103V49.2103ZM454.515 76.9126C452.106 76.9126 448.493 75.7081 448.493 72.4963C448.493 68.4814 452.909 67.277 456.522 67.277C459.734 67.277 461.34 68.08 463.348 68.8829C462.545 73.7007 458.53 76.9126 454.515 76.9126V76.9126ZM496.671 50.4148L488.239 72.0948H487.838L479.005 50.4148H470.976L484.225 80.9274L476.597 97.7896H484.225L504.7 50.4148H496.671V50.4148ZM429.222 82.5333H436.85V32.3481H429.222V82.5333Z" fill="white"/>
<path d="M84.9928 78.6738L41.5273 124.364C41.5297 124.374 41.5315 124.383 41.5338 124.392C42.8675 129.353 47.4418 133.006 52.8728 133.006C55.0426 133.006 57.0807 132.425 58.8292 131.405L58.9674 131.323L107.886 103.358L84.9928 78.6738Z" fill="#EA4335"/>
<path d="M128.964 70.8925L128.922 70.8653L107.8 58.7363L84.0039 79.7101L107.884 103.357L128.895 91.3504C132.578 89.3797 135.079 85.5346 135.079 81.1011C135.079 76.6946 132.613 72.8703 128.964 70.8925Z" fill="#FBBC04"/>
<path d="M41.5233 37.6445C41.2627 38.5994 41.125 39.601 41.125 40.6369V121.374C41.1675 122.533 41.2615 123.414 41.5256 124.363L86.4861 79.8431L41.5233 37.6445Z" fill="#4285F4"/>
<path d="M85.3122 81.0059L107.801 58.7369L58.9387 30.6687C57.1624 29.6151 55.0895 29.0059 52.8718 29.0059C47.4408 29.0059 42.8595 32.6665 41.5264 37.6337C41.5252 37.6373 41.5246 37.6414 41.5234 37.6455L85.3122 81.0059Z" fill="#34A853"/>
</g>
<defs>
<clipPath id="clip0_3873_202">
<rect width="542" height="161.558" fill="white" transform="translate(0 0.808594)"/>
</clipPath>
</defs>
</svg>
