<svg width="590" height="589" viewBox="0 0 590 589" fill="none" xmlns="http://www.w3.org/2000/svg">
<circle cx="294.887" cy="294.4" r="294.4" fill="white"/>
<path d="M360.42 228.359C360.42 192.043 330.861 162.446 294.591 162.446C258.322 162.446 228.763 192.043 228.763 228.359C228.763 231.846 231.651 234.738 235.133 234.738C238.616 234.738 241.504 231.846 241.504 228.359C241.504 199.017 265.287 175.203 294.591 175.203C323.896 175.203 347.679 199.017 347.679 228.359C347.679 257.702 323.896 281.516 294.591 281.516C291.109 281.516 288.221 284.407 288.221 287.894V338.924C288.221 342.411 291.109 345.303 294.591 345.303C298.074 345.303 300.962 342.411 300.962 338.924V293.933C334.258 290.701 360.42 262.549 360.42 228.359Z" fill="#212121" stroke="#212121" stroke-width="26"/>
<rect x="116.222" y="341.875" width="358.4" height="84.48" rx="42.24" fill="#212121"/>
</svg>
