<svg width="800" height="800" viewBox="0 0 800 800" fill="none" xmlns="http://www.w3.org/2000/svg">
<path d="M599.999 266.667C599.999 303.486 570.153 333.333 533.333 333.333C496.513 333.333 466.666 303.486 466.666 266.667C466.666 229.848 496.513 200 533.333 200C570.153 200 599.999 229.848 599.999 266.667Z" fill="black"/>
<path fill-rule="evenodd" clip-rule="evenodd" d="M398.086 41.6666H401.913C478.859 41.6663 539.159 41.666 586.209 47.9916C634.366 54.4663 672.369 67.9776 702.196 97.8046C732.023 127.632 745.533 165.632 752.009 213.79C758.333 260.84 758.333 321.141 758.333 398.087V401.03C758.333 464.657 758.333 516.743 754.876 559.15C751.406 601.77 744.289 637.38 728.363 666.957C721.336 680.003 712.706 691.687 702.196 702.197C672.369 732.023 634.366 745.533 586.209 752.01C539.159 758.333 478.859 758.333 401.913 758.333H398.086C321.14 758.333 260.839 758.333 213.79 752.01C165.632 745.533 127.631 732.023 97.804 702.197C71.3614 675.753 57.706 642.84 50.4444 602.013C43.311 561.91 42.006 512.01 41.735 450.05C41.666 434.29 41.666 417.62 41.666 400.033V398.087C41.6657 321.141 41.6654 260.84 47.991 213.79C54.4657 165.632 67.977 127.632 97.804 97.8046C127.631 67.9776 165.632 54.4663 213.79 47.9916C260.839 41.666 321.141 41.6663 398.086 41.6666ZM220.452 97.5456C177.838 103.275 152.148 114.171 133.159 133.16C114.171 152.148 103.274 177.839 97.545 220.453C91.719 263.785 91.666 320.726 91.666 400C91.666 409.683 91.666 419.05 91.6774 428.117L125.049 398.917C155.424 372.34 201.205 373.863 229.745 402.403L372.736 545.393C395.643 568.303 431.703 571.427 458.209 552.797L468.149 545.813C506.289 519.007 557.893 522.113 592.546 553.3L686.893 638.21C696.389 618.267 702.029 592.06 705.043 555.09C708.313 514.94 708.333 464.863 708.333 400C708.333 320.726 708.279 263.785 702.453 220.453C696.726 177.839 685.829 152.148 666.839 133.16C647.849 114.171 622.159 103.275 579.546 97.5456C536.213 91.7196 479.273 91.6666 399.999 91.6666C320.725 91.6666 263.785 91.7196 220.452 97.5456Z" fill="black" stroke="black" stroke-width="15"/>
</svg>
