<svg width="701" height="700" viewBox="0 0 701 700" fill="none" xmlns="http://www.w3.org/2000/svg">
<path d="M550.355 0H150.355C67.5123 0 0.35498 67.1573 0.35498 150V550C0.35498 632.843 67.5123 700 150.355 700H550.355C633.198 700 700.355 632.843 700.355 550V150C700.355 67.1573 633.198 0 550.355 0Z" fill="url(#paint0_radial_5447_20)"/>
<path d="M550.355 0H150.355C67.5123 0 0.35498 67.1573 0.35498 150V550C0.35498 632.843 67.5123 700 150.355 700H550.355C633.198 700 700.355 632.843 700.355 550V150C700.355 67.1573 633.198 0 550.355 0Z" fill="url(#paint1_radial_5447_20)"/>
<path d="M550.355 0H150.355C67.5123 0 0.35498 67.1573 0.35498 150V550C0.35498 632.843 67.5123 700 150.355 700H550.355C633.198 700 700.355 632.843 700.355 550V150C700.355 67.1573 633.198 0 550.355 0Z" fill="url(#paint2_radial_5447_20)"/>
<path d="M525.354 212.5C525.354 233.21 508.564 250 487.854 250C467.144 250 450.354 233.21 450.354 212.5C450.354 191.789 467.144 175 487.854 175C508.564 175 525.354 191.789 525.354 212.5Z" fill="white"/>
<path fill-rule="evenodd" clip-rule="evenodd" d="M350.355 475C419.39 475 475.355 419.035 475.355 350C475.355 280.965 419.39 225 350.355 225C281.32 225 225.355 280.965 225.355 350C225.355 419.035 281.32 475 350.355 475ZM350.355 425C391.777 425 425.355 391.423 425.355 350C425.355 308.577 391.777 275 350.355 275C308.932 275 275.355 308.577 275.355 350C275.355 391.423 308.932 425 350.355 425Z" fill="white"/>
<path fill-rule="evenodd" clip-rule="evenodd" d="M100.355 340C100.355 255.993 100.355 213.988 116.704 181.902C131.085 153.677 154.032 130.73 182.256 116.349C214.342 100 256.347 100 340.355 100H360.355C444.362 100 486.367 100 518.452 116.349C546.677 130.73 569.625 153.677 584.005 181.902C600.355 213.988 600.355 255.993 600.355 340V360C600.355 444.007 600.355 486.012 584.005 518.097C569.625 546.322 546.677 569.27 518.452 583.65C486.367 600 444.362 600 360.355 600H340.355C256.347 600 214.342 600 182.256 583.65C154.032 569.27 131.085 546.322 116.704 518.097C100.355 486.012 100.355 444.007 100.355 360V340ZM340.355 150H360.355C403.185 150 432.297 150.039 454.802 151.877C476.725 153.668 487.935 156.915 495.755 160.899C514.57 170.487 529.867 185.785 539.455 204.6C543.44 212.42 546.687 223.63 548.477 245.552C550.315 268.057 550.355 297.17 550.355 340V360C550.355 402.83 550.315 431.943 548.477 454.448C546.687 476.37 543.44 487.58 539.455 495.4C529.867 514.215 514.57 529.512 495.755 539.1C487.935 543.085 476.725 546.333 454.802 548.123C432.297 549.96 403.185 550 360.355 550H340.355C297.525 550 268.412 549.96 245.907 548.123C223.985 546.333 212.775 543.085 204.955 539.1C186.14 529.512 170.842 514.215 161.254 495.4C157.27 487.58 154.023 476.37 152.232 454.448C150.394 431.943 150.355 402.83 150.355 360V340C150.355 297.17 150.394 268.057 152.232 245.552C154.023 223.63 157.27 212.42 161.254 204.6C170.842 185.785 186.14 170.487 204.955 160.899C212.775 156.915 223.985 153.668 245.907 151.877C268.412 150.039 297.525 150 340.355 150Z" fill="white"/>
<defs>
<radialGradient id="paint0_radial_5447_20" cx="0" cy="0" r="1" gradientUnits="userSpaceOnUse" gradientTransform="translate(250.355 525) rotate(-55.3758) scale(637.99)">
<stop stop-color="#B13589"/>
<stop offset="0.79309" stop-color="#C62F94"/>
<stop offset="1" stop-color="#8A3AC8"/>
</radialGradient>
<radialGradient id="paint1_radial_5447_20" cx="0" cy="0" r="1" gradientUnits="userSpaceOnUse" gradientTransform="translate(225.355 725) rotate(-65.1363) scale(564.855)">
<stop stop-color="#E0E8B7"/>
<stop offset="0.444662" stop-color="#FB8A2E"/>
<stop offset="0.71474" stop-color="#E2425C"/>
<stop offset="1" stop-color="#E2425C" stop-opacity="0"/>
</radialGradient>
<radialGradient id="paint2_radial_5447_20" cx="0" cy="0" r="1" gradientUnits="userSpaceOnUse" gradientTransform="translate(-37.145 25) rotate(-8.1301) scale(972.273 207.959)">
<stop offset="0.156701" stop-color="#406ADC"/>
<stop offset="0.467799" stop-color="#6A45BE"/>
<stop offset="1" stop-color="#6A45BE" stop-opacity="0"/>
</radialGradient>
</defs>
</svg>
