<svg width="429" height="32" viewBox="0 0 429 32" fill="none" xmlns="http://www.w3.org/2000/svg">
<path fill-rule="evenodd" clip-rule="evenodd" d="M372.237 26.4246H371.837C371.837 26.4246 371.737 26.4246 371.737 26.5246V26.6246H371.537V26.4246C371.537 26.3246 371.637 26.2246 371.737 26.2246H373.037C373.137 26.2246 373.237 26.2246 373.137 26.4246V26.6246H372.937V26.5246V26.4246H372.437L372.037 28.2246H371.837L372.237 26.4246Z" fill="#C2C2C2"/>
<path d="M373.238 27.0246L373.038 26.9246V26.7246H373.238C373.338 26.7246 373.438 26.7246 373.338 26.9246L373.238 27.6246C373.238 27.8246 373.238 28.0246 373.438 28.0246C373.738 28.0246 374.038 27.7246 374.038 27.4246L374.138 26.7246H374.438L374.138 27.9246V28.0246H374.238V28.2246H374.138C374.038 28.2246 373.938 28.1246 374.038 28.0246V27.9246C374.038 27.8246 374.038 27.8246 374.038 27.8246C373.938 28.0246 373.738 28.2246 373.438 28.2246C373.038 28.2246 372.938 28.0246 373.038 27.7246L373.238 27.0246ZM373.638 26.2246H373.838L373.738 26.5246H373.638V26.2246ZM374.038 26.2246H374.238V26.5246H374.038V26.2246Z" fill="#C2C2C2"/>
<path fill-rule="evenodd" clip-rule="evenodd" d="M374.837 27.0246L374.737 26.9246V26.7246H374.937C375.037 26.7246 375.137 26.7246 375.037 26.9246V27.0246C375.037 27.1246 375.037 27.1246 375.037 27.1246C375.137 26.9246 375.337 26.7246 375.537 26.7246H375.637V26.9246C375.637 26.9246 375.637 26.9246 375.537 26.9246C375.337 26.9246 375.137 27.1246 375.037 27.3246C375.037 27.4246 374.937 27.5246 374.937 27.6246L374.837 28.2246H374.637L374.837 27.0246Z" fill="#C2C2C2"/>
<path fill-rule="evenodd" clip-rule="evenodd" d="M375.937 26.5246C375.937 26.4246 375.937 26.4246 375.937 26.5246L375.737 26.4246V26.2246H375.937C376.037 26.2246 376.137 26.2246 376.037 26.4246L375.937 27.3246H376.037C376.137 27.3246 376.137 27.3246 376.237 27.2246L376.737 26.7246H376.937L376.437 27.3246C376.337 27.4246 376.337 27.4246 376.337 27.4246C376.337 27.4246 376.337 27.4246 376.437 27.5246L376.537 28.0246C376.537 28.0246 376.537 28.1246 376.637 28.1246H376.737V28.3246H376.537C376.437 28.3246 376.337 28.3246 376.337 28.2246L376.137 27.5246C376.137 27.4246 376.037 27.4246 376.037 27.4246H375.937L375.737 28.2246H375.537L375.937 26.5246Z" fill="#C2C2C2"/>
<path d="M377.537 27.0246C377.537 27.0246 377.538 26.9246 377.438 26.9246H377.137L377.238 26.7246H377.738C378.038 26.7246 378.138 26.7246 378.038 26.9246L377.438 27.9246C377.438 27.9246 377.437 28.0246 377.537 28.0246H377.838L377.738 28.2246H377.338C377.038 28.2246 376.937 28.1246 377.037 28.0246L377.537 27.0246ZM377.938 26.2246H378.338L378.238 26.5246H377.838L377.938 26.2246Z" fill="#C2C2C2"/>
<path fill-rule="evenodd" clip-rule="evenodd" d="M377.638 28.6246C377.738 28.6246 377.838 28.5246 377.938 28.4246L378.038 28.2246L377.838 27.0246C377.838 27.0246 377.838 26.9246 377.738 26.9246V26.7246H377.838C377.938 26.7246 378.038 26.7246 378.038 26.8246L378.238 27.7246C378.238 27.8246 378.238 27.9246 378.238 27.9246C378.238 27.9246 378.238 27.8246 378.338 27.7246L378.838 26.8246C378.938 26.7246 378.938 26.7246 379.038 26.7246H379.138V26.9246C379.138 26.9246 379.038 26.9246 379.038 27.0246L378.038 28.5246C377.938 28.6246 377.738 28.7246 377.538 28.7246C377.338 28.7246 377.338 28.6246 377.338 28.6246L377.438 28.5246C377.438 28.5246 377.438 28.6246 377.638 28.6246Z" fill="#C2C2C2"/>
<path d="M379.937 26.7246C380.337 26.7246 380.537 27.0246 380.437 27.4246V27.5246H379.337C379.237 27.8246 379.437 28.0246 379.737 28.0246C380.037 28.0246 380.237 27.8246 380.237 27.8246L380.337 27.9246C380.337 27.9246 380.137 28.1246 379.737 28.1246C379.337 28.1246 379.037 27.8246 379.137 27.4246C379.237 27.0246 379.537 26.7246 379.937 26.7246ZM380.237 27.3246C380.337 27.0246 380.137 26.9246 379.937 26.9246C379.737 26.9246 379.437 27.1246 379.337 27.3246H380.237Z" fill="#C2C2C2"/>
<path fill-rule="evenodd" clip-rule="evenodd" d="M380.936 26.2246H381.136L380.936 26.7246H380.736L380.936 26.2246Z" fill="#C2C2C2"/>
<path fill-rule="evenodd" clip-rule="evenodd" d="M381.337 27.0246L381.237 26.9246V26.7246H381.437C381.537 26.7246 381.637 26.7246 381.537 26.9246V27.0246C381.537 27.1246 381.537 27.1246 381.537 27.1246C381.637 27.0246 381.837 26.7246 382.137 26.7246C382.537 26.7246 382.537 26.9246 382.537 27.2246L382.437 27.9246V28.0246H382.537V28.2246H382.337C382.237 28.2246 382.137 28.1246 382.237 28.0246L382.337 27.3246C382.337 27.1246 382.437 26.9246 382.137 26.9246C381.937 26.9246 381.637 27.1246 381.537 27.3246C381.537 27.4246 381.537 27.4246 381.437 27.5246L381.337 28.2246H381.137L381.337 27.0246Z" fill="#C2C2C2"/>
<path d="M383.336 27.0246C383.336 27.0246 383.336 26.9246 383.236 26.9246H382.936L383.036 26.7246H383.536C383.836 26.7246 383.936 26.7246 383.836 26.9246L383.336 27.9246C383.336 27.9246 383.336 28.0246 383.436 28.0246H383.736L383.636 28.2246H383.136C382.836 28.2246 382.736 28.1246 382.836 28.0246L383.336 27.0246ZM383.736 26.2246H384.136L384.036 26.4246H383.636L383.736 26.2246Z" fill="#C2C2C2"/>
<path fill-rule="evenodd" clip-rule="evenodd" d="M383.738 27.0246L383.538 26.9246V26.7246H383.738C383.838 26.7246 383.937 26.7246 383.837 26.9246V27.0246C383.837 27.1246 383.837 27.1246 383.837 27.1246C383.937 27.0246 384.238 26.7246 384.538 26.7246C384.838 26.7246 384.937 26.9246 384.837 27.2246L384.738 27.9246V28.0246H384.837V28.2246H384.637C384.537 28.2246 384.438 28.1246 384.538 28.0246L384.637 27.3246C384.637 27.1246 384.738 26.9246 384.438 26.9246C384.237 26.9246 383.937 27.1246 383.837 27.3246C383.837 27.4246 383.838 27.4246 383.738 27.5246L383.538 28.2246H383.438L383.738 27.0246Z" fill="#C2C2C2"/>
<path d="M387.237 26.2242C387.837 26.2242 388.137 26.6242 388.037 27.2242C387.937 27.8242 387.337 28.2242 386.837 28.2242C386.237 28.2242 385.937 27.8242 386.037 27.2242C386.137 26.6242 386.637 26.2242 387.237 26.2242ZM386.737 28.0242C387.137 28.0242 387.637 27.6242 387.737 27.2242C387.837 26.7242 387.537 26.4242 387.137 26.4242C386.737 26.4242 386.237 26.8242 386.137 27.2242C386.037 27.7242 386.337 28.0242 386.737 28.0242ZM387.037 25.8242H387.237L387.137 26.0242H386.937L387.037 25.8242ZM387.437 25.8242H387.637L387.537 26.0242H387.337L387.437 25.8242Z" fill="#C2C2C2"/>
<path d="M388.937 26.725C389.237 26.725 389.337 27.025 389.337 27.025C389.337 27.025 389.337 27.025 389.337 26.925L389.437 26.425V26.325H389.337V26.125H389.537C389.637 26.125 389.737 26.125 389.637 26.325L389.337 27.825V27.925H389.437V28.125H389.237C389.137 28.125 389.037 28.025 389.137 27.925C389.137 27.825 389.137 27.825 389.137 27.825C389.137 27.825 388.937 28.125 388.637 28.125C388.237 28.125 388.137 27.825 388.237 27.425C388.237 27.025 388.537 26.725 388.937 26.725ZM389.237 27.525C389.337 27.225 389.237 26.925 388.937 26.925C388.737 26.925 388.437 27.125 388.337 27.525C388.237 27.825 388.437 28.125 388.637 28.125C388.837 28.025 389.137 27.925 389.237 27.525Z" fill="#C2C2C2"/>
<path d="M390.638 26.7246C391.038 26.7246 391.138 27.0246 391.138 27.3246V27.4246H390.038C389.938 27.7246 390.138 28.0246 390.438 28.0246C390.738 28.0246 390.938 27.8246 390.938 27.8246L391.038 27.9246C391.038 27.9246 390.738 28.1246 390.438 28.1246C390.038 28.1246 389.738 27.8246 389.838 27.4246C389.838 27.0246 390.238 26.7246 390.638 26.7246ZM390.838 27.3246C390.938 27.0246 390.738 26.9246 390.538 26.9246C390.338 26.9246 390.038 27.0246 389.938 27.3246H390.838Z" fill="#C2C2C2"/>
<path fill-rule="evenodd" clip-rule="evenodd" d="M391.436 27.0246C391.436 26.9246 391.536 27.0246 391.436 27.0246L391.236 26.9246V26.7246H391.436C391.536 26.7246 391.636 26.7246 391.536 26.9246V27.0246C391.536 27.1246 391.536 27.1246 391.536 27.1246C391.736 26.9246 392.036 26.7246 392.236 26.7246C392.536 26.7246 392.636 26.8246 392.636 27.0246C392.736 26.9246 392.936 26.7246 393.236 26.7246C393.536 26.7246 393.636 26.9246 393.536 27.2246L393.436 27.9246V28.0246H393.536V28.2246H393.336C393.236 28.2246 393.136 28.1246 393.236 28.0246L393.436 27.3246C393.536 27.1246 393.436 26.9246 393.236 26.9246C393.036 26.9246 392.836 27.1246 392.736 27.3246C392.736 27.4246 392.636 27.4246 392.636 27.5246L392.536 28.2246H392.336L392.536 27.4246C392.536 27.2246 392.636 27.0246 392.336 27.0246C392.136 27.0246 391.936 27.2246 391.836 27.4246C391.836 27.5246 391.736 27.5246 391.736 27.6246L391.436 28.2246H391.236L391.436 27.0246Z" fill="#C2C2C2"/>
<path d="M394.737 26.7246C395.137 26.7246 395.237 27.0246 395.237 27.3246V27.4246H394.137C394.037 27.7246 394.237 28.0246 394.537 28.0246C394.837 28.0246 395.037 27.8246 395.037 27.8246L395.137 27.9246C395.137 27.9246 394.837 28.1246 394.537 28.1246C394.137 28.1246 393.837 27.8246 393.937 27.4246C393.937 27.0246 394.337 26.7246 394.737 26.7246ZM394.937 27.3246C395.037 27.0246 394.837 26.9246 394.637 26.9246C394.437 26.9246 394.137 27.0246 394.037 27.3246H394.937Z" fill="#C2C2C2"/>
<path fill-rule="evenodd" clip-rule="evenodd" d="M396.636 27.325L396.336 26.425C396.336 26.325 396.236 26.325 396.236 26.325V26.125H396.336C396.436 26.125 396.536 26.125 396.536 26.325L396.736 26.825C396.736 26.925 396.836 27.025 396.836 27.025C396.836 27.025 396.936 26.925 397.036 26.825L397.436 26.425C397.536 26.325 397.636 26.225 397.736 26.225H397.836V26.425C397.736 26.425 397.736 26.425 397.736 26.525L397.036 27.425L396.836 28.225H396.436L396.636 27.325Z" fill="#C2C2C2"/>
<path d="M398.337 26.7246C398.737 26.7246 399.037 27.0246 398.937 27.4246C398.837 27.8246 398.437 28.1246 398.037 28.1246C397.637 28.1246 397.337 27.8246 397.437 27.4246C397.537 27.1246 397.937 26.7246 398.337 26.7246ZM398.037 28.0246C398.337 28.0246 398.637 27.8246 398.737 27.4246C398.837 27.1246 398.637 26.9246 398.337 26.9246C398.037 26.9246 397.737 27.1246 397.637 27.4246C397.537 27.8246 397.737 28.0246 398.037 28.0246ZM398.137 26.2246H398.337L398.237 26.4246H398.037L398.137 26.2246ZM398.537 26.2246H398.737V26.4246H398.537V26.2246Z" fill="#C2C2C2"/>
<path fill-rule="evenodd" clip-rule="evenodd" d="M399.337 27.0246L399.137 26.9246V26.7246H399.437C399.537 26.7246 399.637 26.7246 399.537 26.9246V27.0246C399.537 27.1246 399.537 27.1246 399.537 27.1246C399.637 27.0246 399.837 26.7246 400.137 26.7246C400.437 26.7246 400.537 26.9246 400.437 27.2246L400.337 27.9246C400.337 27.9246 400.337 28.0246 400.437 28.0246H400.537V28.2246H400.337C400.237 28.2246 400.137 28.1246 400.237 28.0246L400.337 27.3246C400.337 27.1246 400.437 26.9246 400.137 26.9246C399.937 26.9246 399.637 27.1246 399.537 27.3246C399.437 27.4246 399.437 27.4246 399.437 27.5246L399.337 28.2246H399.137L399.337 27.0246Z" fill="#C2C2C2"/>
<path fill-rule="evenodd" clip-rule="evenodd" d="M401.036 26.9242H400.836V26.7242H401.036L401.136 26.3242H401.336L401.236 26.7242H401.636V26.9242H401.236L401.036 27.6242C400.936 27.9242 401.136 28.0242 401.236 28.0242H401.336V28.2242C401.336 28.2242 401.336 28.2242 401.236 28.2242C401.036 28.2242 400.736 28.1242 400.836 27.7242L401.036 26.9242Z" fill="#C2C2C2"/>
<path d="M402.536 26.7246C402.936 26.7246 403.036 27.0246 403.036 27.3246V27.4246H401.936C401.836 27.7246 402.036 28.0246 402.336 28.0246C402.636 28.0246 402.836 27.8246 402.836 27.8246L402.936 27.9246C402.936 27.9246 402.736 28.1246 402.336 28.1246C401.936 28.1246 401.636 27.8246 401.736 27.4246C401.736 27.0246 402.136 26.7246 402.536 26.7246ZM402.836 27.3246C402.936 27.0246 402.736 26.9246 402.536 26.9246C402.336 26.9246 402.036 27.0246 401.936 27.3246H402.836Z" fill="#C2C2C2"/>
<path fill-rule="evenodd" clip-rule="evenodd" d="M403.436 27.0246L403.236 26.9246V26.7246H403.436C403.536 26.7246 403.636 26.7246 403.536 26.9246V27.0246C403.536 27.1246 403.536 27.1246 403.536 27.1246C403.736 26.9246 403.936 26.7246 404.136 26.7246C404.436 26.7246 404.536 26.8246 404.536 27.0246C404.636 26.9246 404.936 26.7246 405.136 26.7246C405.436 26.7246 405.536 26.9246 405.436 27.3246L405.336 28.0246V28.1246H405.436V28.3246H405.236C405.136 28.3246 405.036 28.2246 405.136 28.1246L405.236 27.4246C405.336 27.2246 405.236 27.0246 405.036 27.0246C404.836 27.0246 404.636 27.2246 404.536 27.4246C404.536 27.5246 404.436 27.5246 404.436 27.6246L404.336 28.3246H404.136L404.336 27.5246C404.336 27.3246 404.436 27.1246 404.136 27.1246C403.936 27.1246 403.736 27.3246 403.636 27.5246C403.636 27.6246 403.636 27.6246 403.536 27.7246L403.436 28.4246H403.236L403.436 27.0246Z" fill="#C2C2C2"/>
<path d="M406.336 27.0246C406.336 27.0246 406.336 26.9246 406.236 26.9246H405.936L406.036 26.7246H406.536C406.836 26.7246 406.936 26.7246 406.836 26.9246L406.336 27.9246C406.336 27.9246 406.336 28.0246 406.436 28.0246H406.736L406.636 28.2246H406.136C405.836 28.2246 405.736 28.1246 405.836 28.0246L406.336 27.0246ZM406.736 26.2246H407.136L407.036 26.4246H406.636L406.736 26.2246Z" fill="#C2C2C2"/>
<path fill-rule="evenodd" clip-rule="evenodd" d="M423.999 7.40039C423.199 7.40039 422.299 7.90039 421.899 8.70039L418.099 17.4004L416.699 8.70039C416.499 7.90039 415.999 7.40039 415.099 7.40039H410.199L414.399 21.9004C414.499 22.2004 414.499 22.5004 414.399 22.8004C414.199 24.0004 413.099 25.0004 411.899 25.0004H409.199C408.499 25.0004 408.099 25.4004 407.799 26.4004L407.199 30.0004H411.999C414.499 30.0004 417.399 28.8004 419.399 25.3004L428.999 7.40039H423.999Z" fill="#C2C2C2"/>
<path fill-rule="evenodd" clip-rule="evenodd" d="M376.8 3C378.2 3 378.9 3.6 378.7 5L378.3 7.3H381.6L380.9 11.4H377.5L376.6 16.5C376.3 18.3 378 18.5 379.1 18.5C379.3 18.5 379.5 18.5 379.6 18.5L378.8 23C378.6 23 378.3 23.1 377.8 23.1C375.3 23.1 370.6 22.4 371.5 17.2L372.5 11.4H370L370.7 7.3H373.1L373.9 3H376.8Z" fill="#C2C2C2"/>
<path fill-rule="evenodd" clip-rule="evenodd" d="M404.591 7.49805L403.691 12.298C404.691 12.798 405.491 13.898 405.491 15.098C405.491 16.698 404.291 18.098 402.691 18.298L401.891 23.098C401.991 23.098 402.191 23.098 402.391 23.098C406.791 23.098 410.391 19.498 410.391 15.098C410.291 11.598 407.891 8.49805 404.591 7.49805Z" fill="#00ADBB"/>
<path fill-rule="evenodd" clip-rule="evenodd" d="M400.791 17.9973C399.791 17.4973 398.991 16.3973 398.991 15.1973C398.991 13.5973 400.191 12.1973 401.791 11.9973L402.691 7.19727C402.591 7.19727 402.391 7.19727 402.191 7.19727C397.791 7.19727 394.191 10.7973 394.191 15.1973C394.191 18.7973 396.591 21.7973 399.891 22.7973L400.791 17.9973Z" fill="#00ADBB"/>
<path fill-rule="evenodd" clip-rule="evenodd" d="M383.499 7.39922H386.299C387.699 7.39922 388.399 7.99922 388.199 9.39922L387.899 11.0992C388.999 8.99922 391.199 7.19922 393.599 7.19922C393.899 7.19922 394.199 7.29922 394.199 7.29922L393.299 12.4992C393.299 12.4992 392.899 12.3992 392.199 12.3992C390.899 12.3992 388.799 12.7992 387.599 15.0992C387.299 15.6992 387.099 16.3992 386.999 17.1992L385.999 22.9992H380.699L383.499 7.39922Z" fill="#C2C2C2"/>
<path d="M429 23.7C429 24.2 428.8 24.6 428.5 24.9C428.2 25.2 427.8 25.4 427.3 25.4C426.8 25.4 426.4 25.2 426.1 24.9C425.8 24.6 425.6 24.2 425.6 23.7C425.6 23.2 425.8 22.8 426.1 22.5C426.4 22.2 426.8 22 427.3 22C427.8 22 428.2 22.2 428.5 22.5C428.8 22.8 429 23.2 429 23.7ZM428.7 23.7C428.7 23.3 428.6 23 428.3 22.7C428 22.4 427.7 22.3 427.3 22.3C426.9 22.3 426.6 22.4 426.3 22.7C426 23 425.9 23.3 425.9 23.7C425.9 24.1 426 24.4 426.3 24.7C426.6 25 426.9 25.1 427.3 25.1C427.7 25.1 428 25 428.3 24.7C428.6 24.4 428.7 24.1 428.7 23.7ZM428 24.6H427.7L427.3 23.8H427V24.6H426.7V22.8H427.3C427.5 22.8 427.6 22.9 427.7 23C427.8 23.1 427.9 23.2 427.9 23.4C427.9 23.7 427.8 23.8 427.5 23.9L428 24.6ZM427.7 23.3C427.7 23.2 427.7 23.1 427.6 23.1C427.5 23.1 427.4 23 427.3 23H427V23.6H427.3C427.4 23.6 427.5 23.6 427.6 23.5C427.6 23.5 427.7 23.4 427.7 23.3Z" fill="#C2C2C2"/>
<path fill-rule="evenodd" clip-rule="evenodd" d="M337.2 0H294V30H337.2V20.1" fill="url(#paint0_radial_4554_150)"/>
<path d="M297.9 10.5992L297.1 8.59922L296.3 10.5992H297.9ZM316 9.79922C315.8 9.89922 315.6 9.89922 315.4 9.89922H314V8.79922H315.5C315.7 8.79922 315.9 8.79922 316.1 8.89922C316.3 8.99922 316.4 9.09922 316.4 9.29922C316.3 9.49922 316.2 9.69922 316 9.79922ZM326.4 10.5992L325.6 8.59922L324.8 10.5992H326.4ZM307 12.7992H305.8V8.79922L304.1 12.7992H303L301.3 8.79922V12.7992H298.8L298.4 11.6992H295.9L295.4 12.7992H294.1L296.2 7.69922H298L300 12.4992V7.69922H302L303.6 11.0992L305 7.69922H307V12.7992ZM311.9 12.7992H307.9V7.69922H311.9V8.79922H309.1V9.69922H311.8V10.6992H309.1V11.6992H311.9V12.7992ZM317.6 9.09922C317.6 9.89922 317.1 10.2992 316.8 10.3992C317.1 10.4992 317.3 10.6992 317.4 10.7992C317.6 11.0992 317.6 11.2992 317.6 11.6992V12.6992H316.4V12.0992C316.4 11.7992 316.4 11.3992 316.2 11.0992C316 10.8992 315.8 10.8992 315.3 10.8992H314V12.6992H312.8V7.69922H315.6C316.2 7.69922 316.7 7.69922 317.1 7.89922C317.4 8.19922 317.6 8.49922 317.6 9.09922ZM319.5 12.7992H318.3V7.69922H319.5V12.7992ZM333.7 12.7992H332L329.7 8.99922V12.7992H327.3L326.8 11.6992H324.3L323.8 12.7992H322.4C321.8 12.7992 321.1 12.6992 320.7 12.1992C320.3 11.7992 320.1 11.1992 320.1 10.2992C320.1 9.49922 320.2 8.89922 320.7 8.29922C321.1 7.89922 321.7 7.69922 322.5 7.69922H323.7V8.79922H322.6C322.2 8.79922 321.9 8.89922 321.7 9.09922C321.5 9.29922 321.4 9.69922 321.4 10.1992C321.4 10.6992 321.5 11.0992 321.7 11.3992C321.9 11.5992 322.2 11.6992 322.5 11.6992H323L324.7 7.69922H326.5L328.5 12.4992V7.69922H330.3L332.4 11.1992V7.69922H333.6L333.7 12.7992ZM294.1 13.7992H296.1L296.6 12.6992H297.6L298.1 13.7992H302.1V12.8992L302.5 13.7992H304.6L305 12.8992V13.7992H315V11.9992H315.2C315.3 11.9992 315.4 11.9992 315.4 12.1992V13.7992H320.6V13.3992C321 13.5992 321.7 13.7992 322.5 13.7992H324.7L325.2 12.6992H326.2L326.7 13.7992H330.9V12.6992L331.5 13.7992H334.9V6.69922H331.6V7.59922L331 6.69922H327.6V7.59922L327.2 6.79922H322.6C321.8 6.79922 321.1 6.89922 320.6 7.19922V6.69922H317.4V7.09922C317 6.79922 316.5 6.69922 316 6.69922H304.3L303.6 8.49922L302.8 6.69922H299.1V7.59922L298.7 6.69922H295.6L294.1 10.0992V13.7992Z" fill="white"/>
<path d="M336.8 17.4984H334.6C334.4 17.4984 334.2 17.4984 334.1 17.5984C334 17.6984 333.9 17.7984 333.9 17.9984C333.9 18.1984 334 18.2984 334.2 18.3984C334.3 18.3984 334.5 18.4984 334.7 18.4984H335.3C336 18.4984 336.4 18.5984 336.7 18.8984L336.8 18.9984V17.4984ZM336.8 20.8984C336.5 21.2984 335.9 21.4984 335.2 21.4984H332.9V20.3984H335.2C335.4 20.3984 335.6 20.3984 335.7 20.2984C335.8 20.1984 335.8 20.0984 335.8 19.9984C335.8 19.8984 335.7 19.6984 335.7 19.6984C335.6 19.5984 335.5 19.5984 335.3 19.5984C334.2 19.5984 332.8 19.5984 332.8 17.9984C332.8 17.2984 333.3 16.4984 334.5 16.4984H336.9V15.4984H334.7C334 15.4984 333.5 15.6984 333.2 15.8984V15.3984H329.9C329.4 15.3984 328.8 15.4984 328.5 15.7984V15.3984H322.6V15.7984C322.1 15.4984 321.3 15.3984 321 15.3984H317V15.7984C316.6 15.3984 315.8 15.3984 315.3 15.3984H311L310 16.4984L309.1 15.3984H302.6V22.4984H308.9L309.9 21.3984L310.9 22.4984H314.8V20.7984H315.2C315.7 20.7984 316.3 20.7984 316.9 20.5984V22.4984H320.1V20.6984H320.3C320.5 20.6984 320.5 20.6984 320.5 20.8984V22.4984H330.3C330.9 22.4984 331.6 22.2984 331.9 21.9984V22.4984H335C335.6 22.4984 336.3 22.3984 336.8 22.1984V20.8984ZM332 18.7984C332.2 18.9984 332.4 19.3984 332.4 19.8984C332.4 20.9984 331.7 21.4984 330.5 21.4984H328.2V20.3984H330.5C330.7 20.3984 330.9 20.3984 331 20.2984C331.1 20.1984 331.1 20.0984 331.1 19.9984C331.1 19.8984 331 19.6984 331 19.6984C330.9 19.5984 330.8 19.5984 330.6 19.5984C329.5 19.5984 328.1 19.5984 328.1 17.9984C328.1 17.2984 328.6 16.4984 329.8 16.4984H332.2V17.5984H330C329.8 17.5984 329.6 17.5984 329.5 17.6984C329.4 17.7984 329.3 17.8984 329.3 18.0984C329.3 18.2984 329.4 18.3984 329.6 18.4984C329.7 18.4984 329.9 18.5984 330.1 18.5984H330.7C331.3 18.3984 331.7 18.5984 332 18.7984ZM321.2 18.4984C321 18.5984 320.8 18.5984 320.6 18.5984H319.1V17.4984H320.6C320.8 17.4984 321 17.4984 321.2 17.5984C321.4 17.6984 321.4 17.7984 321.4 18.0984C321.4 18.2984 321.3 18.3984 321.2 18.4984ZM321.9 19.0984C322.2 19.1984 322.4 19.3984 322.5 19.4984C322.7 19.6984 322.7 19.9984 322.7 20.3984V21.3984H321.5V20.7984C321.5 20.4984 321.5 19.9984 321.3 19.7984C321.1 19.5984 320.9 19.5984 320.4 19.5984H319.1V21.3984H317.9V16.3984H320.7C321.3 16.3984 321.7 16.3984 322.1 16.5984C322.5 16.7984 322.7 17.0984 322.7 17.6984C322.7 18.5984 322.2 18.9984 321.9 19.0984ZM323.4 16.3984H327.4V17.3984H324.6V18.2984H327.3V19.2984H324.6V20.2984H327.4V21.3984H323.4V16.3984ZM315.3 18.7984H313.8V17.4984H315.4C315.8 17.4984 316.1 17.6984 316.1 18.0984C316.1 18.4984 315.8 18.7984 315.3 18.7984ZM312.6 20.9984L310.8 18.8984L312.6 16.8984V20.9984ZM307.8 20.3984H304.9V19.3984H307.5V18.3984H304.9V17.4984H307.9L309.2 18.9984L307.8 20.3984ZM317.3 18.0984C317.3 19.4984 316.3 19.7984 315.2 19.7984H313.7V21.4984H311.4L310 19.7984L308.5 21.4984H303.7V16.3984H308.5L310 18.0984L311.5 16.3984H315.3C316.3 16.3984 317.3 16.6984 317.3 18.0984Z" fill="white"/>
<path fill-rule="evenodd" clip-rule="evenodd" d="M230.7 4.4L226.6 23.7H221.6L225.7 4.4H230.7ZM251.8 16.8L254.4 9.5L255.9 16.8H251.8ZM257.4 23.7H262L258 4.4H253.7C252.7 4.4 251.9 5 251.6 5.8L244 23.7H249.3L250.3 20.8H256.7L257.4 23.7ZM244.3 17.4C244.3 12.3 237.2 12 237.3 9.7C237.3 9 238 8.3 239.4 8.1C240.1 8 242.1 7.9 244.3 9L245.2 4.9C244 4.4 242.5 4 240.5 4C235.5 4 232.1 6.6 232 10.4C232 13.2 234.5 14.7 236.4 15.7C238.4 16.6 239 17.3 239 18.1C239 19.4 237.4 20 236 20C233.5 20 232 19.3 230.9 18.8L230 23C231.2 23.5 233.3 24 235.6 24C240.8 24 244.3 21.4 244.3 17.4ZM223.5 4.4L215.4 23.7H210.1L206.1 8.3C205.9 7.3 205.6 7 204.9 6.6C203.7 5.9 201.7 5.3 200 5L200.1 4.4H208.6C209.7 4.4 210.7 5.1 210.9 6.4L213 17.6L218.2 4.4H223.5Z" fill="url(#paint1_linear_4554_150)"/>
<path d="M136.1 29.9V27.9C136.1 27.1 135.6 26.6 134.8 26.6C134.4 26.6 134 26.7 133.7 27.2C133.5 26.8 133.1 26.6 132.6 26.6C132.3 26.6 131.9 26.7 131.7 27.1V26.7H131V29.9H131.7V28.1C131.7 27.5 132 27.3 132.5 27.3C133 27.3 133.2 27.6 133.2 28.1V29.9H133.9V28.1C133.9 27.5 134.2 27.3 134.7 27.3C135.2 27.3 135.4 27.6 135.4 28.1V29.9H136.1ZM146.5 26.7H145.4V25.7H144.7V26.7H144V27.3H144.6V28.8C144.6 29.5 144.9 30 145.7 30C146 30 146.3 29.9 146.6 29.8L146.4 29.2C146.2 29.3 146 29.4 145.8 29.4C145.5 29.4 145.3 29.2 145.3 28.9V27.5H146.4V26.7H146.5ZM152.4 26.6C152 26.6 151.7 26.8 151.6 27.1V26.7H150.9V29.9H151.6V28.1C151.6 27.6 151.8 27.3 152.3 27.3C152.4 27.3 152.6 27.3 152.7 27.4L152.9 26.7C152.8 26.6 152.6 26.6 152.4 26.6ZM143.4 26.9C143.1 26.7 142.6 26.6 142.1 26.6C141.3 26.6 140.8 27 140.8 27.6C140.8 28.1 141.2 28.4 141.9 28.5H142.2C142.6 28.6 142.8 28.7 142.8 28.8C142.8 29 142.5 29.2 142.1 29.2C141.6 29.2 141.3 29 141 28.9L140.7 29.4C141.1 29.7 141.6 29.8 142.1 29.8C143 29.8 143.6 29.4 143.6 28.8C143.6 28.2 143.2 27.9 142.5 27.8H142.2C141.9 27.8 141.7 27.7 141.7 27.5C141.7 27.3 141.9 27.1 142.3 27.1C142.7 27.1 143.1 27.3 143.3 27.4L143.4 26.9ZM162.1 26.6C161.7 26.6 161.4 26.8 161.3 27.1V26.7H160.6V29.9H161.3V28.1C161.3 27.6 161.5 27.3 162 27.3C162.1 27.3 162.3 27.3 162.4 27.4L162.6 26.7C162.4 26.6 162.2 26.6 162.1 26.6ZM153.1 28.3C153.1 29.3 153.8 30 154.8 30C155.3 30 155.6 29.9 155.9 29.6L155.7 29C155.4 29.2 155.2 29.3 154.9 29.3C154.3 29.3 153.9 28.9 153.9 28.3C153.9 27.7 154.3 27.3 154.9 27.3C155.2 27.3 155.5 27.4 155.7 27.6L156 27C155.7 26.7 155.3 26.6 154.9 26.6C153.8 26.6 153.1 27.3 153.1 28.3ZM159.6 28.3V26.7H158.9V27.1C158.7 26.8 158.3 26.6 157.9 26.6C157 26.6 156.3 27.3 156.3 28.3C156.3 29.3 157 30 157.9 30C158.4 30 158.7 29.8 158.9 29.5V29.9H159.6V28.3ZM157.1 28.3C157.1 27.7 157.5 27.3 158.1 27.3C158.7 27.3 159.1 27.7 159.1 28.3C159.1 28.9 158.7 29.3 158.1 29.3C157.4 29.3 157.1 28.8 157.1 28.3ZM148.7 26.6C147.8 26.6 147.1 27.3 147.1 28.3C147.1 29.3 147.8 30 148.7 30C149.2 30 149.6 29.9 150 29.6L149.7 29C149.4 29.2 149.1 29.3 148.8 29.3C148.4 29.3 147.9 29.1 147.8 28.5H150.2V28.2C150.2 27.3 149.6 26.6 148.7 26.6ZM148.7 27.2C149.1 27.2 149.4 27.5 149.5 28H147.8C147.9 27.5 148.2 27.2 148.7 27.2ZM166.1 28.3V25.5H165.4V27.2C165.2 26.9 164.8 26.7 164.4 26.7C163.5 26.7 162.8 27.4 162.8 28.4C162.8 29.4 163.5 30.1 164.4 30.1C164.9 30.1 165.2 29.9 165.4 29.6V30H166.1V28.3ZM163.5 28.3C163.5 27.7 163.9 27.3 164.5 27.3C165.1 27.3 165.5 27.7 165.5 28.3C165.5 28.9 165.1 29.3 164.5 29.3C163.9 29.3 163.5 28.8 163.5 28.3ZM140 28.3V26.7H139.3V27.1C139.1 26.8 138.7 26.6 138.3 26.6C137.4 26.6 136.7 27.3 136.7 28.3C136.7 29.3 137.4 30 138.3 30C138.8 30 139.1 29.8 139.3 29.5V29.9H140V28.3ZM137.4 28.3C137.4 27.7 137.8 27.3 138.4 27.3C139 27.3 139.4 27.7 139.4 28.3C139.4 28.9 139 29.3 138.4 29.3C137.8 29.3 137.4 28.8 137.4 28.3Z" fill="#C2C2C2"/>
<path d="M153.699 2.5H143.199V21.2H153.699V2.5Z" fill="#FF5F00"/>
<path fill-rule="evenodd" clip-rule="evenodd" d="M143.9 11.9C143.9 8.1 145.7 4.7 148.5 2.5C146.4 1 143.8 0 141 0C134.4 0 129 5.3 129 11.9C129 18.5 134.4 23.8 141 23.8C143.8 23.8 146.4 22.8 148.4 21.3C145.7 19.1 143.9 15.7 143.9 11.9Z" fill="#EB001B"/>
<path fill-rule="evenodd" clip-rule="evenodd" d="M168 11.9C168 18.5 162.6 23.8 156 23.8C153.2 23.8 150.6 22.8 148.6 21.3C151.4 19.1 153.2 15.7 153.2 11.9C153.2 8.1 151.4 4.7 148.6 2.5C150.5 1 153.1 0 155.9 0C162.6 0 168 5.4 168 11.9Z" fill="#F79E1B"/>
<path fill-rule="evenodd" clip-rule="evenodd" d="M52.8027 4.71481C53.4015 4.4088 54.1402 4.63728 54.4525 5.22453L57.0761 10.1817L59.7 5.22453C60.0123 4.63728 60.751 4.4088 61.3504 4.71481C61.9501 5.02023 62.1827 5.74456 61.8707 6.33181L56.2913 16.8787C56.0813 17.2723 55.6802 17.5052 55.258 17.5223C55.0504 17.532 54.8377 17.4887 54.6403 17.3879C54.0409 17.0827 53.808 16.3584 54.1203 15.7709L55.6968 12.7845L52.2815 6.33181C51.9692 5.74456 52.2021 5.02082 52.8027 4.71481ZM82.1546 4.42024C83.477 4.42024 84.7207 4.92495 85.6559 5.8409C86.1346 6.30964 86.1346 7.06876 85.6559 7.53662C85.1781 8.00477 84.4038 8.00477 83.9257 7.53662C83.4524 7.07289 82.8238 6.81759 82.1546 6.81759C81.4848 6.81759 80.8562 7.07289 80.3825 7.53662C79.9095 8.00034 79.6486 8.61678 79.6486 9.27243C79.6486 9.92778 79.9095 10.5439 80.3825 11.0082C80.8562 11.4714 81.4848 11.727 82.1546 11.727C82.8238 11.727 83.4524 11.4714 83.9257 11.0082C84.4038 10.5398 85.1781 10.5398 85.6559 11.0082C86.1346 11.4764 86.1346 12.2349 85.6559 12.7031C84.7207 13.619 83.477 14.1237 82.1546 14.1237C80.8315 14.1237 79.5879 13.619 78.6526 12.7031C77.7174 11.7868 77.2023 10.5684 77.2023 9.27243C77.2023 7.97676 77.7174 6.75745 78.6526 5.8409C79.5879 4.92495 80.8315 4.42024 82.1546 4.42024ZM92.0468 4.42033C94.7772 4.42033 96.9991 6.59746 96.9991 9.27251C96.9991 11.9476 94.7772 14.1238 92.0468 14.1238C89.3167 14.1238 87.0948 11.9476 87.0948 9.27251C87.0948 6.59746 89.3167 4.42033 92.0468 4.42033ZM49.4692 4.5792C50.1444 4.5792 50.6923 5.11545 50.6923 5.77758V12.788C50.6923 13.4496 50.1444 13.9864 49.4692 13.9864C48.7936 13.9864 48.2457 13.4496 48.2457 12.788V5.77758C48.2457 5.11545 48.7936 4.5792 49.4692 4.5792ZM70.1046 4.57911C70.3959 4.56909 70.6917 4.66166 70.9324 4.85917C71.4503 5.28487 71.5174 6.04075 71.0835 6.5484L66.7658 11.5893H70.1464C70.822 11.5893 71.3699 12.1261 71.3699 12.7879C71.3699 13.4495 70.822 13.9863 70.1464 13.9863H64.1419C63.8639 13.9863 63.5849 13.8949 63.3553 13.7063C62.8378 13.2809 62.771 12.5247 63.2049 12.0179L67.5232 6.97587H64.6989C64.0239 6.97587 63.476 6.43962 63.476 5.77779C63.476 5.11565 64.0239 4.57911 64.6989 4.57911H70.1046ZM74.3754 4.5792C75.0512 4.5792 75.5986 5.11545 75.5986 5.77758V12.788C75.5986 13.4496 75.0512 13.9864 74.3754 13.9864C73.6999 13.9864 73.1519 13.4496 73.1519 12.788V5.77758C73.1519 5.11545 73.6999 4.5792 74.3754 4.5792ZM92.0468 6.81768C90.6656 6.81768 89.5412 7.91877 89.5412 9.27251C89.5412 10.6257 90.6656 11.7271 92.0468 11.7271C93.4282 11.7271 94.5521 10.6257 94.5521 9.27251C94.5521 7.91877 93.4282 6.81768 92.0468 6.81768ZM49.4692 0.761719C50.2151 0.761719 50.8208 1.35516 50.8208 2.08657C50.8208 2.81827 50.2151 3.41142 49.4692 3.41142C48.722 3.41142 48.1172 2.81827 48.1172 2.08657C48.1172 1.35516 48.722 0.761719 49.4692 0.761719ZM74.3754 0.761719C75.122 0.761719 75.7271 1.35516 75.7271 2.08657C75.7271 2.81827 75.122 3.41142 74.3754 3.41142C73.6286 3.41142 73.0235 2.81827 73.0235 2.08657C73.0235 1.35516 73.6286 0.761719 74.3754 0.761719Z" fill="#1E64FF"/>
<path fill-rule="evenodd" clip-rule="evenodd" d="M66.7077 21.2135C68.7774 21.2135 70.8231 22.9517 70.8231 25.464C70.8231 27.9762 68.7774 29.7135 66.7077 29.7135C64.6383 29.7135 62.5926 27.9762 62.5926 25.464C62.5926 22.9517 64.6383 21.2135 66.7077 21.2135ZM77.0442 21.1303C77.387 21.1303 77.6828 21.4163 77.6828 21.7613V29.0709C77.6828 29.4165 77.387 29.7019 77.0442 29.7019C76.7012 29.7019 76.4174 29.4165 76.4174 29.0709V28.428C76.3348 28.9637 75.6012 29.7134 74.4778 29.7134C73.1654 29.7134 71.5928 28.6897 71.5928 26.5357C71.5928 24.416 73.1771 23.3685 74.4778 23.3685C75.3529 23.3685 76.1099 23.8214 76.4174 24.5112V24.0352C76.4174 23.9996 76.4174 23.9518 76.4293 23.9162V21.7613C76.4293 21.4163 76.7134 21.1303 77.0442 21.1303ZM48.6256 23.4047C48.8855 23.4047 49.1102 23.6308 49.1102 23.9048V29.1898C49.1102 29.4761 48.8855 29.7019 48.6256 29.7019C48.3538 29.7019 48.1289 29.4761 48.1289 29.1898V23.9048C48.1289 23.6308 48.3538 23.4047 48.6256 23.4047ZM50.9197 21.1303C51.1802 21.1303 51.4048 21.357 51.4048 21.6187V29.1899C51.4048 29.4518 51.1802 29.6897 50.9197 29.6897C50.6475 29.6897 50.4232 29.4518 50.4232 29.1899V21.6187C50.4232 21.357 50.6475 21.1303 50.9197 21.1303ZM55.4968 23.3686C56.8448 23.3686 58.4644 24.4402 58.4644 26.3689C58.4644 26.7492 58.2397 26.9284 57.8381 26.9284L53.4864 26.9046C53.5925 28.2378 54.6097 28.8686 55.6266 28.8686C56.1704 28.8686 56.6079 28.7138 56.9979 28.4158C57.1756 28.2971 57.2821 28.2378 57.4119 28.2378C57.6371 28.2378 57.7785 28.3926 57.7785 28.6066C57.7785 28.7376 57.7196 28.8686 57.5183 29.0471C57.0455 29.4635 56.3483 29.6897 55.6027 29.6897C54.089 29.6897 52.4695 28.6897 52.4695 26.5472C52.4695 24.4046 54.1485 23.3686 55.4968 23.3686ZM81.8105 23.3685C83.1585 23.3685 84.7786 24.4401 84.7786 26.3328C84.7786 26.8211 84.5064 27.0117 83.998 27.0117L80.0366 26.9994C80.1664 28.1065 81.0299 28.6545 81.9759 28.6545C82.461 28.6545 82.7921 28.5355 83.1585 28.3094C83.3594 28.2022 83.4895 28.1188 83.6549 28.1188C83.9271 28.1188 84.0928 28.3094 84.0928 28.5711C84.0928 28.7261 84.0336 28.8926 83.7734 29.1064C83.3241 29.4761 82.6734 29.6896 81.9283 29.6896C80.3916 29.6896 78.7478 28.702 78.7478 26.5471C78.7478 24.4046 80.4625 23.3685 81.8105 23.3685ZM74.6791 24.4516C73.8159 24.4516 72.846 25.1308 72.846 26.5357C72.846 27.952 73.8159 28.6304 74.6791 28.6304C75.4833 28.6304 76.4766 28.0113 76.4766 26.5357C76.4766 25.0474 75.4833 24.4516 74.6791 24.4516ZM66.7077 22.4281C65.2649 22.4281 63.9289 23.6547 63.9289 25.464C63.9289 27.2732 65.2649 28.4875 66.7077 28.4875C68.1505 28.4875 69.4868 27.2732 69.4868 25.464C69.4868 23.6547 68.1622 22.4281 66.7077 22.4281ZM55.4968 24.2381C54.6214 24.2381 53.5925 24.8328 53.4864 26.166H57.5067C57.4005 24.8328 56.3833 24.2381 55.4968 24.2381ZM81.8105 24.4639C81.0299 24.4639 80.1431 24.964 80.0366 26.0949H83.5604C83.4543 24.964 82.603 24.4639 81.8105 24.4639ZM48.6256 21.0113C48.8855 21.0113 49.1221 21.2374 49.1221 21.5114C49.1221 21.7851 48.8855 22.0115 48.6256 22.0115C48.3538 22.0115 48.1172 21.7851 48.1172 21.5114C48.1172 21.2374 48.3538 21.0113 48.6256 21.0113ZM68.1622 19.0469C68.5405 19.0469 68.848 19.3564 68.848 19.7261C68.848 20.095 68.5405 20.4045 68.1622 20.4045C67.7838 20.4045 67.4764 20.095 67.4764 19.7261C67.4764 19.3564 67.7838 19.0469 68.1622 19.0469ZM65.2536 19.0469C65.6316 19.0469 65.9388 19.3564 65.9388 19.7261C65.9388 20.095 65.6316 20.4045 65.2536 20.4045C64.8749 20.4045 64.5675 20.095 64.5675 19.7261C64.5675 19.3564 64.8749 19.0469 65.2536 19.0469Z" fill="#C2C2C2"/>
<path fill-rule="evenodd" clip-rule="evenodd" d="M3.78071 0.761719C1.69275 0.761719 0 2.46703 0 4.57124V27.4284C0 29.5326 1.69275 31.2379 3.78071 31.2379H32.3232C33.733 31.2379 35.0255 30.4479 35.6764 29.1875L41.5811 17.7593C41.8607 17.2175 42.0028 16.6253 42.0079 16.0323V15.9673C42.0028 15.3744 41.8607 14.7821 41.5811 14.2407L35.6764 2.81209C35.0255 1.55207 33.733 0.761719 32.3232 0.761719H3.78071Z" fill="url(#paint2_linear_4554_150)"/>
<defs>
<radialGradient id="paint0_radial_4554_150" cx="0" cy="0" r="1" gradientUnits="userSpaceOnUse" gradientTransform="translate(299.323 5.25082) scale(40.3067 40.3067)">
<stop stop-color="#9DD5F6"/>
<stop offset="0.0711" stop-color="#98D3F5"/>
<stop offset="0.1575" stop-color="#89CEF3"/>
<stop offset="0.2516" stop-color="#70C6EF"/>
<stop offset="0.3514" stop-color="#4EBBEA"/>
<stop offset="0.4546" stop-color="#23ADE3"/>
<stop offset="0.5" stop-color="#0DA6E0"/>
<stop offset="1" stop-color="#2E77BC"/>
</radialGradient>
<linearGradient id="paint1_linear_4554_150" x1="200" y1="13.999" x2="262" y2="13.999" gradientUnits="userSpaceOnUse">
<stop stop-color="#1D1C45"/>
<stop offset="1" stop-color="#174489"/>
</linearGradient>
<linearGradient id="paint2_linear_4554_150" x1="37.9144" y1="15.9998" x2="0" y2="15.9998" gradientUnits="userSpaceOnUse">
<stop stop-color="#1E64FF"/>
<stop offset="1" stop-color="#1E64FF" stop-opacity="0"/>
</linearGradient>
</defs>
</svg>
