<svg width="800" height="800" viewBox="0 0 800 800" fill="none" xmlns="http://www.w3.org/2000/svg">
<path d="M433.333 700C433.333 708.841 429.821 717.319 423.57 723.571C417.319 729.822 408.841 733.334 400 733.334H266.667C222.48 733.281 180.119 715.704 148.874 684.46C117.629 653.215 100.053 610.853 100 566.667V233.334C100.053 189.147 117.629 146.786 148.874 115.541C180.119 84.2964 222.48 66.7199 266.667 66.667H400C408.841 66.667 417.319 70.1789 423.57 76.4301C429.821 82.6813 433.333 91.1598 433.333 100C433.333 108.841 429.821 117.319 423.57 123.571C417.319 129.822 408.841 133.334 400 133.334H266.667C240.145 133.334 214.71 143.869 195.956 162.623C177.202 181.377 166.667 206.812 166.667 233.334V566.667C166.667 593.189 177.202 618.624 195.956 637.378C214.71 656.131 240.145 666.667 266.667 666.667H400C408.841 666.667 417.319 670.179 423.57 676.43C429.821 682.681 433.333 691.16 433.333 700ZM690.233 376.434L556.9 243.1C553.825 239.917 550.147 237.377 546.08 235.63C542.013 233.883 537.639 232.964 533.213 232.925C528.787 232.887 524.398 233.73 520.302 235.406C516.205 237.082 512.483 239.557 509.353 242.687C506.224 245.817 503.749 249.539 502.073 253.635C500.397 257.732 499.553 262.121 499.592 266.547C499.63 270.973 500.55 275.347 502.297 279.414C504.044 283.481 506.583 287.159 509.767 290.234L586.2 366.667H333.333C324.493 366.667 316.014 370.179 309.763 376.43C303.512 382.681 300 391.16 300 400C300 408.841 303.512 417.319 309.763 423.571C316.014 429.822 324.493 433.334 333.333 433.334H586.2L509.767 509.767C506.583 512.842 504.044 516.52 502.297 520.587C500.55 524.654 499.63 529.028 499.592 533.454C499.553 537.88 500.397 542.269 502.073 546.365C503.749 550.462 506.224 554.184 509.353 557.313C512.483 560.443 516.205 562.918 520.302 564.594C524.398 566.27 528.787 567.114 533.213 567.075C537.639 567.037 542.013 566.117 546.08 564.37C550.147 562.623 553.825 560.084 556.9 556.9L690.233 423.567C696.482 417.316 699.993 408.839 699.993 400C699.993 391.162 696.482 382.685 690.233 376.434Z" fill="black"/>
</svg>
