<svg width="281" height="242" viewBox="0 0 281 242" fill="none" xmlns="http://www.w3.org/2000/svg">
<path d="M203.845 73.2816C203.845 38.5258 175.556 10.2002 140.845 10.2002C106.134 10.2002 77.8447 38.5258 77.8447 73.2816C77.8447 76.6188 80.6086 79.3862 83.9415 79.3862C87.2744 79.3862 90.0383 76.6188 90.0383 73.2816C90.0383 45.2002 112.8 22.4095 140.845 22.4095C168.89 22.4095 191.651 45.2002 191.651 73.2816C191.651 101.363 168.89 124.154 140.845 124.154C137.512 124.154 134.748 126.921 134.748 130.258V179.096C134.748 182.433 137.512 185.2 140.845 185.2C144.178 185.2 146.941 182.433 146.941 179.096V136.037C178.807 132.944 203.845 106.003 203.845 73.2816Z" fill="#212121" stroke="#212121" stroke-width="20"/>
<rect x="0.844727" y="175.2" width="280" height="66" rx="33" fill="#212121"/>
</svg>
