<svg width="718" height="718" viewBox="0 0 718 718" fill="none" xmlns="http://www.w3.org/2000/svg">
<g filter="url(#filter0_d_6299_5)">
<path d="M689.747 361.265C679.652 350.303 666.511 342.526 651.905 337.537C637.43 332.665 621.244 330.474 604.225 330.474C594.972 330.474 585.368 331.084 575.625 332.419C578.059 318.435 579.396 303.958 579.396 289.363C579.396 263.445 575.272 236.917 565.892 210.518L562.73 201.65L553.36 202.377C513.703 205.774 476.362 218.915 443.264 238.509C427.079 203.467 391.609 160.144 359.014 141.778C326.406 160.144 290.925 203.466 274.74 238.509C241.643 218.915 204.302 205.774 164.645 202.377L155.274 201.65L152.112 210.518C142.742 236.917 138.608 263.445 138.608 289.363C138.608 303.958 139.943 318.435 142.379 332.419C132.636 331.084 123.031 330.474 113.789 330.474C96.7599 330.474 80.5735 332.664 66.098 337.537C51.493 342.526 38.3514 350.303 28.256 361.265L23.8838 365.999L25.346 372.335C43.1033 449.461 79.8443 501.522 128.627 533.157C177.409 564.898 237.025 576.222 300.892 576.222C317.805 576.222 335.08 575.368 352.472 573.903C352.921 574.011 358.51 573.979 359.011 574.011C359.48 573.979 365.08 574.011 365.527 573.903C382.919 575.367 400.196 576.222 417.108 576.222C480.987 576.222 540.59 564.898 589.384 533.157C638.155 501.522 674.896 449.46 692.652 372.335L694.116 365.999L689.747 361.265ZM472.216 366.245C470.999 330.475 464.684 294.215 452.633 261.245C481.105 243.98 512.729 232.058 546.062 227.793C552.27 248.476 555.069 269.044 555.069 289.363C555.069 305.538 553.241 321.469 550.078 337.044C548.135 346.168 545.698 355.176 542.9 364.054C535.475 386.916 525.142 408.83 512.857 428.776C494.246 459.193 471.372 485.334 448.744 504.812C462.858 473.423 470.763 434.492 472.098 393.862C472.343 389.236 472.462 384.62 472.462 379.994C472.462 375.497 472.343 370.87 472.216 366.245ZM171.939 227.793C205.271 232.057 236.896 243.98 265.368 261.245C253.317 294.215 247.003 330.475 245.785 366.245C245.656 370.87 245.539 375.497 245.539 379.994C245.539 384.62 245.656 389.236 245.902 393.862C247.238 434.492 255.144 473.423 269.268 504.812C246.629 485.336 223.756 459.193 205.144 428.776C192.858 408.83 182.526 386.916 175.101 364.054C172.302 355.176 169.866 346.168 167.922 337.044C164.76 321.468 162.932 305.538 162.932 289.363C162.932 269.044 165.732 248.478 171.939 227.793ZM141.896 512.708C100.154 485.474 68.0393 442.153 50.6447 373.424C56.97 367.953 64.7484 363.681 73.8725 360.647C85.3149 356.758 98.8295 354.814 113.787 354.814C124.62 354.814 136.169 355.786 148.093 357.976C160.742 405.306 185.314 447.996 213.425 482.292C234.226 507.483 256.844 528.169 278.99 542.773C284.097 546.171 289.215 549.216 294.204 551.78C235.807 551.041 183.499 539.962 141.896 512.708ZM396.062 537.291C395.7 537.526 395.336 537.901 394.973 538.147C387.43 543.862 379.397 547.505 370.635 549.088C370.037 549.216 369.546 549.216 368.936 549.344H368.456C367.963 549.461 367.355 549.461 366.746 549.58C366.746 549.58 366.746 549.58 366.618 549.58C365.796 549.643 359.866 549.687 359.011 549.729C358.155 549.687 352.216 549.643 351.382 549.58C351.265 549.58 351.265 549.58 351.265 549.58C350.645 549.462 350.036 549.462 349.544 549.344H349.063C348.453 549.216 347.974 549.216 347.364 549.088C338.604 547.506 330.58 543.862 323.026 538.147C322.663 537.901 322.31 537.526 321.937 537.291C306.361 525.005 292.984 503.114 283.86 475.369C277.407 455.903 273.154 433.637 271.21 410.154C270.356 400.305 269.863 390.325 269.863 380.113V379.995C269.863 344.472 275.228 307.977 286.168 275.241C287.995 269.771 289.949 264.536 292.011 259.429C293.102 256.875 294.201 254.323 295.42 251.769C308.914 221.481 334.18 188.981 359.01 173.05C383.816 188.98 409.083 221.48 422.577 251.769C423.794 254.323 424.895 256.875 425.985 259.429C428.058 264.536 430.002 269.771 431.828 275.241C442.768 307.977 448.132 344.472 448.132 379.995V380.113C448.132 390.326 447.64 400.305 446.785 410.154C444.841 433.637 440.59 455.903 434.137 475.369C425.016 503.114 411.639 525.005 396.062 537.291ZM576.105 512.708C534.503 539.962 482.194 551.041 423.797 551.779C428.798 549.215 433.904 546.17 439.011 542.772C461.159 528.168 483.776 507.484 504.576 482.291C532.686 447.995 557.259 405.303 569.908 357.974C581.831 355.784 593.379 354.813 604.223 354.813C619.181 354.813 632.685 356.757 644.127 360.646C653.251 363.679 661.028 367.953 667.354 373.422C649.962 442.153 617.845 485.474 576.105 512.708Z" fill="black" stroke="black" stroke-width="15"/>
</g>
<defs>
<filter id="filter0_d_6299_5" x="11.6846" y="133.17" width="694.631" height="458.552" filterUnits="userSpaceOnUse" color-interpolation-filters="sRGB">
<feFlood flood-opacity="0" result="BackgroundImageFix"/>
<feColorMatrix in="SourceAlpha" type="matrix" values="0 0 0 0 0 0 0 0 0 0 0 0 0 0 0 0 0 0 127 0" result="hardAlpha"/>
<feOffset dy="4"/>
<feGaussianBlur stdDeviation="2"/>
<feComposite in2="hardAlpha" operator="out"/>
<feColorMatrix type="matrix" values="0 0 0 0 0 0 0 0 0 0 0 0 0 0 0 0 0 0 0.25 0"/>
<feBlend mode="normal" in2="BackgroundImageFix" result="effect1_dropShadow_6299_5"/>
<feBlend mode="normal" in="SourceGraphic" in2="effect1_dropShadow_6299_5" result="shape"/>
</filter>
</defs>
</svg>
