<svg width="801" height="800" viewBox="0 0 801 800" fill="none" xmlns="http://www.w3.org/2000/svg">
<path d="M67.2222 400C67.2222 274.292 67.2222 211.438 106.275 172.385C145.327 133.333 208.181 133.333 333.889 133.333H467.222C592.929 133.333 655.785 133.333 694.835 172.385C733.889 211.438 733.889 274.292 733.889 400V466.666C733.889 592.373 733.889 655.23 694.835 694.28C655.785 733.333 592.929 733.333 467.222 733.333H333.889C208.181 733.333 145.327 733.333 106.275 694.28C67.2222 655.23 67.2222 592.373 67.2222 466.666V400Z" stroke="black" stroke-width="50"/>
<path d="M231.813 133.389V61.3555" stroke="black" stroke-width="50" stroke-linecap="round"/>
<path d="M567.035 133.334V61.3545" stroke="black" stroke-width="50" stroke-linecap="round"/>
<path d="M79.0552 269.938H399.301H719.547" stroke="black" stroke-width="50" stroke-linecap="round"/>
<path fill-rule="evenodd" clip-rule="evenodd" d="M399.3 338.424C361.288 338.424 330.473 369.163 330.473 407.082C330.473 445.001 361.288 475.74 399.3 475.74C437.313 475.74 468.127 445.001 468.127 407.082C468.127 369.163 437.313 338.424 399.3 338.424ZM352.208 407.082C352.208 381.138 373.292 360.105 399.3 360.105C425.309 360.105 446.392 381.138 446.392 407.082C446.392 433.027 425.309 454.059 399.3 454.059C373.292 454.059 352.208 433.027 352.208 407.082Z" fill="black" stroke="black" stroke-width="25"/>
<path fill-rule="evenodd" clip-rule="evenodd" d="M399.3 511.868C357.848 511.868 319.657 519.47 291.356 532.311C263.478 544.963 242.523 564.137 242.523 587.754L242.522 589.228C242.502 606.021 242.477 627.099 265.393 642.153C276.672 649.562 292.45 654.831 313.767 658.313C335.143 661.802 363.004 663.639 399.3 663.639C435.597 663.639 463.459 661.802 484.834 658.313C506.152 654.831 521.931 649.562 533.208 642.153C556.124 627.099 556.099 606.021 556.079 589.228L556.078 587.754C556.078 564.137 535.125 544.963 507.245 532.311C478.945 519.47 440.754 511.868 399.3 511.868ZM269.399 587.754C269.399 575.449 280.533 562.099 304.533 551.209C328.111 540.51 361.59 533.55 399.3 533.55C437.013 533.55 470.49 540.51 494.069 551.209C518.069 562.099 529.201 575.449 529.201 587.754C529.201 606.657 528.479 617.298 516.236 625.341C509.598 629.703 498.5 633.96 479.502 637.062C460.565 640.154 434.675 641.958 399.3 641.958C363.928 641.958 338.036 640.154 319.099 637.062C300.101 633.96 289.003 629.703 282.364 625.341C270.122 617.298 269.399 606.657 269.399 587.754Z" fill="black" stroke="black" stroke-width="25"/>
</svg>
