<svg width="800" height="800" viewBox="0 0 800 800" fill="none" xmlns="http://www.w3.org/2000/svg">
<path fill-rule="evenodd" clip-rule="evenodd" d="M100 250V625C100 644.9 107.9 663.975 121.975 678.025C136.025 692.1 155.1 700 175 700C279.6 700 520.4 700 625 700C644.9 700 663.975 692.1 678.025 678.025C692.1 663.975 700 644.9 700 625V250C727.625 250 750 227.625 750 200V150C750 122.375 727.625 100 700 100C596.65 100 203.35 100 100 100C72.375 100 50 122.375 50 150V200C50 227.625 72.375 250 100 250ZM650 250V625C650 631.625 647.375 638 642.675 642.675C638 647.375 631.625 650 625 650H175C168.375 650 162 647.375 157.325 642.675C152.625 638 150 631.625 150 625V250H650ZM325 350H475C488.8 350 500 338.8 500 325C500 311.2 488.8 300 475 300H325C311.2 300 300 311.2 300 325C300 338.8 311.2 350 325 350ZM100 150V200H700V150H100Z" fill="black"/>
</svg>
