<svg width="800" height="800" viewBox="0 0 800 800" fill="none" xmlns="http://www.w3.org/2000/svg">
<g clip-path="url(#clip0_7921_91)">
<path d="M648.277 55.1719H427.586C427.586 70.4062 415.235 82.7578 400 82.7578C384.766 82.7578 372.414 70.4062 372.414 55.1719H151.724C121.253 55.1719 96.5518 79.8734 96.5518 110.344V744.828C96.5518 775.298 121.253 800 151.724 800H648.275C678.746 800 703.447 775.298 703.447 744.828V110.345C703.449 79.8734 678.747 55.1719 648.277 55.1719Z" fill="#275563"/>
<path d="M647.444 763H152.556C144.518 763 138 756.468 138 748.412V106.588C138 98.532 144.518 92 152.556 92H647.444C655.482 92 662 98.532 662 106.588V748.412C662 756.468 655.482 763 647.444 763Z" fill="#FFA750"/>
<path d="M496.552 27.5859H447.52C439.177 13.2516 424.686 3.13125 407.556 0.7625C405.102 0.303125 402.594 0 400 0C397.406 0 394.899 0.303125 392.444 0.7625C375.314 3.13125 360.824 13.2516 352.48 27.5859H303.449C280.595 27.5859 262.069 46.1125 262.069 68.9656V124.137C262.069 131.755 268.245 137.931 275.863 137.931H524.139C531.756 137.931 537.933 131.755 537.933 124.137V68.9656C537.931 46.1125 519.405 27.5859 496.552 27.5859ZM400 75.8625C388.574 75.8625 379.311 66.5984 379.311 55.1734C379.311 43.7484 388.574 34.4828 400 34.4828C411.427 34.4828 420.689 43.7469 420.689 55.1719C420.689 66.5969 411.427 75.8625 400 75.8625Z" fill="#C3C3C3"/>
<path d="M262.069 344.83H220.689C213.072 344.83 206.896 338.653 206.896 331.036C206.896 323.419 213.072 317.242 220.689 317.242H262.069C269.686 317.242 275.863 323.419 275.863 331.036C275.863 338.653 269.686 344.83 262.069 344.83Z" fill="white"/>
<path d="M262.069 455.173H220.689C213.072 455.173 206.896 448.997 206.896 441.38C206.896 433.763 213.072 427.586 220.689 427.586H262.069C269.686 427.586 275.863 433.763 275.863 441.38C275.863 448.998 269.686 455.173 262.069 455.173Z" fill="white"/>
<path d="M262.069 400.002H220.689C213.072 400.002 206.896 393.825 206.896 386.208C206.896 378.591 213.072 372.414 220.689 372.414H262.069C269.686 372.414 275.863 378.591 275.863 386.208C275.863 393.825 269.686 400.002 262.069 400.002Z" fill="white"/>
<path d="M579.311 344.83H317.241C309.623 344.83 303.447 338.653 303.447 331.036C303.447 323.419 309.623 317.242 317.241 317.242H579.309C586.926 317.242 593.103 323.419 593.103 331.036C593.103 338.653 586.928 344.83 579.311 344.83Z" fill="white"/>
<path d="M579.311 455.173H317.241C309.623 455.173 303.447 448.997 303.447 441.38C303.447 433.763 309.623 427.586 317.241 427.586H579.309C586.926 427.586 593.103 433.763 593.103 441.38C593.103 448.998 586.928 455.173 579.311 455.173Z" fill="white"/>
<path d="M262.069 510.345H220.689C213.072 510.345 206.896 504.169 206.896 496.552C206.896 488.934 213.072 482.758 220.689 482.758H262.069C269.686 482.758 275.863 488.934 275.863 496.552C275.863 504.169 269.686 510.345 262.069 510.345Z" fill="white"/>
<path d="M496.551 510.345H317.241C309.623 510.345 303.447 504.169 303.447 496.552C303.447 488.934 309.623 482.758 317.241 482.758H496.551C504.169 482.758 510.345 488.934 510.345 496.552C510.345 504.169 504.169 510.345 496.551 510.345Z" fill="white"/>
<path d="M262.069 565.517H220.689C213.072 565.517 206.896 559.341 206.896 551.723C206.896 544.106 213.072 537.93 220.689 537.93H262.069C269.686 537.93 275.863 544.106 275.863 551.723C275.863 559.341 269.686 565.517 262.069 565.517Z" fill="white"/>
<path d="M496.551 565.517H317.241C309.623 565.517 303.447 559.341 303.447 551.723C303.447 544.106 309.623 537.93 317.241 537.93H496.551C504.169 537.93 510.345 544.106 510.345 551.723C510.345 559.341 504.169 565.517 496.551 565.517Z" fill="white"/>
<path d="M579.311 400.002H317.241C309.623 400.002 303.447 393.825 303.447 386.208C303.447 378.591 309.623 372.414 317.241 372.414H579.309C586.926 372.414 593.103 378.591 593.103 386.208C593.103 393.825 586.928 400.002 579.311 400.002Z" fill="white"/>
</g>
<defs>
<clipPath id="clip0_7921_91">
<rect width="800" height="800" fill="white"/>
</clipPath>
</defs>
</svg>
