<svg width="600" height="600" viewBox="0 0 600 600" fill="none" xmlns="http://www.w3.org/2000/svg">
<path d="M345.999 73.3984L392.999 167.398C399.333 180.398 416.333 192.731 430.666 195.398L515.666 209.398C569.999 218.398 582.666 257.732 543.666 297.065L477.333 363.398C466.333 374.398 459.999 396.065 463.666 411.732L482.666 493.732C497.666 558.398 462.999 583.732 405.999 549.732L326.333 502.398C311.999 493.732 287.999 493.732 273.666 502.398L193.999 549.732C137 583.398 102.334 558.398 117.334 493.732L136.334 411.732C140 396.398 133.667 374.732 122.667 363.398L56.334 297.065C17.334 258.065 30.0007 218.731 84.334 209.398L169.333 195.398C183.666 193.065 200.666 180.398 206.999 167.398L253.999 73.3984C278.999 22.3984 320.333 22.3984 345.999 73.3984Z" stroke="#292D32" stroke-width="50" stroke-linecap="round" stroke-linejoin="round"/>
</svg>
