<svg width="800" height="800" viewBox="0 0 800 800" fill="none" xmlns="http://www.w3.org/2000/svg">
<path d="M520.159 282.895C551.255 313.99 568.802 356.116 568.975 400.089C569.149 444.066 551.935 486.326 521.085 517.666" stroke="#222222" stroke-width="60" stroke-linecap="round"/>
<path d="M657.539 212.184C707.289 261.936 735.362 329.335 735.639 399.696C735.919 470.056 708.375 537.672 659.015 587.816" stroke="#222222" stroke-width="60" stroke-linecap="round"/>
<path d="M116.478 459.377C93.6556 421.341 93.6556 373.82 116.478 335.784C123.443 324.175 134.981 316.044 148.255 313.39L202.447 302.551C205.675 301.905 208.586 300.174 210.693 297.644L276.923 218.169C314.776 172.746 333.702 150.034 350.59 156.149C367.482 162.264 367.482 191.828 367.482 250.956V544.205C367.482 603.332 367.482 632.896 350.59 639.012C333.702 645.126 314.776 622.416 276.923 576.992L210.693 497.516C208.586 494.987 205.675 493.256 202.447 492.609L148.255 481.771C134.981 479.117 123.443 470.987 116.478 459.377Z" stroke="#222222" stroke-width="60"/>
<path d="M116.478 459.377C93.6556 421.341 93.6556 373.82 116.478 335.784C123.443 324.175 134.981 316.044 148.255 313.39L202.447 302.551C205.675 301.905 208.586 300.174 210.693 297.644L276.923 218.169C314.776 172.746 333.702 150.034 350.59 156.149C367.482 162.264 367.482 191.828 367.482 250.956V544.205C367.482 603.332 367.482 632.896 350.59 639.012C333.702 645.126 314.776 622.416 276.923 576.992L210.693 497.516C208.586 494.987 205.675 493.256 202.447 492.609L148.255 481.771C134.981 479.117 123.443 470.987 116.478 459.377Z" stroke="#222222" stroke-width="60"/>
</svg>
