<svg width="800" height="800" viewBox="0 0 800 800" fill="none" xmlns="http://www.w3.org/2000/svg">
<path fill-rule="evenodd" clip-rule="evenodd" d="M267.579 112.192C163.559 112.192 79.3853 196.873 79.3853 301.281C79.3853 413.108 131.26 501.407 193.189 564.859C254.805 627.989 327.721 668.008 374.181 683.889C382.362 686.755 391.73 687.808 400 687.808C408.27 687.808 417.638 686.755 425.82 683.889C472.28 668.008 545.196 627.989 606.81 564.859C668.741 501.407 720.615 413.108 720.615 301.281C720.615 196.873 636.441 112.192 532.422 112.192C480.891 112.192 433.955 133.238 400.009 167.21C366.137 133.248 319.376 112.192 267.579 112.192ZM645.027 375.994C648.726 364.208 642.168 351.655 630.38 347.957C618.594 344.258 606.041 350.813 602.343 362.6C580.281 432.912 534.495 489.719 484.83 532.108C475.433 540.129 474.317 554.248 482.337 563.645C490.36 573.04 504.476 574.156 513.874 566.135C567.865 520.053 619.742 456.578 645.027 375.994Z" fill="black"/>
</svg>
