<svg width="800" height="800" viewBox="0 0 800 800" fill="none" xmlns="http://www.w3.org/2000/svg">
<path d="M590.248 361.971L570.531 404.858C561.083 425.408 549.633 444.975 536.345 463.277C517.764 488.87 495.742 511.78 470.903 531.358L453.742 544.882" stroke="black" stroke-width="60" stroke-linecap="round"/>
<path d="M418.141 657.77C408.192 661.281 391.808 661.281 381.86 657.77C297.009 628.804 107.412 507.965 107.412 303.152C107.412 212.743 180.266 139.596 270.091 139.596C323.342 139.596 370.449 165.343 400 205.136C429.552 165.343 476.951 139.596 529.91 139.596C619.734 139.596 692.589 212.743 692.589 303.152C692.589 507.965 502.991 628.804 418.141 657.77Z" stroke="black" stroke-width="60" stroke-linecap="round" stroke-linejoin="round"/>
</svg>
