<svg width="800" height="800" viewBox="0 0 800 800" fill="none" xmlns="http://www.w3.org/2000/svg">
<path d="M96.4185 474.319C69.6808 428.528 69.6808 371.319 96.4185 325.528C104.578 311.553 118.095 301.765 133.645 298.569L197.134 285.52C200.916 284.743 204.325 282.659 206.795 279.613L284.385 183.935C328.73 129.252 346.17 122.699 365.955 130.061C385.743 137.423 390.478 152.225 390.478 223.407V576.441C390.478 647.622 385.743 656.987 365.955 664.351C346.17 671.711 328.73 670.597 284.385 615.912L206.795 520.234C204.325 517.189 200.916 515.105 197.134 514.326L133.645 501.278C118.095 498.084 104.578 488.296 96.4185 474.319Z" fill="#222222"/>
<path d="M520.159 282.895C551.255 313.99 568.802 356.116 568.975 400.089C569.149 444.066 551.935 486.326 521.085 517.666" stroke="#222222" stroke-width="60" stroke-linecap="round"/>
<path d="M657.539 212.184C707.289 261.936 735.362 329.335 735.639 399.696C735.919 470.056 708.375 537.672 659.015 587.816" stroke="#222222" stroke-width="60" stroke-linecap="round"/>
<path d="M111.64 461.934C87.8732 422.324 87.8732 372.837 111.64 333.227C118.893 321.139 130.908 312.671 144.731 309.907L201.165 298.62C204.527 297.947 207.558 296.144 209.753 293.51L278.723 210.747C318.141 163.445 337.85 139.793 355.438 146.161C373.028 152.529 373.028 183.316 373.028 244.89V550.271C373.028 611.844 373.028 642.631 355.438 649.001C337.85 655.367 318.141 631.717 278.723 584.414L209.753 501.651C207.558 499.017 204.527 497.214 201.165 496.541L144.731 485.254C130.908 482.491 118.893 474.024 111.64 461.934Z" stroke="#222222" stroke-width="40"/>
</svg>
