<svg width="600" height="600" viewBox="0 0 600 600" fill="none" xmlns="http://www.w3.org/2000/svg">
<path d="M350.029 53.5454L401.147 155.781C408.035 169.92 426.524 183.333 442.114 186.234L534.56 201.46C593.654 211.249 607.43 254.028 565.013 296.807L492.869 368.952C480.905 380.916 474.017 404.481 478.005 421.52L498.669 510.704C514.983 581.036 477.28 608.589 415.286 571.61L328.64 520.13C313.051 510.704 286.948 510.704 271.359 520.13L184.713 571.61C122.719 608.226 85.0162 581.036 101.33 510.704L121.995 421.52C125.983 404.843 119.095 381.278 107.131 368.952L34.9866 296.807C-7.4302 254.391 6.34617 211.611 65.4396 201.46L157.885 186.234C173.474 183.696 191.963 169.92 198.852 155.781L249.969 53.5454C277.159 -1.92268 322.114 -1.92268 350.029 53.5454Z" fill="#292D32"/>
</svg>
