<svg width="234" height="182" viewBox="0 0 234 182" fill="none" xmlns="http://www.w3.org/2000/svg">
<path d="M168.073 147.621C166.24 145.777 163.309 145.659 161.23 147.22C148.551 156.741 132.346 163.364 116.983 163.364C82.7141 163.364 54.1606 137.635 47.135 107.048C46.4553 104.089 48.8027 101.399 51.8388 101.399H66.4827C70.6429 101.399 72.9835 96.6142 70.4302 93.3298L41.8498 56.5657C39.8266 53.9632 35.8826 53.9965 33.9036 56.6328L6.30558 93.3968C3.83141 96.6927 6.18304 101.399 10.3043 101.399H25.3057C27.8522 101.399 29.9756 103.317 30.3959 105.828C37.1014 145.898 73.1026 179.399 116.983 179.399C136.112 179.399 156.699 171.252 172.246 159.404C174.557 157.642 174.683 154.267 172.634 152.206L168.073 147.621Z" fill="black" stroke="black" stroke-width="5"/>
<path d="M176.718 26.2844C160.53 11.5094 139.316 3.44543 116.982 3.44543C97.8576 3.44543 77.2762 11.4903 61.7305 23.3155C59.4141 25.0776 59.2912 28.4601 61.3482 30.5191L65.8917 35.0669C67.7262 36.9032 70.6513 37.017 72.7339 35.4679C85.3281 26.0998 101.854 19.6024 116.982 19.6024C151.36 19.6024 180 45.369 186.905 77.779C187.534 80.7338 185.191 83.3994 182.17 83.3994H167.296C163.163 83.3994 160.815 88.1279 163.312 91.4207L192.027 129.287C194.047 131.95 198.062 131.92 200.041 129.225L227.854 91.3594C230.28 88.0572 227.922 83.3994 223.825 83.3994H208.66C206.114 83.3994 203.989 81.4855 203.579 78.9727C200.501 60.0943 191.122 39.4273 176.718 26.2844Z" fill="black" stroke="black" stroke-width="5"/>
</svg>
