<svg width="1024" height="1024" viewBox="0 0 1024 1024" fill="none" xmlns="http://www.w3.org/2000/svg">
<g clip-path="url(#clip0_5957_2)">
<rect width="1024" height="1024" fill="white"/>
<rect width="1024" height="1024" fill="#212121"/>
<path d="M707.334 451.264C740.058 445.189 767.92 460.648 769.204 466.486C770.489 472.323 743.599 498.167 717.438 503.236C691.277 508.305 657.547 493.781 656.608 487.909C655.672 482.036 674.609 457.338 707.334 451.264Z" fill="#79C68C"/>
<path d="M773.829 387.644C804.902 375.773 835.277 386.247 837.372 391.833C839.467 397.42 817.82 427.445 792.682 436.872C767.544 446.299 732.282 437.919 730.187 432.333C728.092 426.747 742.756 399.514 773.829 387.644Z" fill="#79C68C"/>
<path d="M652.678 398.467C681.308 381.709 713.079 387.295 715.872 392.532C718.665 397.769 702.256 430.937 678.864 444.204C655.471 457.471 619.51 455.027 616.368 449.79C613.226 444.553 623.7 415.226 652.678 398.467Z" fill="#79C68C"/>
<path d="M487.186 417.321C487.186 384.153 507.436 359.364 513.72 359.364C520.005 359.364 540.255 390.437 540.255 417.321C540.255 444.204 520.005 474.23 513.72 474.23C507.436 474.23 487.186 450.489 487.186 417.321Z" fill="#79C68C"/>
<path d="M542.001 158.261C552.824 126.839 580.057 110.08 585.643 112.175C591.229 114.27 600.656 149.882 591.927 175.369C583.199 200.856 554.221 222.502 548.634 220.757C543.048 219.011 531.178 190.033 542.001 158.261Z" fill="#79C68C"/>
<path d="M569.934 380.312C588.438 352.73 618.813 343.304 624.05 346.795C629.287 350.286 628.938 387.295 613.925 409.64C598.912 431.984 565.395 445.601 560.507 442.459C555.619 439.316 551.429 407.894 569.934 380.312Z" fill="#79C68C"/>
<path d="M682.704 314.674C710.634 296.868 742.406 300.708 745.548 305.945C748.69 311.182 733.678 345.049 710.984 359.363C688.29 373.678 651.98 372.631 648.837 367.743C645.695 362.855 654.423 332.48 682.704 314.674Z" fill="#79C68C"/>
<path d="M779.917 316.634C808.187 298.993 839.77 303.217 842.961 308.643C846.152 314.068 830.636 347.463 807.813 361.565C784.987 375.666 748.697 374.326 745.485 369.249C742.273 364.173 751.648 334.276 779.917 316.634Z" fill="#79C68C"/>
<path d="M552.475 290.235C566.44 260.21 595.419 246.593 601.005 249.037C606.591 251.481 611.828 288.141 600.307 312.58C588.785 337.02 557.712 355.524 552.126 353.08C546.54 350.636 538.16 320.61 552.475 290.235Z" fill="#79C68C"/>
<path d="M841.242 431.164C873.352 422.157 902.296 435.19 903.933 441.349C905.567 447.507 881.18 475.072 855.194 482.096C829.208 489.121 794.8 477.655 793.198 471.846C791.595 466.036 809.478 440.141 841.242 431.164Z" fill="#79C68C"/>
<path d="M487.186 268.938C487.186 235.77 507.436 210.981 513.72 210.981C520.005 210.981 540.255 242.054 540.255 268.938C540.255 295.821 520.005 325.847 513.72 325.847C507.436 325.847 487.186 302.106 487.186 268.938Z" fill="#79C68C"/>
<path d="M743.454 228.787C771.734 210.981 803.156 215.17 806.648 220.407C810.139 225.644 794.428 259.161 771.734 273.476C749.04 287.791 712.73 286.743 709.588 281.506C706.445 276.269 715.174 246.593 743.454 228.787Z" fill="#79C68C"/>
<path d="M623.12 167.674C642.826 140.912 673.605 132.924 678.57 136.482C683.531 140.039 681.559 177.013 665.757 198.838C649.958 220.666 615.677 232.92 610.712 229.363C605.751 225.805 603.733 194.812 623.12 167.674Z" fill="#79C68C"/>
<path d="M317.63 453.079C284.979 446.606 256.933 461.727 255.578 467.547C254.223 473.367 280.8 499.538 306.894 504.926C332.992 510.313 366.897 496.197 367.906 490.339C368.915 484.48 350.281 459.552 317.63 453.079Z" fill="#79C68C"/>
<path d="M250.821 389.39C219.747 377.519 189.373 387.993 187.278 393.579C185.183 399.166 206.829 429.191 231.967 438.618C257.105 448.045 292.368 439.665 294.463 434.079C296.558 428.493 281.894 401.26 250.821 389.39Z" fill="#79C68C"/>
<path d="M371.972 400.562C343.343 383.804 311.572 389.39 308.779 394.627C305.986 399.864 322.395 433.032 345.787 446.299C369.179 459.566 405.14 457.123 408.283 451.885C411.425 446.648 400.951 416.972 371.972 400.562Z" fill="#79C68C"/>
<path d="M482.648 160.007C471.825 128.585 444.592 111.826 439.006 113.921C433.42 116.016 423.993 151.628 432.722 177.115C441.45 202.602 470.428 224.598 476.015 222.503C481.601 220.408 493.471 191.779 482.648 160.007Z" fill="#79C68C"/>
<path d="M454.717 382.058C436.213 354.476 405.838 345.049 400.601 348.541C395.364 352.032 395.713 389.041 410.726 411.385C425.739 433.73 458.907 447.696 464.144 444.204C469.381 440.713 473.221 409.64 454.717 382.058Z" fill="#79C68C"/>
<path d="M342.296 316.42C314.365 298.614 282.594 302.454 279.451 307.691C276.309 312.929 291.322 346.795 314.016 361.109C336.71 375.424 373.02 374.377 376.162 369.489C379.304 364.601 370.227 334.226 342.296 316.42Z" fill="#79C68C"/>
<path d="M235.423 317.029C205.485 302.4 174.506 309.865 171.891 315.591C169.276 321.317 188.161 352.931 212.318 364.599C236.474 376.271 272.435 371.187 275.106 365.807C277.774 360.427 265.362 331.658 235.423 317.029Z" fill="#79C68C"/>
<path d="M475.666 291.98C461.7 261.955 432.722 248.338 427.136 250.782C421.55 253.226 416.312 289.886 427.834 314.325C439.355 338.765 470.429 357.269 476.015 354.825C481.601 352.381 489.98 322.355 475.666 291.98Z" fill="#79C68C"/>
<path d="M182.868 432.789C150.577 424.452 121.912 438.089 120.083 443.906C118.25 449.722 143.531 477.144 169.66 483.627C195.786 490.107 229.946 477.929 231.43 472.085C232.91 466.244 215.188 440.778 182.868 432.789Z" fill="#79C68C"/>
<path d="M381.581 246.856C358.402 222.707 326.916 218.925 322.58 223.223C318.24 227.525 325.024 263.964 343.399 283.184C361.774 302.404 397.473 310.183 401.894 306.22C406.317 302.261 404.421 271.09 381.581 246.856Z" fill="#79C68C"/>
<path d="M281.198 230.532C253.267 212.726 221.495 217.265 218.353 222.153C215.211 227.041 230.573 260.907 253.267 275.222C275.961 289.536 312.271 288.14 315.413 283.252C318.555 278.364 309.478 248.338 281.198 230.532Z" fill="#79C68C"/>
<path d="M400.406 167.973C378.854 142.674 347.581 136.889 342.886 140.789C338.186 144.692 342.777 181.429 360.084 202.08C377.391 222.735 412.455 232.528 417.154 228.628C421.853 224.725 421.616 193.324 400.406 167.973Z" fill="#79C68C"/>
<path d="M643.778 243.377C666.957 219.228 698.442 215.446 702.778 219.744C707.118 224.046 700.334 260.485 681.959 279.705C663.584 298.925 627.885 306.704 623.465 302.741C619.041 298.782 620.937 267.611 643.778 243.377Z" fill="#79C68C"/>
<path d="M338.442 548.713C335.287 547.773 335.323 542.451 338.539 541.745C370.613 534.709 448.438 519.221 511.986 519.221C575.528 519.221 653.36 534.701 685.447 541.735C688.665 542.441 688.701 547.765 685.544 548.706C641.913 561.709 519.001 617.678 552.407 830.771C557.616 864.003 594.011 893.859 610.912 906.108C613.352 907.877 612.064 912 609.051 912H414.962C411.947 912 410.661 907.873 413.103 906.106C430.035 893.858 466.479 864.013 471.681 830.777C505.037 617.694 382.067 561.716 338.442 548.713Z" fill="#79C68C"/>
</g>
<defs>
<clipPath id="clip0_5957_2">
<rect width="1024" height="1024" fill="white"/>
</clipPath>
</defs>
</svg>
