<?xml version="1.0" encoding="utf-8"?><!-- Uploaded to: SVG Repo, www.svgrepo.com, Generator: SVG Repo Mixer Tools -->
<svg width="800px" height="800px" viewBox="0 0 24 24" fill="none" xmlns="http://www.w3.org/2000/svg">
<path fill-rule="evenodd" clip-rule="evenodd" d="M7 2C4.23858 2 2 4.23858 2 7V17C2 19.7614 4.23858 22 7 22H17C19.7614 22 22 19.7614 22 17V8.82843C22 8.03278 21.6839 7.26972 21.1213 6.70711L17.2929 2.87868C16.7303 2.31607 15.9672 2 15.1716 2H7ZM7 4C6.44772 4 6 4.44772 6 5V7C6 7.55228 6.44772 8 7 8H15C15.5523 8 16 7.55228 16 7V5C16 4.44772 15.5523 4 15 4H7ZM12 17C13.6569 17 15 15.6569 15 14C15 12.3431 13.6569 11 12 11C10.3431 11 9 12.3431 9 14C9 15.6569 10.3431 17 12 17Z" fill="#152C70"/>
</svg>