<svg height='100px' width='100px'  fill="#1A1A1A" xmlns="http://www.w3.org/2000/svg" viewBox="0 0 48 48" x="0px" y="0px"><title>Settings, control, interface</title><path d="M40.22,26a2.53,2.53,0,0,1,0-4,4.52,4.52,0,0,0-3.34-8.06,2.53,2.53,0,0,1-2.82-2.82A4.52,4.52,0,0,0,26,7.78a2.62,2.62,0,0,1-4,0,4.52,4.52,0,0,0-8.06,3.34,2.53,2.53,0,0,1-2.82,2.82A4.52,4.52,0,0,0,7.78,22a2.53,2.53,0,0,1,0,4,4.52,4.52,0,0,0,3.34,8.06,2.53,2.53,0,0,1,2.82,2.82,4.42,4.42,0,0,0,2.75,4.76,4.8,4.8,0,0,0,1.79.36A4.4,4.4,0,0,0,22,40.22a2.62,2.62,0,0,1,4,0,4.52,4.52,0,0,0,8.06-3.34,2.53,2.53,0,0,1,2.82-2.82,4.47,4.47,0,0,0,4.76-2.75A4.41,4.41,0,0,0,40.22,26ZM24,31a7,7,0,1,1,7-7A7,7,0,0,1,24,31Z"></path></svg>