<svg width="97" height="102" viewBox="0 0 97 102" fill="none" xmlns="http://www.w3.org/2000/svg">
<path d="M1.37206 63.4414C1.00236 64.8057 0.906942 66.2297 1.09133 67.631C1.27572 69.0324 1.73626 70.3833 2.44628 71.6055L7.458 80.2871C8.88684 82.755 11.236 84.5556 13.9904 85.294C16.7448 86.0325 19.6796 85.6486 22.1514 84.2266L24.3486 82.9434C26.838 84.771 29.5176 86.3243 32.3408 87.5762V90.1348C32.3408 96.1172 37.2236 101 43.1474 101H53.1728C59.0986 101 63.9814 96.1172 63.9814 90.1328V87.5742C66.804 86.3216 69.483 84.7677 71.9717 82.9395L74.1787 84.2227C76.6493 85.6463 79.5839 86.0312 82.338 85.293C85.0922 84.5547 87.4408 82.7536 88.8682 80.2852L93.8779 71.6035C95.3004 69.1313 95.6844 66.1958 94.9455 63.441C94.2066 60.6861 92.4052 58.3367 89.9365 56.9082L87.7178 55.627C88.0747 52.552 88.0747 49.4461 87.7178 46.3711L89.9365 45.0898C92.405 43.661 94.2059 41.3114 94.944 38.5564C95.6822 35.8014 95.2974 32.8661 93.874 30.3945L88.8623 21.7129C87.4338 19.2446 85.0847 17.4437 82.3301 16.7052C79.5756 15.9667 76.6406 16.3508 74.1689 17.7734L71.9736 19.0566C69.4842 17.229 66.8046 15.6757 63.9814 14.4238V11.8672C63.9814 5.88281 59.0986 1 53.1728 1H43.1474C37.2236 1 32.3408 5.88281 32.3408 11.8672V14.4258C29.5182 15.6784 26.8393 17.2323 24.3506 19.0605L22.1416 17.7773C20.9193 17.0707 19.5697 16.6119 18.1699 16.4272C16.7701 16.2426 15.3477 16.3357 13.9839 16.7012C12.6202 17.0667 11.3419 17.6975 10.2221 18.5574C9.10231 19.4174 8.16304 20.4896 7.458 21.7129L2.44628 30.3945C1.0228 32.8664 0.637933 35.802 1.3761 38.5573C2.11426 41.3126 3.91518 43.6626 6.38378 45.0918L8.60253 46.373C8.2457 49.448 8.2457 52.5539 8.60253 55.6289L6.38378 56.9102C5.15811 57.6134 4.08407 58.5528 3.22381 59.6739C2.36356 60.7949 1.73417 62.0755 1.37206 63.4414V63.4414ZM10.0068 63.1855L16.5713 59.3984L16.1142 56.8867C15.4068 52.9961 15.4068 49.0098 16.1142 45.1191L16.5713 42.6016L10.0088 38.8125C9.20308 38.346 8.6153 37.5791 8.37437 36.6798C8.13344 35.7805 8.25904 34.8224 8.72362 34.0156L13.7373 25.3359C14.2031 24.529 14.9702 23.9401 15.87 23.6984C16.7697 23.4567 17.7287 23.582 18.5361 24.0469L25.1142 27.8457L27.0674 26.1875C30.0617 23.6231 33.4997 21.6281 37.2119 20.3008L39.5674 19.4434V11.8672C39.5674 9.91406 41.251 8.22656 43.1474 8.22656H53.1728C55.0713 8.22656 56.7549 9.9043 56.7549 11.8672V19.4434L59.1201 20.3027C62.8355 21.6306 66.2773 23.6256 69.2764 26.1895L71.2119 27.8457L77.7939 24.0469C78.6004 23.5835 79.5575 23.4586 80.4559 23.6995C81.3542 23.9404 82.1205 24.5274 82.5869 25.332L87.5986 34.0137C88.0632 34.8205 88.1888 35.7786 87.9479 36.6778C87.7069 37.5771 87.1192 38.3441 86.3135 38.8105L79.751 42.6016L80.208 45.1133C80.9156 49.0039 80.9156 52.9902 80.208 56.8809L79.751 59.3984L86.3135 63.1875C87.1192 63.654 87.7069 64.4209 87.9479 65.3202C88.1888 66.2195 88.0632 67.1776 87.5986 67.9844L82.5849 76.6641C82.1191 77.471 81.3521 78.0599 80.4523 78.3016C79.5525 78.5433 78.5936 78.418 77.7861 77.9531L71.208 74.1543L69.2549 75.8125C66.2606 78.3769 62.8225 80.372 59.1103 81.6992L56.7549 82.5566V90.1328C56.7549 92.0859 55.0713 93.7734 53.1728 93.7734H43.1474C41.249 93.7734 39.5674 92.0957 39.5674 90.1328V82.5566L37.2021 81.6973C33.4867 80.3694 30.0449 78.3744 27.0459 75.8105L25.1103 74.1543L18.5283 77.9531C17.7217 78.4171 16.7641 78.5423 15.8653 78.3014C14.9665 78.0605 14.1998 77.4731 13.7334 76.668L8.72167 67.9824C8.25663 67.1752 8.13099 66.2165 8.37231 65.3167C8.61364 64.4169 9.20222 63.6497 10.0088 63.1836L10.0068 63.1855Z" fill="#1A1A1A" stroke="black" stroke-width="1.4"/>
<path d="M48.1611 72.5781C52.4289 72.5781 56.6008 71.3126 60.1493 68.9416C63.6978 66.5705 66.4635 63.2005 68.0967 59.2576C69.7299 55.3147 70.1572 50.9761 69.3246 46.7903C68.492 42.6046 66.4369 38.7597 63.4192 35.742C60.4014 32.7242 56.5566 30.6691 52.3708 29.8365C48.1851 29.0039 43.8464 29.4312 39.9035 31.0644C35.9607 32.6976 32.5906 35.4633 30.2196 39.0118C27.8485 42.5604 26.583 46.7323 26.583 51C26.5892 56.721 28.8646 62.2059 32.9099 66.2512C36.9553 70.2965 42.4402 72.5719 48.1611 72.5781V72.5781ZM48.1611 36.6699C50.9958 36.6699 53.7668 37.5105 56.1238 39.0854C58.4807 40.6604 60.3177 42.8988 61.4024 45.5178C62.4871 48.1367 62.7708 51.0185 62.2176 53.7987C61.6645 56.5789 60.2993 59.1326 58.2947 61.1369C56.2902 63.1412 53.7362 64.5061 50.956 65.0588C48.1757 65.6116 45.2939 65.3275 42.6751 64.2425C40.0563 63.1574 37.8181 61.3201 36.2435 58.963C34.6689 56.6058 33.8287 53.8347 33.8291 51C33.8332 47.2002 35.3445 43.5572 38.0314 40.8703C40.7183 38.1834 44.3613 36.6721 48.1611 36.668V36.6699Z" fill="#1A1A1A" stroke="black" stroke-width="1.4"/>
</svg>
