<svg width="1024" height="1024" viewBox="0 0 1024 1024" fill="none" xmlns="http://www.w3.org/2000/svg">
<g clip-path="url(#clip0_6163_7322)">
<rect width="1024" height="1024" fill="white"/>
<rect width="1024" height="1024" fill="#212121"/>
<circle cx="511.465" cy="511.467" r="294.4" fill="white"/>
<circle cx="511.465" cy="511.467" r="294.4" fill="white"/>
<path d="M484.093 139.907C484.093 124.495 496.588 112 512 112C732.915 112 912 291.086 912 512C912 732.915 732.915 912 512 912C291.086 912 112 732.915 112 512C112 400.11 157.977 298.908 231.999 226.344C243.005 215.554 260.674 215.73 271.463 226.736C282.253 237.742 282.077 255.411 271.071 266.201C207.316 328.7 167.814 415.712 167.814 512C167.814 702.087 321.911 856.186 512 856.186C702.087 856.186 856.186 702.087 856.186 512C856.186 321.911 702.087 167.814 512 167.814C496.588 167.814 484.093 155.319 484.093 139.907Z" fill="#EDE490"/>
<path d="M576.998 445.427C576.998 409.111 547.439 379.513 511.169 379.513C474.9 379.513 445.341 409.111 445.341 445.427C445.341 448.914 448.229 451.806 451.711 451.806C455.194 451.806 458.082 448.914 458.082 445.427C458.082 416.085 481.865 392.271 511.169 392.271C540.474 392.271 564.257 416.085 564.257 445.427C564.257 474.769 540.474 498.583 511.169 498.583C507.687 498.583 504.799 501.475 504.799 504.962V555.992C504.799 559.479 507.687 562.37 511.169 562.37C514.652 562.37 517.54 559.479 517.54 555.992V511C550.836 507.768 576.998 479.617 576.998 445.427Z" fill="#212121" stroke="#212121" stroke-width="26"/>
<rect x="332.8" y="558.942" width="358.4" height="84.48" rx="42.24" fill="#212121"/>
</g>
<defs>
<clipPath id="clip0_6163_7322">
<rect width="1024" height="1024" fill="white"/>
</clipPath>
</defs>
</svg>
