<svg width="851" height="851" viewBox="0 0 851 851" fill="none" xmlns="http://www.w3.org/2000/svg">
<g clip-path="url(#clip0_5372_14)">
<path fill-rule="evenodd" clip-rule="evenodd" d="M258.5 300.375C235.385 300.375 216.625 281.615 216.625 258.5C216.625 235.385 235.385 216.625 258.5 216.625C281.615 216.625 300.375 235.385 300.375 258.5C300.375 281.615 281.615 300.375 258.5 300.375ZM258.5 174.75C212.249 174.75 174.75 212.249 174.75 258.5C174.75 304.751 212.249 342.25 258.5 342.25C304.751 342.25 342.25 304.751 342.25 258.5C342.25 212.249 304.751 174.75 258.5 174.75ZM719.125 449.617L607.761 335.878C599.929 327.879 587.057 327.865 579.209 335.848L385.36 533.012L313.919 460.655C306.359 452.998 294.098 452.695 286.168 459.967L132.875 600.556V174.75C132.875 151.635 151.635 132.875 174.75 132.875H677.25C700.365 132.875 719.125 151.635 719.125 174.75V449.617ZM719.125 677.25C719.125 700.365 700.365 719.125 677.25 719.125H569.045L414.777 562.827L579.358 398.246C587.168 390.436 599.832 390.436 607.642 398.246L719.125 509.729V677.25ZM174.75 719.125C151.635 719.125 132.875 700.365 132.875 677.25V657.59L285.124 521.227C293.033 514.143 305.1 514.474 312.609 521.982L509.771 719.125H174.75ZM677.25 91H174.75C128.499 91 91 128.499 91 174.75V677.25C91 723.501 128.499 761 174.75 761H677.25C723.501 761 761 723.501 761 677.25V174.75C761 128.499 723.501 91 677.25 91Z" fill="black"/>
</g>
<defs>
<clipPath id="clip0_5372_14">
<rect x="91" y="91" width="670" height="670" rx="50" fill="white"/>
</clipPath>
</defs>
</svg>
