<svg width="1024" height="1024" viewBox="0 0 1024 1024" fill="none" xmlns="http://www.w3.org/2000/svg">
<g clip-path="url(#clip0_6625_2)">
<rect x="-0.811523" width="1024" height="1024" fill="#FF8D1D"/>
<path fill-rule="evenodd" clip-rule="evenodd" d="M106.295 362.7C111.6 363.324 116.198 365.488 120.089 369.192C157.422 417.354 198.264 462.522 242.612 504.697C247.253 508.527 252.122 512.044 257.217 515.246C270.849 497.201 284.101 478.81 296.976 460.07C315.238 434.233 337.688 412.865 364.324 395.968C370.081 392.818 376.031 390.115 382.175 387.854C390.243 385.564 394.029 388.539 393.534 396.78C393.589 401.539 392.238 405.867 389.477 409.762C370.721 423.649 351.518 436.902 331.867 449.521C312.44 468.45 300.81 491.44 296.976 518.491C288.796 571.853 287.444 625.406 292.919 679.151C292.814 691.101 292.003 703.003 290.485 714.853C287.932 722.212 282.795 724.646 275.068 722.155C263.571 708.91 258.973 693.493 261.274 675.905C274.186 640.737 273.103 606.117 258.029 572.044C248.555 556.337 238.276 541.19 227.195 526.605C189.177 490.215 152.934 452.35 118.466 413.008C111.803 401.304 105.582 389.402 99.8037 377.306C100.729 371.801 102.893 366.933 106.295 362.7Z" fill="white"/>
<path fill-rule="evenodd" clip-rule="evenodd" d="M1023.19 643.449C1023.19 656.971 1023.19 670.496 1023.19 684.019C1020.8 681.34 1018.64 678.364 1016.7 675.094C984.809 653.484 960.467 625.356 943.67 590.707C911.206 589.702 878.75 589.16 846.301 589.084C831.087 590.335 818.376 596.555 808.165 607.746C798.266 623.59 789.071 639.818 780.577 656.431C779.495 661.84 779.495 667.25 780.577 672.659C786.258 684.285 785.718 695.645 778.954 706.739C771.348 716.795 763.234 717.336 754.612 708.361C771.057 626.785 807.3 555.381 863.341 494.149C874.074 481.782 886.245 471.233 899.854 462.504C905.804 460.441 909.861 462.335 912.025 468.184C911.053 473.747 909.702 479.427 907.968 485.224C908.335 490.111 909.687 494.709 912.025 499.017C926.387 519.079 941.533 538.553 957.464 557.439C961.043 561.561 965.1 565.078 969.636 567.987C975.02 568.271 980.429 568 985.864 567.176C994.195 566.309 998.523 570.095 998.846 578.536C995.326 591.523 992.352 604.506 989.921 617.483C999.878 627.727 1010.97 636.381 1023.19 643.449Z" fill="white"/>
<path fill-rule="evenodd" clip-rule="evenodd" d="M625.598 497.395C668.727 495.244 711.463 498.219 753.801 506.32C755.298 509.632 755.839 513.149 755.423 516.868C717.224 516.007 679.357 518.981 641.826 525.794C621.682 531.401 604.102 541.407 589.084 555.816C585.968 560.423 583.263 565.292 580.97 570.422C568.768 660.996 607.985 701.296 698.625 691.322C700.885 689.421 702.239 686.987 702.682 684.019C703.222 663.463 703.764 642.908 704.305 622.352C710.057 613.087 717.091 612.006 725.401 619.106C731.618 649.631 734.324 680.465 733.515 711.607C731.114 716.74 727.057 719.715 721.344 720.533C708.43 722.788 695.447 723.329 682.396 722.155C651.019 713.491 620.728 702.131 591.519 688.076C567.381 664.944 554.127 636.545 551.759 602.878C545.88 545.818 570.493 510.656 625.598 497.395Z" fill="white"/>
<path fill-rule="evenodd" clip-rule="evenodd" d="M456.824 1023.19C448.169 1023.19 439.513 1023.19 430.859 1023.19C432.194 1020.02 432.465 1016.77 431.67 1013.45C405.997 991.85 395.989 964.804 401.648 932.311C396.372 935.353 391.233 938.599 386.231 942.048C378.705 937.302 376.27 930.811 378.929 922.574C386.543 920.307 394.117 917.872 401.648 915.271C417.2 909.341 422.339 898.251 417.065 882.003C405.705 853.334 392.182 825.746 376.494 799.239C369.146 783.28 365.63 766.51 365.946 748.932C367.567 735.432 368.379 721.909 368.38 708.361C361.908 699.769 355.417 691.114 348.906 682.396C343.006 672.817 338.678 662.538 335.924 651.563C335.383 628.83 335.924 606.111 337.547 583.404C339.557 546.279 357.408 520.314 391.1 505.509C400.835 504.983 405.703 509.311 405.705 518.491C387.716 531.724 375.276 549.034 368.38 570.422C362.228 597.234 361.147 624.281 365.135 651.563C369.889 666.006 378.815 676.823 391.911 684.019C404.292 676.742 416.734 669.44 429.236 662.111C435.023 658.539 441.245 656.105 447.898 654.808C456.809 657.776 465.193 661.833 473.052 666.979C474.675 668.062 476.298 668.062 477.921 666.979C494.055 653.547 504.061 636.508 507.943 615.861C513.016 587.818 505.713 563.745 486.035 543.645C471.121 538.439 457.867 530.596 446.276 520.114C442.769 503.089 449.531 497.409 466.561 503.074C504.434 522.537 525.531 553.371 529.851 595.575C528.105 630.57 517.016 662.215 496.583 690.51C487.961 702.922 476.872 712.389 463.315 718.91C440.589 727.772 417.329 729.935 393.534 725.401C392.182 726.753 390.829 728.106 389.477 729.458C383.729 750.16 384.271 770.717 391.1 791.125C403.819 811.149 415.721 831.705 426.802 852.792C432.756 865.788 437.084 879.311 439.784 893.363C442.946 905.315 439.971 915.323 430.859 923.385C425.297 926.3 420.158 929.816 415.442 933.933C411.914 938.877 410.832 944.287 412.196 950.162C414.587 957.106 417.832 963.597 421.933 969.636C434.564 986.859 446.195 1004.71 456.824 1023.19Z" fill="white"/>
<path fill-rule="evenodd" clip-rule="evenodd" d="M875.983 520.077C882.74 519.497 887.88 522.203 891.4 528.191C896.906 537.038 901.503 546.235 905.194 555.779C894.361 556.048 883.542 555.779 872.737 554.967C864.024 552.406 860.509 546.727 862.189 537.928C865.896 531.251 870.493 525.302 875.983 520.077Z" fill="#FF8D1D"/>
<path fill-rule="evenodd" clip-rule="evenodd" d="M1023.19 882.404C1023.19 893.984 1023.19 905.562 1023.19 917.142C1020.64 914.274 1018.32 911.089 1016.24 907.589C988.472 890.822 967.339 867.952 952.843 838.98C949.98 836.867 946.797 835.42 943.29 834.638C913.762 833.48 884.234 833.48 854.706 834.638C847.069 837.447 840.41 841.789 834.732 847.665C827.784 859.245 820.836 870.823 813.889 882.404C811.704 899.646 810.547 917.015 810.415 934.511C804.527 940.646 798.157 941.226 791.309 936.248C788.231 928.286 787.941 920.18 790.44 911.931C775.687 913.738 761.211 916.921 747.017 921.484C723.822 930.334 700.952 939.887 678.409 950.144C668.199 930.568 664.725 909.725 667.987 887.614C674.228 863.103 681.175 838.786 688.83 814.663C690.171 808.067 691.039 801.409 691.435 794.689C689.785 781.684 689.495 768.657 690.567 755.608C691.385 752.575 692.544 749.68 694.041 746.923C697.515 742.291 700.989 742.291 704.462 746.923C711.924 772.211 712.503 797.687 706.199 823.348C699.695 845.174 693.905 867.174 688.83 889.351C687.672 896.299 687.672 903.247 688.83 910.194C689.699 911.063 690.567 911.931 691.435 912.8C699.542 913.958 707.646 913.958 715.752 912.8C729.471 908.211 743.366 904.158 757.439 900.641C771.659 900.336 784.974 896.862 797.388 890.22C807.165 868.451 817.297 846.739 827.784 825.085C850.131 789.395 877.054 757.261 908.551 728.686C911.846 726.758 915.03 726.469 918.104 727.817C918.683 735.923 919.263 744.028 919.841 752.134C929.396 768.935 939.818 785.146 951.106 800.768C956.607 805.11 962.106 809.453 967.607 813.795C975.579 813.824 983.395 814.113 991.055 814.663C992.766 817.905 993.634 821.378 993.661 825.085C991.344 836.054 989.895 847.055 989.318 858.087C999.945 867.291 1011.23 875.395 1023.19 882.404Z" fill="#FFFCFA"/>
<path fill-rule="evenodd" clip-rule="evenodd" d="M435.727 674.282C444.841 673.618 452.413 676.593 458.447 683.208C448.94 700.085 434.875 705.495 416.253 699.436C414.863 698.318 413.782 696.966 413.008 695.379C418.577 686.017 426.151 678.983 435.727 674.282Z" fill="#FF8D1D"/>
<path fill-rule="evenodd" clip-rule="evenodd" d="M570.422 724.589C574.321 724.416 577.296 726.039 579.347 729.458C578.471 735.896 577.929 742.387 577.724 748.932C587.367 764.522 597.645 779.668 608.558 794.371C617.73 805.038 629.361 809.637 643.449 808.165C648.072 812.318 649.425 817.457 647.506 823.582C644.179 831.571 642.827 839.685 643.449 847.924C658.469 858.005 671.181 870.445 681.585 885.249C682.667 889.035 682.667 892.822 681.585 896.609C678.44 900.63 674.923 900.901 671.037 897.42C644.015 880.679 623.189 858.229 608.558 830.073C605.996 827.572 603.019 825.678 599.632 824.393C575.29 823.311 550.948 823.311 526.606 824.393C501.559 834.114 486.142 852.236 480.355 878.757C480.204 892.404 479.122 905.928 477.109 919.328C466.383 928.721 459.62 926.287 456.824 912.025C474.357 836.955 512.222 774.477 570.422 724.589Z" fill="white"/>
<path fill-rule="evenodd" clip-rule="evenodd" d="M552.57 771.651C556.699 771.009 560.215 772.091 563.119 774.897C568.083 782.662 572.14 790.776 575.29 799.239C567.158 799.509 559.044 799.238 550.947 798.428C545.24 796.02 542.264 791.962 542.022 786.257C545.553 781.341 549.07 776.473 552.57 771.651Z" fill="#FF8D1D"/>
<path fill-rule="evenodd" clip-rule="evenodd" d="M899.854 778.143C904.731 777.742 908.788 779.365 912.025 783.011C915.811 788.962 919.599 794.911 923.385 800.862C924.6 802.704 924.331 804.327 922.573 805.731C909.878 809.522 898.788 806.816 889.306 797.617C889.617 789.444 893.134 782.953 899.854 778.143Z" fill="#FF8D1D"/>
</g>
<defs>
<clipPath id="clip0_6625_2">
<rect width="1024" height="1024" rx="20" fill="white"/>
</clipPath>
</defs>
</svg>
