<svg width="800" height="800" viewBox="0 0 800 800" fill="none" xmlns="http://www.w3.org/2000/svg">
<g clip-path="url(#clip0_6299_2)">
<g filter="url(#filter0_d_6299_2)">
<path d="M794.784 402.703C782.734 389.619 767.048 380.336 749.616 374.381C732.337 368.566 713.017 365.95 692.703 365.95C681.659 365.95 670.195 366.678 658.566 368.272C661.472 351.58 663.067 334.3 663.067 316.88C663.067 285.944 658.145 254.28 646.948 222.769L643.175 212.184L631.991 213.051C584.655 217.106 540.084 232.792 500.578 256.18C481.259 214.353 438.922 162.642 400.016 140.72C361.095 162.642 318.744 214.351 299.425 256.18C259.92 232.792 215.35 217.106 168.014 213.051L156.83 212.184L153.055 222.769C141.87 254.28 136.936 285.944 136.936 316.88C136.936 334.3 138.53 351.58 141.437 368.272C129.808 366.678 118.344 365.95 107.313 365.95C86.9859 365.95 67.6656 368.564 50.3875 374.381C32.9547 380.336 17.2687 389.619 5.21875 402.703L0 408.353L1.74531 415.916C22.9406 507.975 66.7953 570.116 125.023 607.875C183.25 645.762 254.408 659.278 330.641 659.278C350.828 659.278 371.448 658.259 392.208 656.511C392.744 656.639 399.414 656.601 400.012 656.639C400.572 656.601 407.256 656.639 407.791 656.511C428.55 658.258 449.172 659.278 469.358 659.278C545.605 659.278 616.748 645.762 674.989 607.875C733.203 570.116 777.058 507.973 798.252 415.916L799.998 408.353L794.784 402.703ZM535.136 408.647C533.683 365.951 526.145 322.67 511.761 283.317C545.745 262.709 583.492 248.48 623.28 243.389C630.689 268.076 634.03 292.626 634.03 316.88C634.03 336.186 631.848 355.201 628.073 373.792C625.753 384.683 622.845 395.434 619.505 406.031C610.642 433.32 598.309 459.476 583.645 483.284C561.431 519.591 534.128 550.794 507.119 574.042C523.966 536.576 533.402 490.108 534.995 441.611C535.288 436.089 535.43 430.58 535.43 425.058C535.43 419.691 535.287 414.167 535.136 408.647ZM176.72 243.389C216.506 248.478 254.255 262.709 288.239 283.317C273.855 322.67 266.319 365.951 264.864 408.647C264.711 414.167 264.57 419.691 264.57 425.058C264.57 430.58 264.711 436.089 265.005 441.611C266.598 490.108 276.036 536.576 292.894 574.042C265.872 550.795 238.57 519.591 216.355 483.284C201.691 459.476 189.358 433.32 180.495 406.031C177.155 395.434 174.247 384.683 171.927 373.792C168.152 355.2 165.97 336.186 165.97 316.88C165.97 292.626 169.312 268.078 176.72 243.389ZM140.861 583.467C91.0375 550.961 52.7047 499.251 31.9422 417.216C39.4922 410.686 48.7766 405.586 59.6672 401.966C73.325 397.323 89.4563 395.003 107.309 395.003C120.241 395.003 134.025 396.162 148.258 398.776C163.356 455.27 192.686 506.226 226.239 547.162C251.067 577.231 278.064 601.922 304.498 619.353C310.594 623.409 316.703 627.044 322.658 630.105C252.955 629.222 190.519 615.998 140.861 583.467ZM444.238 612.809C443.805 613.091 443.37 613.537 442.938 613.831C433.934 620.653 424.345 625.001 413.888 626.891C413.173 627.044 412.587 627.044 411.859 627.197H411.286C410.698 627.336 409.972 627.336 409.245 627.478C409.245 627.478 409.245 627.478 409.092 627.478C408.111 627.553 401.033 627.606 400.012 627.656C398.991 627.606 391.902 627.553 390.906 627.478C390.767 627.478 390.767 627.478 390.767 627.478C390.027 627.337 389.3 627.337 388.713 627.197H388.139C387.411 627.044 386.839 627.044 386.111 626.891C375.655 625.003 366.077 620.653 357.061 613.831C356.627 613.537 356.206 613.091 355.761 612.809C337.169 598.145 321.202 572.016 310.311 538.898C302.609 515.664 297.533 489.087 295.213 461.058C294.192 449.301 293.605 437.389 293.605 425.2V425.059C293.605 382.658 300.008 339.097 313.066 300.023C315.247 293.494 317.58 287.245 320.041 281.15C321.342 278.101 322.655 275.055 324.109 272.006C340.216 235.855 370.373 197.062 400.011 178.047C429.62 197.061 459.78 235.853 475.886 272.006C477.339 275.055 478.653 278.101 479.953 281.15C482.428 287.245 484.748 293.494 486.928 300.023C499.986 339.097 506.389 382.658 506.389 425.059V425.2C506.389 437.391 505.802 449.301 504.781 461.058C502.461 489.087 497.386 515.664 489.684 538.898C478.797 572.016 462.83 598.145 444.238 612.809ZM659.139 583.467C609.483 615.998 547.045 629.222 477.342 630.103C483.311 627.042 489.406 623.408 495.502 619.351C521.938 601.92 548.934 577.231 573.761 547.161C607.314 506.225 636.644 455.267 651.742 398.775C665.973 396.161 679.758 395.001 692.702 395.001C710.555 395.001 726.673 397.322 740.331 401.964C751.222 405.584 760.505 410.686 768.055 417.214C747.295 499.251 708.961 550.961 659.139 583.467Z" fill="black" stroke="black" stroke-width="15"/>
</g>
</g>
<defs>
<filter id="filter0_d_6299_2" x="-12.1995" y="132.112" width="824.397" height="542.667" filterUnits="userSpaceOnUse" color-interpolation-filters="sRGB">
<feFlood flood-opacity="0" result="BackgroundImageFix"/>
<feColorMatrix in="SourceAlpha" type="matrix" values="0 0 0 0 0 0 0 0 0 0 0 0 0 0 0 0 0 0 127 0" result="hardAlpha"/>
<feOffset dy="4"/>
<feGaussianBlur stdDeviation="2"/>
<feComposite in2="hardAlpha" operator="out"/>
<feColorMatrix type="matrix" values="0 0 0 0 0 0 0 0 0 0 0 0 0 0 0 0 0 0 0.25 0"/>
<feBlend mode="normal" in2="BackgroundImageFix" result="effect1_dropShadow_6299_2"/>
<feBlend mode="normal" in="SourceGraphic" in2="effect1_dropShadow_6299_2" result="shape"/>
</filter>
<clipPath id="clip0_6299_2">
<rect width="800" height="800" fill="white"/>
</clipPath>
</defs>
</svg>
