<svg width="3100" height="1100" viewBox="0 0 3100 1100" fill="none" xmlns="http://www.w3.org/2000/svg">
<g clip-path="url(#clip0_8453_162)">
<path d="M3100 550C3100 1100 3100 1100 1550 1100C0 1100 0 1100 0 550C0 0.000427246 0 0 1550 0C3100 0 3100 0.000427246 3100 550Z" fill="#212121"/>
<path d="M1210.16 610.42C1210.16 650.873 1201.03 686.64 1182.78 717.72C1165.02 748.307 1140.85 772.233 1110.26 789.5C1080.17 806.767 1046.37 815.4 1008.88 815.4C971.387 815.4 937.347 806.767 906.76 789.5C876.667 772.233 852.493 748.307 834.24 717.72C816.48 686.64 807.6 650.873 807.6 610.42C807.6 569.967 816.48 534.447 834.24 503.86C852.493 472.78 876.667 448.607 906.76 431.34C937.347 413.58 971.387 404.7 1008.88 404.7C1046.37 404.7 1080.17 413.58 1110.26 431.34C1140.85 448.607 1165.02 472.78 1182.78 503.86C1201.03 534.447 1210.16 569.967 1210.16 610.42ZM1121.36 610.42C1121.36 585.26 1116.18 563.553 1105.82 545.3C1095.95 526.553 1082.39 512 1065.12 501.64C1048.35 491.28 1029.6 486.1 1008.88 486.1C988.16 486.1 969.167 491.28 951.9 501.64C935.127 512 921.56 526.553 911.2 545.3C901.333 563.553 896.4 585.26 896.4 610.42C896.4 635.087 901.333 656.793 911.2 675.54C921.56 693.793 935.127 708.1 951.9 718.46C969.167 728.82 988.16 734 1008.88 734C1029.6 734 1048.35 728.82 1065.12 718.46C1082.39 708.1 1095.95 693.793 1105.82 675.54C1116.18 656.793 1121.36 635.087 1121.36 610.42ZM1332.28 808C1319.45 808 1308.84 803.807 1300.46 795.42C1292.07 786.54 1287.88 775.687 1287.88 762.86V457.24C1287.88 444.413 1292.07 433.807 1300.46 425.42C1308.84 416.54 1319.45 412.1 1332.28 412.1C1345.1 412.1 1355.71 416.54 1364.1 425.42C1372.48 433.807 1376.68 444.413 1376.68 457.24V526.8L1371.5 477.22C1376.92 465.38 1383.83 455.02 1392.22 446.14C1401.1 436.767 1410.96 429.12 1421.82 423.2C1432.67 416.787 1444.26 412.1 1456.6 409.14C1468.93 406.18 1481.26 404.7 1493.6 404.7C1508.4 404.7 1520.73 408.893 1530.6 417.28C1540.96 425.667 1546.14 435.533 1546.14 446.88C1546.14 463.16 1541.94 475 1533.56 482.4C1525.17 489.307 1516.04 492.76 1506.18 492.76C1496.8 492.76 1488.17 491.033 1480.28 487.58C1472.88 484.127 1464.24 482.4 1454.38 482.4C1445.5 482.4 1436.37 484.62 1427 489.06C1418.12 493.007 1409.73 499.42 1401.84 508.3C1394.44 517.18 1388.27 528.28 1383.34 541.6C1378.9 554.427 1376.68 569.72 1376.68 587.48V762.86C1376.68 775.687 1372.48 786.54 1364.1 795.42C1355.71 803.807 1345.1 808 1332.28 808ZM1585.8 746.58C1580.86 739.673 1578.64 730.793 1579.14 719.94C1579.63 709.087 1586.04 699.713 1598.38 691.82C1606.27 686.887 1614.66 684.913 1623.54 685.9C1632.42 686.393 1641.05 690.833 1649.44 699.22C1663.74 713.527 1678.79 724.627 1694.58 732.52C1710.36 740.413 1730.1 744.36 1753.78 744.36C1761.18 743.867 1769.32 742.88 1778.2 741.4C1787.08 739.427 1794.72 735.48 1801.14 729.56C1808.04 723.147 1811.5 713.527 1811.5 700.7C1811.5 689.847 1807.8 681.213 1800.4 674.8C1793 668.387 1783.13 662.96 1770.8 658.52C1758.96 654.08 1745.64 649.887 1730.84 645.94C1715.54 641.5 1699.76 636.567 1683.48 631.14C1667.69 625.713 1653.14 618.807 1639.82 610.42C1626.5 601.54 1615.64 589.947 1607.26 575.64C1598.87 561.333 1594.68 543.327 1594.68 521.62C1594.68 496.953 1601.58 475.987 1615.4 458.72C1629.21 441.453 1646.97 428.133 1668.68 418.76C1690.88 409.387 1714.06 404.7 1738.24 404.7C1753.53 404.7 1769.56 406.673 1786.34 410.62C1803.11 414.073 1819.14 419.993 1834.44 428.38C1849.73 436.273 1862.56 446.88 1872.92 460.2C1878.34 467.6 1881.55 476.48 1882.54 486.84C1883.52 497.2 1878.84 506.573 1868.48 514.96C1861.08 520.88 1852.44 523.593 1842.58 523.1C1832.71 522.113 1824.57 518.66 1818.16 512.74C1809.77 501.887 1798.42 493.253 1784.12 486.84C1770.3 480.427 1754.27 477.22 1736.02 477.22C1728.62 477.22 1720.48 478.207 1711.6 480.18C1703.21 481.66 1695.81 485.36 1689.4 491.28C1682.98 496.707 1679.78 505.587 1679.78 517.92C1679.78 529.267 1683.48 538.393 1690.88 545.3C1698.28 551.713 1708.14 557.14 1720.48 561.58C1733.3 565.527 1746.87 569.473 1761.18 573.42C1775.98 577.367 1791.02 582.053 1806.32 587.48C1821.61 592.907 1835.67 600.06 1848.5 608.94C1861.32 617.82 1871.68 629.413 1879.58 643.72C1887.47 657.533 1891.42 675.293 1891.42 697C1891.42 722.16 1884.02 743.62 1869.22 761.38C1854.42 779.14 1835.92 792.707 1813.72 802.08C1791.52 810.96 1768.82 815.4 1745.64 815.4C1716.53 815.4 1687.42 810.467 1658.32 800.6C1629.21 790.24 1605.04 772.233 1585.8 746.58ZM2173.67 404.7C2209.19 404.7 2236.08 412.347 2254.33 427.64C2273.08 442.933 2285.9 463.407 2292.81 489.06C2299.72 514.22 2303.17 542.34 2303.17 573.42V762.86C2303.17 775.687 2298.98 786.54 2290.59 795.42C2282.2 803.807 2271.6 808 2258.77 808C2245.94 808 2235.34 803.807 2226.95 795.42C2218.56 786.54 2214.37 775.687 2214.37 762.86V573.42C2214.37 557.14 2212.4 542.587 2208.45 529.76C2204.5 516.44 2197.35 505.833 2186.99 497.94C2176.63 490.047 2161.83 486.1 2142.59 486.1C2123.84 486.1 2107.81 490.047 2094.49 497.94C2081.17 505.833 2071.06 516.44 2064.15 529.76C2057.74 542.587 2054.53 557.14 2054.53 573.42V762.86C2054.53 775.687 2050.34 786.54 2041.95 795.42C2033.56 803.807 2022.96 808 2010.13 808C1997.3 808 1986.7 803.807 1978.31 795.42C1969.92 786.54 1965.73 775.687 1965.73 762.86V305.54C1965.73 292.713 1969.92 282.107 1978.31 273.72C1986.7 264.84 1997.3 260.4 2010.13 260.4C2022.96 260.4 2033.56 264.84 2041.95 273.72C2050.34 282.107 2054.53 292.713 2054.53 305.54V489.06L2043.43 486.84C2047.87 478.453 2054.04 469.573 2061.93 460.2C2069.82 450.333 2079.44 441.207 2090.79 432.82C2102.14 424.433 2114.72 417.773 2128.53 412.84C2142.34 407.413 2157.39 404.7 2173.67 404.7ZM2783.38 610.42C2783.38 650.873 2774.26 686.64 2756 717.72C2738.24 748.307 2714.07 772.233 2683.48 789.5C2653.39 806.767 2619.6 815.4 2582.1 815.4C2544.61 815.4 2510.57 806.767 2479.98 789.5C2449.89 772.233 2425.72 748.307 2407.46 717.72C2389.7 686.64 2380.82 650.873 2380.82 610.42C2380.82 569.967 2389.7 534.447 2407.46 503.86C2425.72 472.78 2449.89 448.607 2479.98 431.34C2510.57 413.58 2544.61 404.7 2582.1 404.7C2619.6 404.7 2653.39 413.58 2683.48 431.34C2714.07 448.607 2738.24 472.78 2756 503.86C2774.26 534.447 2783.38 569.967 2783.38 610.42ZM2694.58 610.42C2694.58 585.26 2689.4 563.553 2679.04 545.3C2669.18 526.553 2655.61 512 2638.34 501.64C2621.57 491.28 2602.82 486.1 2582.1 486.1C2561.38 486.1 2542.39 491.28 2525.12 501.64C2508.35 512 2494.78 526.553 2484.42 545.3C2474.56 563.553 2469.62 585.26 2469.62 610.42C2469.62 635.087 2474.56 656.793 2484.42 675.54C2494.78 693.793 2508.35 708.1 2525.12 718.46C2542.39 728.82 2561.38 734 2582.1 734C2602.82 734 2621.57 728.82 2638.34 718.46C2655.61 708.1 2669.18 693.793 2679.04 675.54C2689.4 656.793 2694.58 635.087 2694.58 610.42Z" fill="#FAFAFA"/>
<path d="M689.659 487.299V723.832C689.659 770.3 671.247 814.866 638.473 847.724C605.699 880.583 561.249 899.043 514.899 899.044C491.946 899.074 469.212 894.556 448.006 885.749C426.799 876.943 407.538 864.021 391.328 847.728" stroke="#FAFAFA" stroke-width="90" stroke-linecap="round" stroke-linejoin="round"/>
<path d="M689.658 431V615.218C689.66 629.88 685.643 644.399 677.838 657.945C670.032 671.491 658.59 683.8 644.165 694.167C629.741 704.535 612.616 712.759 593.769 718.369C574.922 723.979 554.722 726.866 534.322 726.865C513.924 726.865 493.725 723.977 474.88 718.366C456.034 712.755 438.911 704.531 424.488 694.164C410.065 683.796 398.624 671.488 390.819 657.943C383.014 644.397 378.998 629.88 379 615.218V431" stroke="#FAFAFA" stroke-width="90" stroke-linecap="round" stroke-linejoin="round"/>
<path d="M379 280.394C379 280.394 425.94 255.718 456.665 247.941C487.39 240.165 503.813 237.668 534.33 237.668C564.846 237.668 581.222 239.94 611.995 247.941C642.767 255.943 689.659 281.721 689.659 281.721" stroke="#03A9F5" stroke-width="90" stroke-linecap="round"/>
</g>
<defs>
<clipPath id="clip0_8453_162">
<rect width="3100" height="1100" rx="200" fill="white"/>
</clipPath>
</defs>
</svg>
