<svg width="1024" height="1024" viewBox="0 0 1024 1024" fill="none" xmlns="http://www.w3.org/2000/svg">
<g clip-path="url(#clip0_8452_120)">
<path d="M1024 512C1024 1024 1024 1024 512 1024C-0.000244141 1024 0 1024 0 512C0 0 -0.000244141 0 512 0C1024 0 1024 0 1024 512Z" fill="#FAFAFA"/>
<path d="M661.659 431.242V667.775C661.659 714.244 643.247 758.809 610.473 791.668C577.699 824.526 533.249 842.987 486.899 842.987C463.946 843.017 441.212 838.499 420.006 829.693C398.799 820.886 379.538 807.965 363.328 791.671" stroke="#212121" stroke-width="90" stroke-linecap="round" stroke-linejoin="round"/>
<path d="M661.658 374.943V559.162C661.66 573.824 657.643 588.342 649.838 601.889C642.032 615.435 630.59 627.743 616.165 638.111C601.741 648.478 584.616 656.702 565.769 662.312C546.922 667.923 526.722 670.81 506.322 670.808C485.924 670.808 465.725 667.92 446.88 662.31C428.034 656.699 410.911 648.475 396.488 638.107C382.065 627.74 370.624 615.432 362.819 601.886C355.014 588.341 350.998 573.823 351 559.162V374.943" stroke="#212121" stroke-width="90" stroke-linecap="round" stroke-linejoin="round"/>
<path d="M351.002 224.394C351.002 224.394 397.941 199.718 428.667 191.941C459.392 184.165 475.815 181.668 506.332 181.668C536.848 181.668 553.224 183.94 583.997 191.941C614.769 199.943 661.661 225.721 661.661 225.721" stroke="#03A9F5" stroke-width="90" stroke-linecap="round"/>
<path d="M1024 512C1024 1024 1024 1024 512 1024C-0.000244141 1024 0 1024 0 512C0 0 -0.000244141 0 512 0C1024 0 1024 0 1024 512Z" fill="#FAFAFA"/>
<path d="M661.659 431.242V667.775C661.659 714.244 643.247 758.809 610.473 791.668C577.699 824.526 533.249 842.987 486.899 842.987C463.946 843.017 441.212 838.499 420.006 829.693C398.799 820.886 379.538 807.965 363.328 791.671" stroke="#212121" stroke-width="90" stroke-linecap="round" stroke-linejoin="round"/>
<path d="M661.658 374.943V559.162C661.66 573.824 657.643 588.342 649.838 601.889C642.032 615.435 630.59 627.743 616.165 638.111C601.741 648.478 584.616 656.702 565.769 662.312C546.922 667.923 526.722 670.81 506.322 670.808C485.924 670.808 465.725 667.92 446.88 662.31C428.034 656.699 410.911 648.475 396.488 638.107C382.065 627.74 370.624 615.432 362.819 601.886C355.014 588.341 350.998 573.823 351 559.162V374.943" stroke="#212121" stroke-width="90" stroke-linecap="round" stroke-linejoin="round"/>
<path d="M351.002 224.394C351.002 224.394 397.941 199.718 428.667 191.941C459.392 184.165 475.815 181.668 506.332 181.668C536.848 181.668 553.224 183.94 583.997 191.941C614.769 199.943 661.661 225.721 661.661 225.721" stroke="#03A9F5" stroke-width="90" stroke-linecap="round"/>
</g>
<defs>
<clipPath id="clip0_8452_120">
<rect width="1024" height="1024" rx="150" fill="white"/>
</clipPath>
</defs>
</svg>
